<?xml version="1.0" standalone="no"?>
<!DOCTYPE svg PUBLIC "-//W3C//DTD SVG 1.1//EN" "http://www.w3.org/Graphics/SVG/1.1/DTD/svg11.dtd" >
<svg>
<metadata>
Created by FontForge 20110222 at Thu Mar  6 23:22:02 2014
 By Orthosie Webhosting
Digitized data copyright The Monotype Corporation 1991-1995. All rights reserved. Bookman Old StyleTM is a trademark of The Monotype Corporation which may be registered in certain jurisdictions.
</metadata>
<defs>
<font id="BookmanOldStyle-Italic" horiz-adv-x="1270" >
  <font-face 
    font-family="Bookman Old Style"
    font-weight="300"
    font-style="italic"
    font-stretch="normal"
    units-per-em="2048"
    panose-1="2 5 6 4 5 5 5 9 2 4"
    ascent="1638"
    descent="-410"
    x-height="989"
    cap-height="1395"
    bbox="-477 -639 2819 2087"
    underline-thickness="123"
    underline-position="-195"
    slope="-12.7"
    unicode-range="U+0020-F108"
  />
<missing-glyph horiz-adv-x="1536" 
d="M256 0v1280h1024v-1280h-1024zM288 32h960v1216h-960v-1216z" />
    <glyph glyph-name=".notdef" horiz-adv-x="1536" 
d="M256 0v1280h1024v-1280h-1024zM288 32h960v1216h-960v-1216z" />
    <glyph glyph-name=".null" horiz-adv-x="0" 
 />
    <glyph glyph-name="nonmarkingreturn" horiz-adv-x="614" 
 />
    <glyph glyph-name="space" unicode=" " horiz-adv-x="614" 
 />
    <glyph glyph-name="exclam" unicode="!" horiz-adv-x="655" 
d="M436 333h-80l122 901q10 73 18 95q13 36 47.5 63t73.5 27q46 0 75.5 -27.5t29.5 -71.5q0 -20 -4 -41q-3 -12 -19 -64zM370 218q44 0 72 -28t28 -72q0 -58 -41 -100t-97 -42q-49 0 -76 27t-27 75q0 58 41 99t100 41z" />
    <glyph glyph-name="quotedbl" unicode="&#x22;" horiz-adv-x="737" 
d="M692 905l34 350q8 87 39 125.5t72 38.5q28 0 43 -15t15 -45q0 -34 -25 -101l-136 -353h-42zM367 905l34 350q8 87 39 125.5t72 38.5q28 0 43 -15t15 -45q0 -34 -26 -101l-136 -353h-41z" />
    <glyph glyph-name="numbersign" unicode="#" horiz-adv-x="1229" 
d="M1061 559v-117h-219l-65 -443h-119l65 443h-273l-62 -443h-122l67 443h-218v117h236l37 271h-217v116h239l62 417h115l-61 -417h272l61 417h118l-61 -417h196v-117h-213l-40 -270h202zM781 829h-273l-40 -270h271z" />
    <glyph glyph-name="dollar" unicode="$" 
d="M969 1618h99l-56 -243q67 -16 109.5 -38.5t96.5 -71.5l64 102h72l9 -416l-97 -11q-23 104 -59.5 168t-86 105t-129.5 69l-114 -490q191 -76 258 -124.5t103 -118.5t36 -150q0 -100 -60 -191t-174 -148.5t-248 -57.5q-35 0 -93 4l-57 -245h-98l62 263q-97 32 -151.5 66
t-111.5 94l-73 -160h-71l24 492h94q22 -108 65.5 -187t101.5 -129.5t142 -80.5l127 555q-193 73 -268 142q-103 96 -103 224q0 89 56 172.5t163.5 134t246.5 50.5q23 0 68 -2zM895 1300q-18 1 -27 1q-149 0 -237 -70t-88 -165q0 -73 47 -124q58 -62 197 -113zM719 98
q42 -5 63 -5q86 0 169 40.5t122.5 101.5t39.5 134q0 58 -23.5 103.5t-70.5 79.5t-175 85z" />
    <glyph glyph-name="percent" unicode="%" horiz-adv-x="1638" 
d="M689 1419q108 0 180.5 -66t72.5 -185q0 -132 -64 -254.5t-158 -184t-204 -61.5q-115 0 -184.5 70t-69.5 184q0 132 61 251t161 182.5t205 63.5zM683 1351q-68 0 -130.5 -49t-114 -172t-51.5 -237q0 -73 38 -116.5t98 -43.5q66 0 129 50.5t112 169.5t49 242
q0 75 -35.5 115.5t-94.5 40.5zM1633 1419l-1205 -1431h-107l1205 1431h107zM1439 738q108 0 180.5 -65.5t72.5 -185.5q0 -131 -63.5 -254t-158 -184t-204.5 -61q-115 0 -184.5 69.5t-69.5 183.5q0 133 61.5 252t161 182t204.5 63zM1434 671q-69 0 -131 -49t-114 -172.5
t-52 -237.5q0 -73 38 -116.5t99 -43.5q65 0 128 51t112 169.5t49 241.5q0 75 -35.5 116t-93.5 41z" />
    <glyph glyph-name="ampersand" unicode="&#x26;" horiz-adv-x="1679" 
d="M1241 881h469l-19 -85h-47q-75 0 -109 -21.5t-61 -88.5q-56 -135 -127 -243.5t-134 -166.5q41 -110 81 -152q53 -56 126 -56q61 0 103.5 39.5t42.5 94.5q0 24 -6 40q-2 8 -28 48t-28 49q-6 17 -6 41q0 40 26.5 67t67.5 27q46 0 79.5 -45t33.5 -124q0 -92 -42 -168
t-116.5 -118.5t-164.5 -42.5q-101 0 -179 55q-60 41 -109 127q-119 -98 -227 -140t-226 -42q-132 0 -232.5 52.5t-157 144t-56.5 199.5q0 159 114 279q133 141 393 213q-60 31 -91.5 64.5t-49 79t-17.5 96.5q0 82 45.5 152.5t137 116.5t192.5 46q90 0 160 -34.5t106 -96
t36 -136.5q0 -85 -49 -158t-134 -117q-58 -30 -148 -41q90 -36 138 -81t91 -137.5t71 -229.5q103 133 157 244q36 72 36 107q0 21 -8 31.5t-31 19.5q-15 6 -53 6h-70zM922 1324q-61 0 -114.5 -32t-84.5 -89.5t-31 -126.5q0 -76 44.5 -121.5t117.5 -45.5q103 0 163 83.5
t60 167.5q0 46 -20 85t-55 59t-80 20zM779 809q-194 -64 -292 -165q-109 -111 -109 -251q0 -85 41 -156.5t112.5 -111.5t162.5 -40q80 0 164 34t200 121q-20 58 -47 162q-48 188 -95 269.5t-137 137.5z" />
    <glyph glyph-name="quotesingle" unicode="'" horiz-adv-x="410" 
d="M366 905l34 350q8 87 39 125.5t72 38.5q28 0 43 -15t15 -45q0 -34 -26 -101l-136 -353h-41z" />
    <glyph glyph-name="parenleft" unicode="(" horiz-adv-x="573" 
d="M768 1454l60 -59q-128 -129 -200 -280q-95 -201 -184 -598.5t-89 -608.5q0 -90 23 -175.5t69 -158.5l-67 -49q-80 99 -117 220q-47 153 -47 328q0 188 51.5 435.5t130 435t169.5 309t201 201.5z" />
    <glyph glyph-name="parenright" unicode=")" horiz-adv-x="573" 
d="M60 -475l-61 59q128 128 200 279q96 201 185 598.5t89 609.5q0 89 -23.5 174.5t-69.5 158.5l67 50q80 -99 117 -221q47 -153 47 -327q0 -189 -51 -436.5t-129.5 -435t-170 -308.5t-200.5 -201z" />
    <glyph glyph-name="asterisk" unicode="*" horiz-adv-x="901" 
d="M685 1119l-27 161q-3 16 -3 34q0 49 23.5 77t59.5 28q45 0 72 -22t27 -67q0 -37 -24 -77l-81 -142l36 -37l145 76q39 21 78 21q38 0 61.5 -25.5t23.5 -69.5q0 -40 -26.5 -63.5t-77.5 -23.5q-16 0 -37 4l-160 34l-24 -46l117 -114q46 -46 46 -96q0 -36 -29.5 -61.5
t-69.5 -25.5q-29 0 -56.5 30t-33.5 84l-17 162l-51 9l-72 -147q-19 -38 -46 -58.5t-52 -20.5q-36 0 -65.5 29.5t-29.5 59.5q0 29 20.5 57.5t62.5 46.5l149 67l-7 51l-162 24q-54 7 -83 34t-29 58q0 38 26.5 68.5t55.5 30.5q57 0 104 -51l110 -122z" />
    <glyph glyph-name="plus" unicode="+" horiz-adv-x="1229" 
d="M1244 759v-123h-426v-426h-123v426h-426v123h426v426h123v-426h426z" />
    <glyph glyph-name="comma" unicode="," horiz-adv-x="614" 
d="M123 -350l-45 68q94 52 156.5 105.5t91.5 98.5q17 26 26 78q-29 -5 -47 -5q-41 0 -69.5 31t-28.5 82q0 52 33 85t84 33q62 0 105.5 -47t43.5 -122q0 -67 -32.5 -133.5t-106.5 -134t-211 -139.5z" />
    <glyph glyph-name="hyphen" unicode="-" horiz-adv-x="655" 
d="M197 563h522l-26 -111h-524z" />
    <glyph glyph-name="hyphen" unicode="&#xad;" horiz-adv-x="655" 
d="M197 563h522l-26 -111h-524z" />
    <glyph glyph-name="period" unicode="." horiz-adv-x="614" 
d="M350 218q44 0 72 -28t28 -72q0 -58 -41 -100t-97 -42q-49 0 -76 27t-27 75q0 58 41 99t100 41z" />
    <glyph glyph-name="slash" unicode="/" horiz-adv-x="1229" 
d="M1163 1464l-982 -1711h-135l982 1711h135z" />
    <glyph glyph-name="zero" unicode="0" 
d="M943 1419q126 0 226 -68.5t141.5 -179t41.5 -232.5q0 -262 -111.5 -502t-265 -350.5t-327.5 -110.5q-179 0 -293.5 129t-114.5 354q0 269 112 509t276.5 345.5t314.5 105.5zM933 1312q-87 0 -177.5 -55t-159.5 -172.5t-127.5 -307.5t-58.5 -376q0 -79 26.5 -155.5
t85.5 -122.5t135 -46q130 0 237.5 103t185.5 312q94 251 94 502q0 155 -67.5 236.5t-173.5 81.5z" />
    <glyph glyph-name="one" unicode="1" 
d="M1078 1395l-268 -1171q-10 -41 -10 -60q0 -25 13.5 -44.5t36 -27.5t82.5 -8h84l-19 -84h-649l20 84h76q95 0 124.5 11.5t50 41.5t37.5 109l214 941h-251l19 86q88 15 190.5 49.5t175.5 72.5h74z" />
    <glyph glyph-name="two" unicode="2" 
d="M435 870l-96 -6q-1 26 -1 39q0 202 130 347q151 169 412 169q143 0 242 -48.5t153.5 -138t54.5 -194.5q0 -76 -28 -145q-40 -100 -118 -187.5t-274 -221.5q-249 -171 -532 -341h515q79 0 111 9q23 7 42.5 27t43.5 77l26 59h90l-149 -363h-66v48h-873l21 84l267 172
q82 53 274 193.5t288 236.5t144 199q33 73 33 144q0 70 -39.5 134t-109.5 99.5t-164 35.5q-158 0 -266 -94q-134 -116 -131 -334z" />
    <glyph glyph-name="three" unicode="3" 
d="M510 1022l-93 20q26 115 94 199t170.5 131t230.5 47q125 0 217.5 -43t140.5 -114.5t48 -157.5q0 -79 -38 -148.5t-113 -122.5t-202 -87q78 -21 118 -47q63 -40 101.5 -110.5t38.5 -154.5q0 -113 -72.5 -221t-203.5 -172.5t-297 -64.5q-140 0 -250 47.5t-179 134.5
q-54 68 -54 129q0 52 25.5 80.5t67.5 28.5q37 0 61 -23.5t36 -85.5q14 -79 49 -124t97 -71.5t143 -26.5q168 0 280 108.5t112 259.5q0 92 -46.5 156.5t-113.5 88t-180 23.5h-60l20 97h70q140 0 225.5 35.5t131.5 100t46 134.5q0 61 -33 114t-95.5 83t-146.5 30
q-83 0 -153.5 -32t-116.5 -87.5t-76 -153.5z" />
    <glyph glyph-name="four" unicode="4" 
d="M1231 1395l-184 -815h260l-28 -120h-261l-103 -460h-161l104 460h-668l40 169l843 766h158zM886 580l143 632l-699 -632h556z" />
    <glyph glyph-name="five" unicode="5" 
d="M598 1395h627q50 0 58 2q14 3 21 11q6 6 13 31h75l-43 -198h-686l-99 -346q94 16 175 16q230 0 358 -90q166 -117 166 -321q0 -191 -136 -337q-173 -187 -462 -187q-138 0 -240 44t-157 117.5t-55 140.5q0 48 27.5 77t67.5 29q27 0 48 -14.5t34 -39.5q5 -12 16 -63
q11 -57 19 -74q14 -35 43.5 -62t81 -44.5t115.5 -17.5q180 0 300 116t120 284q0 141 -100.5 225t-289.5 84q-126 0 -281 -41z" />
    <glyph glyph-name="six" unicode="6" 
d="M1362 1419l-23 -101q-156 1 -274 -23t-205.5 -67.5t-160 -111t-122 -151t-87.5 -212.5q69 70 121.5 103t115 50t140.5 17q188 0 304 -116t116 -296q0 -141 -75 -268.5t-199.5 -197t-288.5 -69.5q-146 0 -246.5 57.5t-159.5 166.5t-59 260q0 296 166 554q144 223 380 321
q202 84 557 84zM833 820q-105 0 -197 -55.5t-145 -159.5t-53 -224q0 -138 73 -225.5t209 -87.5q156 0 265 123q120 136 120 328q0 136 -77.5 218.5t-194.5 82.5z" />
    <glyph glyph-name="seven" unicode="7" 
d="M540 1439h66v-44h892l-19 -85q-164 -145 -346.5 -381.5t-310 -478t-187.5 -450.5h-204q47 147 133 314t191 316t308 376q142 159 241 238h-606q-100 0 -132 -14q-44 -21 -82 -106l-48 -106l-78 35z" />
    <glyph glyph-name="eight" unicode="8" 
d="M979 742q121 -68 173 -116.5t75 -104t23 -130.5q0 -109 -64.5 -203.5t-189.5 -153t-292 -58.5q-155 0 -263 48t-164.5 130t-56.5 174q0 77 32.5 141t116.5 131t253 148q-72 38 -112 81t-62 98.5t-22 117.5q0 100 56 183.5t168.5 137t252.5 53.5q125 0 221 -43t145 -111.5
t49 -142.5q0 -65 -30 -126.5t-91 -115t-218 -138.5zM898 781q143 102 183 141.5t60 84t20 96.5q0 93 -72.5 155.5t-200.5 62.5q-134 0 -219 -73.5t-85 -169.5q0 -41 13 -76t43 -68.5t76 -61.5zM705 700q-165 -97 -221 -146t-82.5 -103.5t-26.5 -116.5q0 -111 91 -188.5
t245 -77.5q113 0 199.5 41t132 109.5t45.5 143.5q0 80 -50.5 141t-195.5 131z" />
    <glyph glyph-name="nine" unicode="9" 
d="M259 -24l23 101q156 -1 274 22.5t205.5 67.5t160 111.5t122 150.5t87.5 212q-69 -70 -121.5 -103t-114.5 -49.5t-140 -16.5q-189 0 -305 116t-116 295q0 141 75 269t200 197.5t288 69.5q146 0 246.5 -58t159.5 -166.5t59 -260.5q0 -296 -166 -554q-144 -223 -379 -320
q-203 -84 -558 -84zM788 575q105 0 197 55.5t145 159.5t53 223q0 139 -73 226t-209 87q-155 0 -264 -122q-121 -136 -121 -328q0 -136 77.5 -218.5t194.5 -82.5z" />
    <glyph glyph-name="colon" unicode=":" horiz-adv-x="614" 
d="M524 989q44 0 72 -28t28 -71q0 -58 -41 -100.5t-97 -42.5q-49 0 -76 27t-27 75q0 58 41 99t100 41zM350 218q44 0 72 -28t28 -72q0 -58 -41 -100t-97 -42q-49 0 -76 27t-27 75q0 58 41 99t100 41z" />
    <glyph glyph-name="semicolon" unicode=";" horiz-adv-x="614" 
d="M523 989q44 0 72 -28t28 -71q0 -58 -41 -100.5t-97 -42.5q-49 0 -76 27t-27 75q0 58 41 99t100 41zM115 -351l-42 69q144 86 202.5 153.5t70.5 135.5q-28 -7 -45 -7q-41 0 -66.5 26t-25.5 69q0 49 37.5 86t89.5 37q56 0 94.5 -44t38.5 -111q0 -227 -354 -414z" />
    <glyph glyph-name="semicolon" unicode="&#x37e;" horiz-adv-x="614" 
d="M523 989q44 0 72 -28t28 -71q0 -58 -41 -100.5t-97 -42.5q-49 0 -76 27t-27 75q0 58 41 99t100 41zM115 -351l-42 69q144 86 202.5 153.5t70.5 135.5q-28 -7 -45 -7q-41 0 -66.5 26t-25.5 69q0 49 37.5 86t89.5 37q56 0 94.5 -44t38.5 -111q0 -227 -354 -414z" />
    <glyph glyph-name="less" unicode="&#x3c;" horiz-adv-x="1229" 
d="M1189 181l-901 400v100l901 401v-144l-718 -307l718 -307v-143z" />
    <glyph glyph-name="equal" unicode="=" horiz-adv-x="1229" 
d="M1244 916v-123h-975v123h975zM1244 602v-123h-975v123h975z" />
    <glyph glyph-name="greater" unicode="&#x3e;" horiz-adv-x="1229" 
d="M325 1082l901 -401v-100l-901 -400v143l718 307l-718 307v144z" />
    <glyph glyph-name="question" unicode="?" horiz-adv-x="1106" 
d="M525 336h-100l78 344q62 -2 92 -2q167 0 270 43t155.5 122.5t52.5 181.5q0 135 -91.5 215t-214.5 80q-55 0 -98.5 -16t-72.5 -44q-14 -13 -45 -61q-33 -50 -47 -61q-26 -21 -58 -21q-40 0 -66 24t-26 59q0 53 39.5 100t138 83t214.5 36q140 0 254.5 -58t175 -152.5
t60.5 -205.5q0 -122 -73 -226t-213.5 -163t-374.5 -59zM443 218q44 0 72 -28t28 -72q0 -58 -41 -100t-97 -42q-49 0 -76 27t-27 75q0 58 41 99t100 41z" />
    <glyph glyph-name="at" unicode="@" horiz-adv-x="1597" 
d="M1469 958l-117 -399l-67 -239q-16 -56 -22 -96q-4 -27 -4 -43q0 -34 21 -56t55 -22q80 0 181.5 78.5t171.5 238t70 335.5q0 175 -82.5 316.5t-230 220.5t-335.5 79q-231 0 -424 -119.5t-313.5 -346t-120.5 -487.5q0 -234 100 -416t279 -282.5t404 -100.5q178 0 332 64
t274.5 186t197.5 303h58q-33 -102 -75 -172q-75 -128 -196.5 -229.5t-275 -157t-320.5 -55.5q-247 0 -446 115t-312.5 316.5t-113.5 454.5q0 272 126 496.5t345.5 353t474.5 128.5q214 0 374 -85.5t250 -244.5t90 -355q0 -202 -89.5 -379t-209.5 -252t-251 -75
q-77 0 -116 36t-39 103q0 54 18 145q-142 -172 -231.5 -228.5t-161.5 -56.5q-49 0 -89.5 28t-66.5 84.5t-26 122.5q0 134 84 303t221.5 282.5t245.5 113.5q43 0 81 -17.5t58.5 -43.5t32.5 -77l33 110zM1118 917q-44 0 -100.5 -35.5t-129.5 -140t-123.5 -237t-50.5 -208.5
q0 -64 35 -104.5t81 -40.5q57 0 130 50.5t158 173.5q43 63 70 140q55 159 55 255q0 68 -36 107.5t-89 39.5z" />
    <glyph glyph-name="A" unicode="A" horiz-adv-x="1434" 
d="M922 1395h170l206 -1166q13 -72 28 -98t37.5 -36t88.5 -11l-18 -84h-512l23 84h56q68 0 95 23t27 63q0 22 -7 68l-48 281h-534l-180 -315q-22 -39 -22 -67q0 -25 20.5 -39t86.5 -14h47l-20 -84h-466l20 84q67 2 95 12.5t50.5 33.5t72.5 108zM1052 616l-103 620l-357 -620
h460z" />
    <glyph glyph-name="B" unicode="B" horiz-adv-x="1475" 
d="M399 1395h703q208 0 300.5 -34t144 -105t51.5 -162q0 -97 -52.5 -177.5t-145.5 -130.5q-69 -37 -188 -62q94 -19 142 -45q67 -36 106 -98.5t39 -142.5q0 -67 -26.5 -134t-79.5 -125.5t-126.5 -98.5t-166.5 -57q-130 -23 -263 -23h-754l19 84q91 1 114 6q37 8 58 33
q30 36 46 109l209 926q12 54 12 78q0 22 -13.5 41t-33.5 26t-77 7h-39zM735 1283l-116 -509h303q190 0 283.5 36t145 111t51.5 164q0 63 -33 109.5t-88 67.5t-189 21h-357zM596 678l-109 -486q-7 -30 -7 -45q0 -22 23 -33q12 -7 64 -7h197q13 0 141 7q97 6 126 12
q57 12 108.5 41t88.5 71.5t57.5 95t20.5 106.5q0 69 -40.5 125.5t-113.5 84.5t-229 28h-327z" />
    <glyph glyph-name="C" unicode="C" horiz-adv-x="1475" 
d="M1509 1389h76l18 -463l-94 -12q-43 157 -98.5 234.5t-138 118.5t-186.5 41q-160 0 -303 -93.5t-236.5 -276t-93.5 -383.5q0 -134 56 -239.5t155 -163t219 -57.5q88 0 182.5 28t172 76.5t234.5 190.5l61 -57q-157 -179 -349 -276q-160 -81 -345 -81q-203 0 -319 74
t-196.5 195.5t-80.5 313.5q0 228 114.5 428t308 316t412.5 116q87 0 172 -22q64 -16 116 -46q36 -21 83 -67z" />
    <glyph glyph-name="D" unicode="D" horiz-adv-x="1515" 
d="M399 1395h559q237 0 379 -67q122 -57 200 -188t78 -297q0 -136 -46.5 -274t-130 -251t-182 -179.5t-228.5 -97.5q-169 -41 -364 -41h-582l19 84q96 1 111 4q23 5 42 20q26 21 39.5 46.5t29.5 98.5l206 908q12 50 12 71q0 26 -13 45.5t-31.5 26t-78.5 6.5h-38zM736 1283
l-248 -1089q-8 -35 -8 -49q0 -20 15 -29t68 -9h81q136 0 266 24q72 14 143.5 53.5t136.5 107t117.5 161t79.5 194.5t27 203q0 143 -57.5 238.5t-158.5 145t-287 49.5h-175z" />
    <glyph glyph-name="E" unicode="E" horiz-adv-x="1393" 
d="M395 1395h1006l115 -369l-92 -29q-41 113 -94.5 172.5t-117.5 82.5q-85 30 -225 30h-257l-115 -511h169q107 0 158 22t86.5 71.5t54.5 142.5h96l-128 -566h-97q15 77 15 107q0 39 -22 70.5t-57.5 44.5t-132.5 13h-163l-113 -490q-7 -33 -7 -43q0 -20 16 -31q11 -7 62 -7
h223q164 0 267.5 35t176 102.5t165.5 232.5l87 -34l-212 -441h-1179l19 84q102 1 131 10.5t45 32.5q26 36 41 104l210 927q12 51 12 71q0 46 -30 63.5t-100 17.5h-31z" />
    <glyph glyph-name="F" unicode="F" 
d="M391 1395h997l117 -367l-91 -30q-41 110 -97 172.5t-123.5 86.5t-211.5 24h-256l-124 -533h155q96 0 144.5 14t82 45t53.5 79q8 19 28 99h98l-130 -568h-97l8 32q9 41 9 68q0 45 -21 75t-58.5 44t-131.5 14h-160l-95 -418q-10 -42 -10 -67q0 -39 27 -60t98 -21h41
l-18 -84h-550l19 84h42q68 0 95 12t46.5 41t34.5 95l210 930q11 49 11 71q0 37 -32 61q-22 16 -79 16h-51z" />
    <glyph glyph-name="G" unicode="G" horiz-adv-x="1556" 
d="M1576 1388l14 -430l-98 -9q-38 171 -148 265.5t-264 94.5q-159 0 -300 -93t-233.5 -273.5t-92.5 -380.5q0 -146 50.5 -251t141.5 -163.5t191 -58.5q84 0 175 25t157 65q50 30 75.5 66.5t43.5 114.5l29 125q9 41 9 61q0 22 -13 40.5t-33.5 26t-77.5 7.5h-64l20 84h557
l-18 -84h-42q-56 0 -83 -13t-44.5 -41.5t-35.5 -106.5l-108 -459h-96l-18 125q-79 -69 -196.5 -109t-252.5 -40q-171 0 -291 71q-134 78 -211 212.5t-77 302.5q0 226 115 426.5t309 315.5t417 115q113 0 197 -29.5t163 -98.5l59 97h74z" />
    <glyph glyph-name="H" unicode="H" horiz-adv-x="1638" 
d="M398 1395h551l-21 -85h-43q-72 0 -99 -11.5t-44 -38.5q-22 -35 -38 -107l-85 -383h750l90 395q14 61 14 74q0 22 -16 42t-40 26q-15 3 -111 3l22 85h550l-20 -85h-48q-64 0 -93.5 -13.5t-46.5 -39t-35 -104.5l-213 -928q-9 -40 -9 -63q0 -41 32 -63q21 -15 91 -15h43
l-19 -84h-552l19 84h37q59 0 83 6.5t42.5 21t31 38.5t23.5 75l100 437h-751l-97 -422q-12 -52 -12 -80q0 -24 15.5 -43.5t42.5 -26.5q19 -6 107 -6l-19 -84h-552l21 84h32q61 0 86.5 7t44 22t27.5 34q17 35 30 93l209 913q13 58 13 82q0 23 -12.5 42.5t-31 26t-76.5 6.5h-45
z" />
    <glyph glyph-name="I" unicode="I" horiz-adv-x="655" 
d="M367 1395h551l-19 -85h-32q-75 0 -105 -12.5t-48.5 -40t-36.5 -104.5l-206 -907q-14 -64 -14 -87q0 -38 32 -60q22 -15 86 -15h47l-21 -84h-550l19 84h40q67 0 97.5 13.5t48 39t34.5 97.5l211 929q11 48 11 70q0 27 -12 44.5t-34 25t-81 7.5h-35z" />
    <glyph glyph-name="J" unicode="J" horiz-adv-x="1147" 
d="M896 1395h551l-18 -85h-54q-65 0 -95 -16t-47 -47q-11 -22 -26 -88l-165 -732q-30 -133 -71 -202.5t-114.5 -126.5t-170.5 -89.5t-199 -32.5q-124 0 -219 45.5t-143.5 122t-48.5 168.5q0 86 43 141.5t96 55.5q38 0 63 -25t25 -64q0 -35 -31 -84q-30 -50 -30 -77
q0 -69 65.5 -124t172.5 -55q85 0 153 29t119 84t81 134q21 53 39 139l160 693q11 46 11 76q0 26 -15 45t-37 24.5t-113 5.5z" />
    <glyph glyph-name="K" unicode="K" horiz-adv-x="1475" 
d="M400 1395h544l-15 -85h-48q-65 0 -92.5 -12.5t-46 -41.5t-36.5 -107l-114 -509l634 533q51 43 67 67q11 16 11 34q0 19 -15 27.5t-74 8.5h-42l22 85h529l-21 -85q-56 0 -95.5 -10t-73.5 -30q-22 -13 -95 -71l-473 -379l284 -566q42 -85 74 -120q22 -25 55.5 -37.5
t110.5 -12.5l-18 -84h-549l21 84h47q63 0 79 10q24 13 24 45q0 24 -25 75l-239 496l-272 -217l-61 -257q-12 -51 -12 -76q0 -21 14 -40.5t36 -27.5t78 -8h38l-18 -84h-550l17 84h37q71 0 103 14t50.5 47.5t33.5 99.5l206 904q14 63 14 84q0 26 -12 44t-33.5 25.5t-78.5 7.5
h-39z" />
    <glyph glyph-name="L" unicode="L" horiz-adv-x="1188" 
d="M392 1395h546l-18 -85h-43q-71 0 -98.5 -12t-46 -42t-37.5 -115l-215 -953q-9 -38 -9 -45q0 -19 14 -28.5t59 -9.5h85q139 0 239.5 37.5t174.5 107.5t160 225l87 -38l-213 -437h-1000l18 84h43q68 0 92 11q31 15 50.5 43.5t36.5 100.5l206 914q11 48 11 83
q0 26 -11.5 42.5t-32.5 24t-77 7.5h-40z" />
    <glyph glyph-name="M" unicode="M" horiz-adv-x="1761" 
d="M385 1395h435l115 -1116l619 1116h447l-21 -85h-53q-51 0 -77 -9t-42.5 -26.5t-27.5 -49.5q-17 -49 -21 -69l-213 -944q-6 -29 -6 -46q0 -44 30 -66q21 -16 84 -16h51l-19 -84h-551l19 84h45q65 0 92 11.5t47 38.5t30 78l241 1069l-712 -1281h-96l-133 1290l-244 -1078
q-7 -33 -7 -49q0 -23 12 -45q8 -15 28.5 -24.5t48.5 -9.5h78l-18 -84h-494l21 84h57q73 0 107 30t53 116l215 948q5 21 5 54q0 37 -22 58t-62 21l-22 -1h-58z" />
    <glyph glyph-name="N" unicode="N" horiz-adv-x="1475" 
d="M393 1395h426l380 -1087l196 866q9 42 9 60q0 39 -30 58q-21 12 -87 12h-44l18 91h488l-19 -91h-39q-70 0 -100 -12t-47 -36.5t-34 -98.5l-267 -1157h-115l-455 1292l-243 -1067q-9 -37 -9 -61q0 -25 13 -44.5t34.5 -27.5t82.5 -8h34l-19 -84h-489l18 84h43q69 0 97 13
t47.5 44t36.5 110l208 906q10 44 10 73q0 42 -29 61q-21 13 -84 13h-49z" />
    <glyph glyph-name="O" unicode="O" horiz-adv-x="1556" 
d="M1064 1419q254 0 418 -154q173 -163 173 -438q0 -226 -116 -425.5t-314 -314.5q-191 -111 -423 -111q-176 0 -305 73t-204.5 204.5t-75.5 300.5q0 229 115.5 431.5t311.5 318t420 115.5zM1070 1313q-170 0 -313.5 -94.5t-239.5 -286.5t-96 -404q0 -134 51 -238.5
t138.5 -157.5t200.5 -53q162 0 305.5 96t240 290.5t96.5 406.5q0 132 -51.5 232.5t-138.5 154.5t-193 54z" />
    <glyph glyph-name="P" unicode="P" horiz-adv-x="1229" 
d="M393 1395h588q173 0 262 -39.5t139.5 -117t50.5 -180.5q0 -130 -76 -243.5t-207 -170.5q-115 -49 -372 -49h-205l-83 -365q-10 -44 -10 -70q0 -24 13 -42t34 -26t78 -8h38l-18 -84h-549l19 84h43q85 0 119.5 29t54.5 117l209 924q13 56 13 75q0 30 -15 50.5t-37 26.5
q-17 4 -110 4zM730 1283l-134 -584h153q184 0 250 21q100 30 168 122t68 210q0 86 -43.5 142t-113.5 76q-46 13 -177 13h-171z" />
    <glyph glyph-name="Q" unicode="Q" horiz-adv-x="1597" 
d="M690 -13q-194 33 -323.5 190.5t-129.5 376.5q0 229 115.5 431.5t310 318t416.5 115.5q179 0 313 -74t208.5 -208t74.5 -310q0 -217 -107.5 -410t-290 -309.5t-405.5 -130.5q-10 -46 -10 -75q0 -61 48 -104.5t128 -43.5q122 0 265 73l41 -73q-92 -58 -193.5 -89.5
t-185.5 -31.5q-81 0 -150.5 35t-103.5 92.5t-34 132.5q0 43 13 94zM1090 1313q-170 0 -313.5 -94.5t-239.5 -286.5t-96 -404q0 -134 51 -238.5t138.5 -157.5t200.5 -53q162 0 305.5 96t240 290.5t96.5 406.5q0 132 -51.5 232.5t-138.5 154.5t-193 54z" />
    <glyph glyph-name="R" unicode="R" horiz-adv-x="1434" 
d="M399 1395h692q180 0 268.5 -36t138 -109t49.5 -170q0 -113 -65.5 -211.5t-173 -147t-334.5 -55.5l260 -458q22 -38 58 -78q22 -26 55 -36.5t104 -9.5l-18 -84h-282l-359 666h-194l-101 -442q-9 -37 -9 -60q0 -27 16 -48.5t38 -26.5q16 -5 111 -5l-20 -84h-551l20 84h30
q76 0 105.5 12.5t47.5 38t34 101.5l210 913q13 54 13 83q0 44 -29 61t-97 17h-37zM738 1284l-121 -523h273q194 0 273.5 32.5t131 109t51.5 171.5q0 71 -32.5 118t-93 69.5t-200.5 22.5h-282z" />
    <glyph glyph-name="S" unicode="S" horiz-adv-x="1311" 
d="M1348 1395h73l8 -442h-98q-38 149 -154 252.5t-290 103.5q-97 0 -174.5 -35t-117.5 -91.5t-40 -111.5q0 -48 25.5 -89.5t86.5 -79.5t213 -91q222 -78 303.5 -131t121.5 -122t40 -148q0 -108 -69.5 -211t-193.5 -163t-290 -60q-132 0 -231 37t-206 130l-84 -143h-66
l22 511h94q37 -201 163.5 -313.5t306.5 -112.5q166 0 282 92q95 76 95 187q0 67 -37.5 118t-130.5 97q-52 25 -251 95q-187 67 -259 138q-100 101 -100 227q0 93 61.5 181t180.5 143.5t267 55.5q111 0 201.5 -31.5t180.5 -101.5z" />
    <glyph glyph-name="T" unicode="T" horiz-adv-x="1229" 
d="M1428 1439l52 -414l-96 -19q-20 116 -61 179.5t-98.5 91.5t-176.5 28q-33 0 -44.5 -9.5t-19.5 -45.5l-232 -1025q-8 -39 -8 -64q0 -26 14.5 -45.5t40 -25.5t108.5 -6l-18 -84h-551l20 84q71 1 105 6t52.5 18.5t30.5 38.5q20 42 25 65l230 1022q7 31 7 46q0 13 -10.5 19
t-46.5 6q-100 0 -170.5 -31.5t-145.5 -110.5q-48 -50 -126 -170l-82 47l215 399h69v-44h825l18 44h74z" />
    <glyph glyph-name="U" unicode="U" horiz-adv-x="1475" 
d="M334 1395h548l-17 -85h-47q-64 0 -90.5 -11.5t-46 -40.5t-34.5 -92l-153 -674q-16 -70 -16 -125q0 -75 38.5 -137t115.5 -99t174 -37q123 0 225.5 58t156 156.5t82.5 226.5l146 631q12 52 12 74q0 23 -13 40.5t-34 24.5q-16 5 -79 5h-38l18 85h488l-18 -85h-48
q-62 0 -90.5 -12.5t-47.5 -40t-33 -91.5l-154 -674q-23 -101 -48 -157q-47 -110 -132 -193.5t-193 -124.5t-240 -41q-223 0 -345 114.5t-122 249.5q0 80 18 158l150 659q11 50 11 76q0 25 -13 44.5t-33 26t-84 6.5h-31z" />
    <glyph glyph-name="V" unicode="V" horiz-adv-x="1393" 
d="M319 1395h510l-18 -85h-50q-59 0 -81 -8.5t-35.5 -30t-13.5 -53.5q0 -31 6 -73l142 -984l553 996q37 67 37 101q0 29 -28 43q-19 9 -76 9h-50l19 85h471l-20 -85q-64 0 -91 -9.5t-51 -34.5t-66 -97l-674 -1169h-166l-183 1145q-14 88 -28 115.5t-37 38.5t-90 11z" />
    <glyph glyph-name="W" unicode="W" horiz-adv-x="1966" 
d="M335 1395h493l-20 -85h-36q-59 0 -82.5 -9.5t-36.5 -31t-13 -56.5q0 -11 2 -38l77 -977l453 876l-10 101q-7 67 -19 89t-38 34t-83 12l18 85h488l-21 -85h-41q-56 0 -77.5 -9t-33.5 -29t-12 -57q0 -17 1 -40l78 -990l492 990q28 55 28 79q0 18 -11 31.5t-29.5 19
t-76.5 5.5h-34l18 85h454l-18 -85q-62 0 -90.5 -10t-45.5 -28q-23 -26 -60 -97l-606 -1175h-171l-83 873l-449 -873h-169l-112 1175q-6 65 -19.5 88.5t-39 35.5t-84.5 11z" />
    <glyph glyph-name="X" unicode="X" horiz-adv-x="1434" 
d="M364 1395h524l-20 -85h-46q-68 0 -86.5 -12t-18.5 -40q0 -17 16 -58l8 -20l169 -338l335 347q41 43 49.5 56.5t8.5 27.5q0 19 -15.5 28t-72.5 9h-52l20 85h481l-19 -85q-77 0 -121 -20.5t-115 -91.5l-442 -446l278 -526q40 -77 60.5 -99t49.5 -32t94 -11l-20 -84h-524
l21 84h41q58 0 77 10q28 15 28 46q0 26 -19 62l-9 17l-208 415l-430 -443q-43 -44 -43 -67q0 -19 18.5 -29.5t84.5 -10.5h38l-18 -84h-482l19 84q74 2 110 19q61 30 119 88l531 532l-259 487q-25 48 -44.5 66t-47 26t-87.5 8z" />
    <glyph glyph-name="Y" unicode="Y" horiz-adv-x="1352" 
d="M321 1395h509l-19 -85h-60q-62 0 -81.5 -12.5t-19.5 -40.5q0 -21 17 -63l197 -525l405 516q44 55 44 84q0 21 -18 31t-83 10h-44l18 85h476l-19 -85q-60 1 -87.5 -6.5t-47.5 -22.5q-27 -20 -66 -67l-522 -636l-78 -348q-9 -44 -9 -67q0 -45 32 -65q23 -14 88 -14h43
l-18 -84h-550l19 84q95 1 113 5q40 10 64.5 41t42.5 113l68 298l-264 653q-30 74 -39 84q-14 17 -35.5 24.5t-96.5 7.5z" />
    <glyph glyph-name="Z" unicode="Z" horiz-adv-x="1188" 
d="M453 1395h954l-20 -85l-1074 -1202h202q196 0 302.5 33.5t194.5 107.5t190 234l84 -47l-244 -436h-998l18 84l1074 1199h-232q-160 0 -253.5 -29t-163.5 -88.5t-161 -200.5l-85 48z" />
    <glyph glyph-name="bracketleft" unicode="[" horiz-adv-x="532" 
d="M509 1454h299l-23 -98h-158l-398 -1735h159l-21 -96h-301z" />
    <glyph glyph-name="backslash" unicode="\" horiz-adv-x="1229" 
d="M278 1464l993 -1711h-135l-993 1711h135z" />
    <glyph glyph-name="bracketright" unicode="]" horiz-adv-x="532" 
d="M220 -475h-298l22 98h158l399 1734h-159l21 97h301z" />
    <glyph glyph-name="asciicircum" unicode="^" horiz-adv-x="1229" 
d="M389 595h-142l442 824h135l443 -824h-142l-368 662z" />
    <glyph glyph-name="underscore" unicode="_" horiz-adv-x="1024" 
d="M-12 -154h1048v-102h-1048v102z" />
    <glyph glyph-name="grave" unicode="`" horiz-adv-x="696" 
d="M795 1095l-229 91q-134 54 -134 130q0 37 24 63t58 26q28 0 52 -15q44 -27 115 -97l141 -139z" />
    <glyph glyph-name="a" unicode="a" 
d="M1111 965h124l-169 -748q-9 -39 -9 -67q0 -33 18 -52t45 -19q33 0 66 22q50 32 115 107l63 -56q-97 -101 -136 -124q-74 -45 -155 -45q-55 0 -93.5 20t-61 59t-22.5 81q0 32 20 122q-79 -113 -149 -173t-143 -88t-148 -28q-131 0 -210 90q-89 100 -89 261
q0 176 83.5 333.5t219 243t280.5 85.5q93 0 169.5 -32t136.5 -97zM1032 779q-52 51 -118.5 79t-129.5 28q-99 0 -193.5 -67.5t-163 -216.5t-68.5 -301q0 -68 22 -117.5t60 -74.5t82 -25q82 0 173 66q115 82 206 248.5t130 380.5z" />
    <glyph glyph-name="b" unicode="b" horiz-adv-x="1229" 
d="M695 1467l-175 -782q52 83 98 131q85 88 172 130.5t175 42.5q129 0 215.5 -92t86.5 -235q0 -178 -88.5 -345.5t-223.5 -254t-285 -86.5q-83 0 -151 27t-144 94l-46 -97h-124l291 1298h-187l20 85q153 14 288 84h78zM409 178q54 -52 112 -78.5t119 -26.5q102 0 199.5 70.5
t169.5 218.5t72 289q0 72 -24 130q-17 40 -56.5 65.5t-84.5 25.5q-96 0 -192 -79q-129 -107 -217 -295q-57 -123 -98 -320z" />
    <glyph glyph-name="c" unicode="c" horiz-adv-x="983" 
d="M999 274l60 -60q-263 -238 -503 -238q-113 0 -198.5 47.5t-134 137t-48.5 200.5q0 161 85.5 311.5t225 233.5t296.5 83q137 0 226 -75t89 -171q0 -62 -27.5 -95t-72.5 -33q-34 0 -58 26t-24 62l1 32l1 34q0 48 -40 84q-40 35 -102 35q-93 0 -187 -67.5t-160 -201.5
t-66 -272q0 -75 31 -135t86 -93.5t115 -33.5q52 0 115.5 18t124.5 52.5t165 118.5z" />
    <glyph glyph-name="d" unicode="d" horiz-adv-x="1311" 
d="M1371 1467l-274 -1225q-17 -73 -17 -95q0 -28 18 -47t45 -19q23 0 44.5 8.5t50.5 31.5q12 11 87 87l62 -55q-76 -83 -113.5 -110.5t-85 -43.5t-94.5 -16q-52 0 -91 21t-61.5 60t-22.5 82q0 35 22 124q-76 -113 -146.5 -174.5t-145 -90.5t-153.5 -29q-97 0 -161 39.5
t-105.5 122.5t-41.5 191q0 173 85.5 330t222 243.5t285.5 86.5q87 0 159.5 -28t135.5 -88l97 425h-186l19 85q71 7 153.5 31.5t133.5 52.5h78zM1056 781q-51 49 -121 77t-134 28q-100 0 -196.5 -69.5t-165 -215t-68.5 -302.5q0 -100 48 -157.5t118 -57.5q84 0 170 60
q120 83 202.5 224.5t146.5 412.5z" />
    <glyph glyph-name="e" unicode="e" horiz-adv-x="1106" 
d="M1043 264l56 -63q-126 -112 -262 -168.5t-266 -56.5q-175 0 -282 107.5t-107 285.5q0 159 88.5 302.5t247 230.5t339.5 87q144 0 225 -66t81 -156q0 -53 -35.5 -111.5t-119.5 -108.5t-243 -83t-391 -45q-5 -39 -5 -59q0 -79 33.5 -141t95 -98.5t128.5 -36.5
q85 0 198.5 46t218.5 134zM386 498q227 25 329 49q164 39 224 94.5t60 121.5q0 56 -44.5 94t-126.5 38q-86 0 -182 -51t-163 -139t-97 -207z" />
    <glyph glyph-name="f" unicode="f" horiz-adv-x="696" 
d="M854 965l-23 -104h-224l-192 -852q-26 -117 -75.5 -234.5t-141.5 -182t-201 -64.5q-88 0 -140.5 39t-52.5 86q0 33 23.5 56.5t57.5 23.5q40 0 88 -44q34 -31 50.5 -40t33.5 -9q57 0 100.5 52t79.5 222l207 947h-186l22 104h188l22 99q47 213 152 308t268 95
q110 0 172 -46.5t62 -101.5q0 -33 -25.5 -58t-59.5 -25q-24 0 -43 11q-25 14 -57 50q-36 42 -60 56t-50 14q-33 0 -64.5 -19t-53.5 -54.5t-50 -113.5q-13 -37 -27 -104l-25 -111h225z" />
    <glyph glyph-name="g" unicode="g" horiz-adv-x="1147" 
d="M1225 965l-202 -925q-39 -184 -115.5 -288.5t-197 -164t-271.5 -59.5q-161 0 -256 65t-95 134q0 36 24 62t55 26q20 0 38.5 -8t39.5 -27q15 -14 49 -60q33 -46 48 -57q25 -19 59 -29.5t73 -10.5q85 0 163.5 46.5t134 136.5t92.5 260l44 203q-45 -76 -89 -122
q-83 -85 -175 -128t-177 -43q-130 0 -208 89q-90 102 -90 261q0 172 84 332.5t218 245.5t279 85q62 0 122.5 -16.5t108.5 -46.5q37 -22 73 -67l48 106h123zM1023 781q-58 54 -118 80.5t-122 26.5q-98 0 -196.5 -70.5t-167.5 -217.5t-69 -301q0 -100 46.5 -157t111.5 -57
q84 0 165 57q122 88 208.5 239t141.5 400z" />
    <glyph glyph-name="h" unicode="h" 
d="M691 1467l-174 -785q70 109 146.5 176.5t153 99t151.5 31.5q96 0 160 -57.5t64 -130.5q0 -45 -14 -106l-105 -456q-12 -54 -12 -85q0 -33 18 -53t45 -20q35 0 71 24q57 39 107 106l64 -55q-133 -173 -293 -173q-75 0 -124.5 46.5t-49.5 108.5q0 42 13 101l106 472
q9 43 9 75q0 39 -30 65.5t-74 26.5q-66 0 -134 -40q-98 -59 -182.5 -173.5t-132.5 -248.5t-72 -243l-38 -173h-162l291 1299h-186l19 84q153 16 290 84h75z" />
    <glyph glyph-name="i" unicode="i" horiz-adv-x="573" 
d="M579 1467q43 0 71.5 -28.5t28.5 -74.5q0 -52 -36.5 -89.5t-84.5 -37.5q-44 0 -75 30.5t-31 73.5q0 51 38 88.5t89 37.5zM589 989l-194 -767q-12 -47 -12 -74q0 -32 17 -50.5t45 -18.5q33 0 63 20q47 30 119 109l64 -56q-61 -80 -140.5 -124.5t-150.5 -44.5
q-77 0 -128 47.5t-51 110.5q0 44 17 111l144 574h-183l18 83q76 4 139.5 21t154.5 59h78z" />
    <glyph glyph-name="j" unicode="j" horiz-adv-x="573" 
d="M641 1467q43 0 71.5 -28.5t28.5 -74.5q0 -52 -36 -89.5t-84 -37.5q-45 0 -76 30.5t-31 73.5q0 51 38 88.5t89 37.5zM642 989l-237 -1055q-10 -43 -42.5 -131.5t-79.5 -139.5q-66 -72 -139 -103.5t-173 -31.5q-94 0 -159.5 44.5t-65.5 100.5q0 37 24 60t61 23
q26 0 47.5 -12t50.5 -48q35 -43 59 -56.5t52 -13.5q38 0 72.5 23t61 73t49.5 154l215 948h-183l18 82q113 16 162.5 30t134.5 53h72z" />
    <glyph glyph-name="k" unicode="k" horiz-adv-x="1229" 
d="M690 1467l-218 -970q102 174 214 284.5t218 159t209 48.5q99 0 147.5 -34t48.5 -83q0 -34 -25 -59t-58 -25q-23 0 -39.5 6.5t-63.5 39.5q-59 41 -106 41q-54 0 -126 -38q-44 -22 -129 -94l199 -499q39 -98 69 -127.5t65 -29.5q36 0 73 23.5t103 100.5l65 -55
q-83 -100 -149 -136.5t-137 -36.5q-53 0 -94 19t-68 54q-45 57 -72 127l-171 430q-102 -128 -161 -257q-86 -186 -127 -356h-158l291 1299h-186l20 84q151 16 289 84h77z" />
    <glyph glyph-name="l" unicode="l" horiz-adv-x="573" 
d="M673 1467l-276 -1225q-15 -68 -15 -90q0 -34 17 -52.5t45 -18.5q36 0 65 19q46 30 115 109l65 -55q-142 -171 -291 -171q-80 0 -128 45t-48 113q0 45 11 94l239 1063h-184l18 85q103 16 163.5 34t126.5 50h77z" />
    <glyph glyph-name="m" unicode="m" horiz-adv-x="1802" 
d="M404 822h-187l22 84q98 13 159.5 32t122.5 51h73l-50 -232q52 83 109.5 131.5t127 74.5t140.5 26q96 0 157 -56t61 -131q0 -12 -3 -36q50 78 107 125.5t123.5 72.5t135.5 25q95 0 159 -58t64 -132q0 -42 -14 -105l-105 -455q-15 -67 -15 -95q0 -26 18 -44t46 -18
q38 0 70.5 22.5t108.5 105.5l64 -54q-76 -94 -146.5 -133.5t-144.5 -39.5q-79 0 -128.5 46.5t-49.5 109.5q0 41 14 100l104 455q13 57 13 86q0 43 -30 71t-74 28q-56 0 -107 -27q-71 -37 -134 -114t-100 -176q-52 -140 -91 -324q-3 -16 -10 -44l-48 -194h-159l159 694
q9 39 9 89q0 43 -29 69.5t-74 26.5q-61 0 -128.5 -40.5t-125.5 -118.5t-103.5 -204t-67.5 -225l-65 -291h-165z" />
    <glyph glyph-name="n" unicode="n" 
d="M593 989l-71 -314q49 82 95 130q87 93 178 138.5t176 45.5q67 0 117 -25.5t80 -72.5t30 -95q0 -41 -21 -130l-95 -426q-14 -61 -14 -87q0 -30 18.5 -49t45.5 -19q70 0 180 133l63 -59q-88 -102 -153.5 -139t-136.5 -37q-54 0 -93.5 21t-62.5 60.5t-23 83.5q0 39 14 101
l98 443q13 57 13 88q0 44 -28.5 69.5t-75.5 25.5q-54 0 -113.5 -29t-126.5 -96t-122.5 -166t-101.5 -236q-22 -63 -49 -189l-34 -159h-165l185 824h-185l20 82q96 14 150 30t137 53h71z" />
    <glyph glyph-name="o" unicode="o" horiz-adv-x="1106" 
d="M753 989q170 0 280 -110.5t110 -279.5q0 -170 -78.5 -319.5t-205 -226.5t-279.5 -77q-128 0 -212.5 47t-138 143t-53.5 209q0 161 81.5 309.5t211.5 226.5t284 78zM744 892q-96 0 -180 -60.5t-144 -194.5t-60 -283q0 -121 57.5 -203t166.5 -82q91 0 172.5 60.5
t142.5 198.5t61 279q0 86 -29.5 153.5t-78.5 99.5t-108 32z" />
    <glyph glyph-name="p" unicode="p" horiz-adv-x="1229" 
d="M591 989l-74 -320q74 117 149 185t154.5 101.5t156.5 33.5q131 0 214.5 -91.5t83.5 -251.5q0 -174 -84.5 -334.5t-223.5 -248t-284 -87.5q-168 0 -284 108l-71 -295q-11 -48 -11 -77q0 -23 12.5 -39.5t38 -25.5t76.5 -9h62l-18 -84h-560l19 84q72 -1 100 5
q38 7 59.5 24.5t37.5 51.5q12 24 26 85l229 1019h-183l19 84q142 11 282 82h74zM417 177q55 -51 119 -77.5t121 -26.5q96 0 194.5 70.5t169 220t70.5 298.5q0 97 -47 153.5t-117 56.5q-63 0 -129.5 -35t-148.5 -130.5t-140 -223t-92 -306.5z" />
    <glyph glyph-name="q" unicode="q" horiz-adv-x="1147" 
d="M1218 965l-264 -1175q-12 -55 -12 -78q0 -22 10 -36q16 -21 38 -29.5t73 -8.5h41l-19 -84h-562l18 84h49q80 0 113 13.5t52.5 41t37.5 107.5l107 466q-82 -128 -181 -198q-130 -92 -265 -92q-130 0 -212.5 94.5t-82.5 261.5q0 169 85.5 327t218 244t277.5 86
q92 0 168.5 -32t137.5 -97l46 105h126zM1014 779q-44 48 -113 77.5t-130 29.5q-97 0 -195.5 -70t-166 -214.5t-67.5 -301.5q0 -103 46 -160t111 -57q84 0 164 55q112 78 202.5 227.5t132.5 339.5z" />
    <glyph glyph-name="r" unicode="r" horiz-adv-x="819" 
d="M598 989l-73 -314q58 108 126.5 179t140.5 108q52 27 105 27t86.5 -30.5t33.5 -74.5q0 -38 -27.5 -67.5t-58.5 -29.5q-21 0 -59 14q-39 15 -62 15q-84 0 -177 -124q-127 -168 -207 -512l-42 -180h-164l185 823h-185l20 82q93 12 156 30.5t129 53.5h73z" />
    <glyph glyph-name="s" unicode="s" horiz-adv-x="1106" 
d="M631 604l177 -61q28 -10 98 -43.5t99 -59.5q37 -33 58.5 -79t21.5 -93q0 -73 -49.5 -142t-145 -109.5t-235.5 -40.5q-152 0 -273 44.5t-176 107t-55 113.5q0 34 23.5 57t59.5 23q22 0 40.5 -8t37.5 -28q13 -14 42 -64q26 -44 34 -53q23 -27 62 -52t87.5 -37.5
t113.5 -12.5q94 0 156.5 23.5t93 62.5t30.5 79q0 56 -56 101q-56 44 -163 76q-9 3 -19 7l-140 49q-128 45 -184 111q-57 65 -57 143q0 68 46 132t135.5 101.5t221.5 37.5q202 0 332 -81q97 -61 97 -138q0 -34 -23 -58t-57 -24q-32 0 -61 23q-20 16 -59 71q-40 57 -97.5 85
t-141.5 28q-114 0 -176.5 -44t-62.5 -99q0 -44 34 -79.5t131 -68.5z" />
    <glyph glyph-name="t" unicode="t" horiz-adv-x="696" 
d="M647 1303l-75 -338h265l-23 -102h-265l-133 -588q-14 -65 -14 -100q0 -42 23.5 -66.5t60.5 -24.5q27 0 54 10q36 14 72 42q19 15 93 92l67 -56q-97 -114 -171.5 -155t-153.5 -41q-90 0 -148.5 53.5t-58.5 126.5q0 47 13 103l136 604h-183l18 77q89 23 144.5 61t106 109.5
t97.5 192.5h75z" />
    <glyph glyph-name="u" unicode="u" 
d="M1063 965h164l-164 -724q-11 -49 -11 -96q0 -30 17.5 -47.5t43.5 -17.5q30 0 65 23q62 41 116 107l64 -55q-80 -95 -148.5 -133.5t-140.5 -38.5q-81 0 -130 45t-49 111q0 42 18 131q-45 -75 -88 -120q-83 -87 -175 -130.5t-175 -43.5q-67 0 -116.5 24t-77.5 69t-28 92
t19 134l116 526h-184l19 85q76 7 136.5 24t154.5 59h74l-163 -733q-10 -48 -10 -69q0 -47 27 -75.5t69 -28.5q92 0 190 77q125 98 201.5 252.5t113.5 320.5z" />
    <glyph glyph-name="v" unicode="v" horiz-adv-x="1106" 
d="M586 989l-163 -726q-12 -52 -12 -81q0 -43 30.5 -71.5t76.5 -28.5q73 0 140 37q94 53 188 161.5t151.5 231t57.5 190.5q0 26 -9.5 55.5t-36.5 75.5q-20 32 -23 42q-5 15 -5 32q0 44 25 71.5t66 27.5q55 0 90.5 -48t35.5 -145q0 -119 -69.5 -276.5t-194.5 -300
t-237.5 -201.5t-224.5 -59q-102 0 -162 54t-60 132q0 47 13 108l125 552h-186l21 84q75 7 141 25.5t148 57.5h74z" />
    <glyph glyph-name="w" unicode="w" horiz-adv-x="1802" 
d="M590 985l-159 -712q-13 -58 -13 -97q0 -42 29.5 -68t82.5 -26q40 0 82.5 14t97.5 52t106.5 96.5t97.5 137.5q36 61 60 141l78 251l43 191h163l-152 -684q-9 -39 -9 -67q0 -59 35 -96t93 -37q74 0 158.5 45t167.5 141.5t135 218.5t52 203q0 40 -13 86q-7 22 -28 59
q-19 32 -22 41q-5 14 -5 33q0 45 26 72.5t68 27.5q53 0 88.5 -48.5t35.5 -145.5q0 -127 -67.5 -291.5t-181 -297t-227.5 -191.5t-221 -59q-118 0 -186.5 67t-68.5 177q0 22 8 62q-99 -152 -214.5 -228.5t-247.5 -76.5q-105 0 -167 54.5t-62 129.5q0 38 16 113l122 546h-186
l19 84q78 7 136 23t153 59h77z" />
    <glyph glyph-name="x" unicode="x" horiz-adv-x="1106" 
d="M570 989l138 -393q119 213 246 316q94 77 185 77q52 0 81.5 -25.5t29.5 -64.5q0 -37 -27 -59.5t-74 -22.5q-13 0 -33 2q-29 2 -47 2q-53 0 -99 -27t-98 -96l-130 -199l77 -224q39 -113 74 -149.5t72 -36.5q33 0 64 18q22 13 113 103l64 -53q-79 -98 -146 -136t-139 -38
q-86 0 -140.5 45t-98.5 169l-82 231q-151 -277 -248.5 -361t-192.5 -84q-46 0 -76 27t-30 63q0 34 27.5 59.5t66.5 25.5q15 0 46 -5q23 -4 38 -4q30 0 56.5 11t61 43.5t89.5 116.5q23 33 126 211l-104 293h-184l20 82q61 12 105.5 30.5t98.5 52.5h70z" />
    <glyph glyph-name="y" unicode="y" horiz-adv-x="1229" 
d="M1097 965h163l-204 -916q-22 -95 -33 -129q-29 -87 -74.5 -155.5t-119 -124t-162.5 -84t-196 -28.5q-160 0 -254.5 65.5t-94.5 137.5q0 31 25 57.5t54 26.5q32 0 62 -20t66 -74q31 -47 63 -65q50 -30 110 -30q93 0 176 51t132 139t81 233l53 225q-65 -102 -140 -167.5
t-155.5 -98t-155.5 -32.5q-112 0 -173.5 59.5t-61.5 131.5q0 53 12 107l123 547h-184l21 86q73 6 130 21.5t157 60.5h75l-161 -715q-12 -56 -12 -88q0 -42 32 -72.5t78 -30.5q71 0 138 39q97 57 172.5 153t135.5 242q46 110 81 266z" />
    <glyph glyph-name="z" unicode="z" horiz-adv-x="1065" 
d="M1188 965l-21 -91l-824 -771q31 4 41 4q35 0 221 -31q97 -16 145 -16q50 0 95 21.5t64 49.5t25 89q6 62 33.5 93t61.5 31q38 0 65 -27t27 -66q0 -68 -44.5 -134t-123 -103.5t-183.5 -37.5q-45 0 -92 4q-28 3 -134 19q-114 18 -150 21q-52 5 -105 5q-111 0 -218 -31l19 90
l831 773q-36 -5 -56 -5q-33 0 -188 27q-73 13 -121 13q-59 0 -98 -31q-39 -32 -57 -100q-14 -54 -30 -73q-24 -28 -66 -28q-40 0 -64.5 26t-24.5 73q0 86 85 158t219 72q49 0 98 -5q28 -3 136 -23q107 -20 135 -23q43 -5 87 -5q98 0 212 32z" />
    <glyph glyph-name="braceleft" unicode="{" horiz-adv-x="737" 
d="M599 -407l-9 -39q-75 10 -123 35q-78 40 -125 115t-47 163q0 91 66 234q39 83 55 134q8 27 8 56q0 70 -46 118.5t-135 60.5l9 41q94 12 166.5 62t102.5 126q19 47 19 179q1 132 36.5 220t116 165.5t183.5 121.5q61 26 145 37l-8 -39q-105 -25 -173 -75t-99 -132
q-20 -54 -21 -186q-1 -139 -39.5 -222.5t-127.5 -157t-223 -117.5q109 -44 165 -120.5t56 -169.5q0 -78 -63 -215q-40 -86 -57 -143q-9 -29 -9 -61q0 -70 41 -118t136 -73z" />
    <glyph glyph-name="bar" unicode="|" horiz-adv-x="1229" 
d="M685 1467h146v-1939h-146v1939z" />
    <glyph glyph-name="braceright" unicode="}" horiz-adv-x="778" 
d="M402 1383l8 39q96 -13 158.5 -55t99.5 -111t37 -146q0 -90 -66 -232q-38 -83 -55 -137q-8 -26 -8 -52q0 -69 46.5 -117.5t135.5 -60.5l-10 -41q-93 -12 -165.5 -62.5t-103.5 -126.5q-18 -47 -19 -180q0 -134 -36 -222.5t-117 -166t-183 -121.5q-61 -26 -144 -37l8 39
q104 25 172.5 75t99.5 133q20 54 21 187q0 140 39 224t128 158t222 118q-109 44 -165 120t-56 166q0 78 64 216q39 86 57 142q8 28 8 60q0 71 -40.5 118.5t-135.5 72.5z" />
    <glyph glyph-name="asciitilde" unicode="~" horiz-adv-x="1229" 
d="M1124 841l87 -97q-31 -78 -70.5 -122.5t-87.5 -67.5t-102 -23q-40 0 -81 15q-20 7 -122 59l-133 64q-25 10 -51 10q-48 0 -77.5 -34t-88.5 -146l-95 98q40 80 80.5 122.5t86.5 64.5t93 22q35 0 75 -13t146 -67q96 -49 120.5 -58.5t40.5 -9.5q47 0 88 41q28 28 91 142z
" />
    <glyph glyph-name="Adieresis" unicode="&#xc4;" horiz-adv-x="1434" 
d="M922 1395h170l206 -1166q13 -72 28 -98t37.5 -36t88.5 -11l-18 -84h-512l23 84h56q68 0 95 23t27 63q0 22 -7 68l-48 281h-534l-180 -315q-22 -39 -22 -67q0 -25 20.5 -39t86.5 -14h47l-20 -84h-466l20 84q67 2 95 12.5t50.5 33.5t72.5 108zM1052 616l-103 620l-357 -620
h460zM916 1726q44 0 72 -28t28 -71q0 -55 -44 -97.5t-102 -42.5q-44 0 -71 27t-27 74q0 55 43 96.5t101 41.5zM1242 1726q44 0 71.5 -28t27.5 -71q0 -55 -43.5 -97.5t-100.5 -42.5q-44 0 -70.5 27t-26.5 74q0 55 42.5 96.5t99.5 41.5z" />
    <glyph glyph-name="Aring" unicode="&#xc5;" horiz-adv-x="1434" 
d="M922 1395h170l206 -1166q13 -72 28 -98t37.5 -36t88.5 -11l-18 -84h-512l23 84h56q68 0 95 23t27 63q0 22 -7 68l-48 281h-534l-180 -315q-22 -39 -22 -67q0 -25 20.5 -39t86.5 -14h47l-20 -84h-466l20 84q67 2 95 12.5t50.5 33.5t72.5 108zM1052 616l-103 620l-357 -620
h460zM1086 1763q58 0 93 -36t35 -93q0 -72 -56.5 -128t-131.5 -56q-55 0 -89 35.5t-34 94.5q0 75 53 129t130 54zM1074 1698q-36 0 -64.5 -31.5t-28.5 -75.5q0 -37 16 -56.5t43 -19.5q37 0 67 33t30 77q0 33 -17.5 53t-45.5 20z" />
    <glyph glyph-name="Ccedilla" unicode="&#xc7;" horiz-adv-x="1475" 
d="M1509 1389h76l18 -463l-94 -12q-43 157 -98.5 234.5t-138 118.5t-186.5 41q-160 0 -303 -93.5t-236.5 -276t-93.5 -383.5q0 -134 56 -239.5t155 -163t219 -57.5q88 0 182.5 28t172 76.5t234.5 190.5l61 -57q-157 -179 -349 -276q-160 -81 -345 -81q-203 0 -319 74
t-196.5 195.5t-80.5 313.5q0 228 114.5 428t308 316t412.5 116q87 0 172 -22q64 -16 116 -46q36 -21 83 -67zM860 0l-29 -75q12 0 33 1h11q38 0 77 -18t54 -42t15 -57q0 -67 -62 -117t-159 -50q-80 0 -133 35q-37 23 -37 62q0 25 15.5 41.5t35.5 16.5q26 0 37 -9t15 -36
q4 -26 20 -39q22 -16 53 -16q44 0 76.5 29.5t32.5 67.5q0 35 -28 58t-77 23q-40 0 -86 -12l60 137h76z" />
    <glyph glyph-name="Eacute" unicode="&#xc9;" horiz-adv-x="1393" 
d="M395 1395h1006l115 -369l-92 -29q-41 113 -94.5 172.5t-117.5 82.5q-85 30 -225 30h-257l-115 -511h169q107 0 158 22t86.5 71.5t54.5 142.5h96l-128 -566h-97q15 77 15 107q0 39 -22 70.5t-57.5 44.5t-132.5 13h-163l-113 -490q-7 -33 -7 -43q0 -20 16 -31q11 -7 62 -7
h223q164 0 267.5 35t176 102.5t165.5 232.5l87 -34l-212 -441h-1179l19 84q102 1 131 10.5t45 32.5q26 36 41 104l210 927q12 51 12 71q0 46 -30 63.5t-100 17.5h-31zM862 1481l-25 59l142 139q71 70 116 97q24 15 54 15q33 0 56.5 -26t23.5 -61q0 -36 -28.5 -68t-107.5 -64
z" />
    <glyph glyph-name="Ntilde" unicode="&#xd1;" horiz-adv-x="1475" 
d="M393 1395h426l380 -1087l196 866q9 42 9 60q0 39 -30 58q-21 12 -87 12h-44l18 91h488l-19 -91h-39q-70 0 -100 -12t-47 -36.5t-34 -98.5l-267 -1157h-115l-455 1292l-243 -1067q-9 -37 -9 -61q0 -25 13 -44.5t34.5 -27.5t82.5 -8h34l-19 -84h-489l18 84h43q69 0 97 13
t47.5 44t36.5 110l208 906q10 44 10 73q0 42 -29 61q-21 13 -84 13h-49zM1331 1693h58q-38 -85 -95 -128t-134 -43q-23 0 -41 3q-14 2 -69 17q-88 23 -129 23q-29 0 -51.5 -8t-39.5 -24h-62q33 75 89.5 115t119.5 40q43 0 144 -24q79 -19 101 -19q27 0 54.5 12t54.5 36z" />
    <glyph glyph-name="Odieresis" unicode="&#xd6;" horiz-adv-x="1556" 
d="M1064 1419q254 0 418 -154q173 -163 173 -438q0 -226 -116 -425.5t-314 -314.5q-191 -111 -423 -111q-176 0 -305 73t-204.5 204.5t-75.5 300.5q0 229 115.5 431.5t311.5 318t420 115.5zM1070 1313q-170 0 -313.5 -94.5t-239.5 -286.5t-96 -404q0 -134 51 -238.5
t138.5 -157.5t200.5 -53q162 0 305.5 96t240 290.5t96.5 406.5q0 132 -51.5 232.5t-138.5 154.5t-193 54zM978 1726q44 0 72 -28t28 -71q0 -55 -44 -97.5t-102 -42.5q-44 0 -71 27t-27 74q0 55 43 96.5t101 41.5zM1304 1726q44 0 71.5 -28t27.5 -71q0 -55 -43.5 -97.5
t-100.5 -42.5q-44 0 -70.5 27t-26.5 74q0 55 42.5 96.5t99.5 41.5z" />
    <glyph glyph-name="Udieresis" unicode="&#xdc;" horiz-adv-x="1475" 
d="M334 1395h548l-17 -85h-47q-64 0 -90.5 -11.5t-46 -40.5t-34.5 -92l-153 -674q-16 -70 -16 -125q0 -75 38.5 -137t115.5 -99t174 -37q123 0 225.5 58t156 156.5t82.5 226.5l146 631q12 52 12 74q0 23 -13 40.5t-34 24.5q-16 5 -79 5h-38l18 85h488l-18 -85h-48
q-62 0 -90.5 -12.5t-47.5 -40t-33 -91.5l-154 -674q-23 -101 -48 -157q-47 -110 -132 -193.5t-193 -124.5t-240 -41q-223 0 -345 114.5t-122 249.5q0 80 18 158l150 659q11 50 11 76q0 25 -13 44.5t-33 26t-84 6.5h-31zM936 1726q44 0 72 -28t28 -71q0 -55 -44 -97.5
t-102 -42.5q-44 0 -71 27t-27 74q0 55 43 96.5t101 41.5zM1262 1726q44 0 71.5 -28t27.5 -71q0 -55 -43.5 -97.5t-100.5 -42.5q-44 0 -70.5 27t-26.5 74q0 55 42.5 96.5t99.5 41.5z" />
    <glyph glyph-name="aacute" unicode="&#xe1;" 
d="M1111 965h124l-169 -748q-9 -39 -9 -67q0 -33 18 -52t45 -19q33 0 66 22q50 32 115 107l63 -56q-97 -101 -136 -124q-74 -45 -155 -45q-55 0 -93.5 20t-61 59t-22.5 81q0 32 20 122q-79 -113 -149 -173t-143 -88t-148 -28q-131 0 -210 90q-89 100 -89 261
q0 176 83.5 333.5t219 243t280.5 85.5q93 0 169.5 -32t136.5 -97zM1032 779q-52 51 -118.5 79t-129.5 28q-99 0 -193.5 -67.5t-163 -216.5t-68.5 -301q0 -68 22 -117.5t60 -74.5t82 -25q82 0 173 66q115 82 206 248.5t130 380.5zM740 1095l-25 59l142 139q71 70 116 97
q24 15 54 15q33 0 56.5 -26t23.5 -61q0 -36 -28.5 -68t-107.5 -64z" />
    <glyph glyph-name="agrave" unicode="&#xe0;" 
d="M1111 965h124l-169 -748q-9 -39 -9 -67q0 -33 18 -52t45 -19q33 0 66 22q50 32 115 107l63 -56q-97 -101 -136 -124q-74 -45 -155 -45q-55 0 -93.5 20t-61 59t-22.5 81q0 32 20 122q-79 -113 -149 -173t-143 -88t-148 -28q-131 0 -210 90q-89 100 -89 261
q0 176 83.5 333.5t219 243t280.5 85.5q93 0 169.5 -32t136.5 -97zM1032 779q-52 51 -118.5 79t-129.5 28q-99 0 -193.5 -67.5t-163 -216.5t-68.5 -301q0 -68 22 -117.5t60 -74.5t82 -25q82 0 173 66q115 82 206 248.5t130 380.5zM1041 1095l-229 91q-134 54 -134 130
q0 37 24 63t58 26q28 0 52 -15q44 -27 115 -97l141 -139z" />
    <glyph glyph-name="acircumflex" unicode="&#xe2;" 
d="M1111 965h124l-169 -748q-9 -39 -9 -67q0 -33 18 -52t45 -19q33 0 66 22q50 32 115 107l63 -56q-97 -101 -136 -124q-74 -45 -155 -45q-55 0 -93.5 20t-61 59t-22.5 81q0 32 20 122q-79 -113 -149 -173t-143 -88t-148 -28q-131 0 -210 90q-89 100 -89 261
q0 176 83.5 333.5t219 243t280.5 85.5q93 0 169.5 -32t136.5 -97zM1032 779q-52 51 -118.5 79t-129.5 28q-99 0 -193.5 -67.5t-163 -216.5t-68.5 -301q0 -68 22 -117.5t60 -74.5t82 -25q82 0 173 66q115 82 206 248.5t130 380.5zM604 1189l332 176l274 -176l-50 -52l-246 93
l-266 -93z" />
    <glyph glyph-name="adieresis" unicode="&#xe4;" 
d="M1111 965h124l-169 -748q-9 -39 -9 -67q0 -33 18 -52t45 -19q33 0 66 22q50 32 115 107l63 -56q-97 -101 -136 -124q-74 -45 -155 -45q-55 0 -93.5 20t-61 59t-22.5 81q0 32 20 122q-79 -113 -149 -173t-143 -88t-148 -28q-131 0 -210 90q-89 100 -89 261
q0 176 83.5 333.5t219 243t280.5 85.5q93 0 169.5 -32t136.5 -97zM1032 779q-52 51 -118.5 79t-129.5 28q-99 0 -193.5 -67.5t-163 -216.5t-68.5 -301q0 -68 22 -117.5t60 -74.5t82 -25q82 0 173 66q115 82 206 248.5t130 380.5zM774 1370q44 0 72 -28t28 -71
q0 -55 -44 -97.5t-102 -42.5q-44 0 -71 27t-27 74q0 55 43 96.5t101 41.5zM1100 1370q44 0 71.5 -28t27.5 -71q0 -55 -43.5 -97.5t-100.5 -42.5q-44 0 -70.5 27t-26.5 74q0 55 42.5 96.5t99.5 41.5z" />
    <glyph glyph-name="atilde" unicode="&#xe3;" 
d="M1111 965h124l-169 -748q-9 -39 -9 -67q0 -33 18 -52t45 -19q33 0 66 22q50 32 115 107l63 -56q-97 -101 -136 -124q-74 -45 -155 -45q-55 0 -93.5 20t-61 59t-22.5 81q0 32 20 122q-79 -113 -149 -173t-143 -88t-148 -28q-131 0 -210 90q-89 100 -89 261
q0 176 83.5 333.5t219 243t280.5 85.5q93 0 169.5 -32t136.5 -97zM1032 779q-52 51 -118.5 79t-129.5 28q-99 0 -193.5 -67.5t-163 -216.5t-68.5 -301q0 -68 22 -117.5t60 -74.5t82 -25q82 0 173 66q115 82 206 248.5t130 380.5zM1168 1336h58q-38 -85 -95 -128t-134 -43
q-23 0 -41 3q-14 2 -69 17q-88 23 -129 23q-29 0 -51.5 -8t-39.5 -24h-62q33 75 89.5 115t119.5 40q43 0 144 -24q79 -19 101 -19q27 0 54.5 12t54.5 36z" />
    <glyph glyph-name="aring" unicode="&#xe5;" 
d="M1111 965h124l-169 -748q-9 -39 -9 -67q0 -33 18 -52t45 -19q33 0 66 22q50 32 115 107l63 -56q-97 -101 -136 -124q-74 -45 -155 -45q-55 0 -93.5 20t-61 59t-22.5 81q0 32 20 122q-79 -113 -149 -173t-143 -88t-148 -28q-131 0 -210 90q-89 100 -89 261
q0 176 83.5 333.5t219 243t280.5 85.5q93 0 169.5 -32t136.5 -97zM1032 779q-52 51 -118.5 79t-129.5 28q-99 0 -193.5 -67.5t-163 -216.5t-68.5 -301q0 -68 22 -117.5t60 -74.5t82 -25q82 0 173 66q115 82 206 248.5t130 380.5zM944 1407q58 0 93 -36t35 -93
q0 -72 -56.5 -128t-131.5 -56q-55 0 -89 35.5t-34 94.5q0 75 53 129t130 54zM932 1342q-36 0 -64.5 -31.5t-28.5 -75.5q0 -37 16 -56.5t43 -19.5q37 0 67 33t30 77q0 33 -17.5 53t-45.5 20z" />
    <glyph glyph-name="ccedilla" unicode="&#xe7;" horiz-adv-x="983" 
d="M999 274l60 -60q-263 -238 -503 -238q-113 0 -198.5 47.5t-134 137t-48.5 200.5q0 161 85.5 311.5t225 233.5t296.5 83q137 0 226 -75t89 -171q0 -62 -27.5 -95t-72.5 -33q-34 0 -58 26t-24 62l1 32l1 34q0 48 -40 84q-40 35 -102 35q-93 0 -187 -67.5t-160 -201.5
t-66 -272q0 -75 31 -135t86 -93.5t115 -33.5q52 0 115.5 18t124.5 52.5t165 118.5zM565 0l-29 -75q12 0 33 1h11q38 0 77 -18t54 -42t15 -57q0 -67 -62 -117t-159 -50q-80 0 -133 35q-37 23 -37 62q0 25 15.5 41.5t35.5 16.5q26 0 37 -9t15 -36q4 -26 20 -39q22 -16 53 -16
q44 0 76.5 29.5t32.5 67.5q0 35 -28 58t-77 23q-40 0 -86 -12l60 137h76z" />
    <glyph glyph-name="eacute" unicode="&#xe9;" horiz-adv-x="1106" 
d="M1043 264l56 -63q-126 -112 -262 -168.5t-266 -56.5q-175 0 -282 107.5t-107 285.5q0 159 88.5 302.5t247 230.5t339.5 87q144 0 225 -66t81 -156q0 -53 -35.5 -111.5t-119.5 -108.5t-243 -83t-391 -45q-5 -39 -5 -59q0 -79 33.5 -141t95 -98.5t128.5 -36.5
q85 0 198.5 46t218.5 134zM386 498q227 25 329 49q164 39 224 94.5t60 121.5q0 56 -44.5 94t-126.5 38q-86 0 -182 -51t-163 -139t-97 -207zM658 1095l-25 59l142 139q71 70 116 97q24 15 54 15q33 0 56.5 -26t23.5 -61q0 -36 -28.5 -68t-107.5 -64z" />
    <glyph glyph-name="egrave" unicode="&#xe8;" horiz-adv-x="1106" 
d="M1043 264l56 -63q-126 -112 -262 -168.5t-266 -56.5q-175 0 -282 107.5t-107 285.5q0 159 88.5 302.5t247 230.5t339.5 87q144 0 225 -66t81 -156q0 -53 -35.5 -111.5t-119.5 -108.5t-243 -83t-391 -45q-5 -39 -5 -59q0 -79 33.5 -141t95 -98.5t128.5 -36.5
q85 0 198.5 46t218.5 134zM386 498q227 25 329 49q164 39 224 94.5t60 121.5q0 56 -44.5 94t-126.5 38q-86 0 -182 -51t-163 -139t-97 -207zM999 1095l-229 91q-134 54 -134 130q0 37 24 63t58 26q28 0 52 -15q44 -27 115 -97l141 -139z" />
    <glyph glyph-name="ecircumflex" unicode="&#xea;" horiz-adv-x="1106" 
d="M1043 264l56 -63q-126 -112 -262 -168.5t-266 -56.5q-175 0 -282 107.5t-107 285.5q0 159 88.5 302.5t247 230.5t339.5 87q144 0 225 -66t81 -156q0 -53 -35.5 -111.5t-119.5 -108.5t-243 -83t-391 -45q-5 -39 -5 -59q0 -79 33.5 -141t95 -98.5t128.5 -36.5
q85 0 198.5 46t218.5 134zM386 498q227 25 329 49q164 39 224 94.5t60 121.5q0 56 -44.5 94t-126.5 38q-86 0 -182 -51t-163 -139t-97 -207zM523 1189l332 176l274 -176l-50 -52l-246 93l-266 -93z" />
    <glyph glyph-name="edieresis" unicode="&#xeb;" horiz-adv-x="1106" 
d="M1043 264l56 -63q-126 -112 -262 -168.5t-266 -56.5q-175 0 -282 107.5t-107 285.5q0 159 88.5 302.5t247 230.5t339.5 87q144 0 225 -66t81 -156q0 -53 -35.5 -111.5t-119.5 -108.5t-243 -83t-391 -45q-5 -39 -5 -59q0 -79 33.5 -141t95 -98.5t128.5 -36.5
q85 0 198.5 46t218.5 134zM386 498q227 25 329 49q164 39 224 94.5t60 121.5q0 56 -44.5 94t-126.5 38q-86 0 -182 -51t-163 -139t-97 -207zM692 1370q44 0 72 -28t28 -71q0 -55 -44 -97.5t-102 -42.5q-44 0 -71 27t-27 74q0 55 43 96.5t101 41.5zM1018 1370q44 0 71.5 -28
t27.5 -71q0 -55 -43.5 -97.5t-100.5 -42.5q-44 0 -70.5 27t-26.5 74q0 55 42.5 96.5t99.5 41.5z" />
    <glyph glyph-name="iacute" unicode="&#xed;" horiz-adv-x="573" 
d="M589 989l-194 -767q-12 -47 -12 -74q0 -32 17 -50.5t45 -18.5q33 0 63 20q47 30 119 109l64 -56q-61 -80 -140.5 -124.5t-150.5 -44.5q-77 0 -128 47.5t-51 110.5q0 44 17 111l144 574h-183l18 83q76 4 139.5 21t154.5 59h78zM392 1095l-25 59l142 139q71 70 116 97
q24 15 54 15q33 0 56.5 -26t23.5 -61q0 -36 -28.5 -68t-107.5 -64z" />
    <glyph glyph-name="igrave" unicode="&#xec;" horiz-adv-x="573" 
d="M589 989l-194 -767q-12 -47 -12 -74q0 -32 17 -50.5t45 -18.5q33 0 63 20q47 30 119 109l64 -56q-61 -80 -140.5 -124.5t-150.5 -44.5q-77 0 -128 47.5t-51 110.5q0 44 17 111l144 574h-183l18 83q76 4 139.5 21t154.5 59h78zM633 1095l-229 91q-134 54 -134 130
q0 37 24 63t58 26q28 0 52 -15q44 -27 115 -97l141 -139z" />
    <glyph glyph-name="icircumflex" unicode="&#xee;" horiz-adv-x="573" 
d="M589 989l-194 -767q-12 -47 -12 -74q0 -32 17 -50.5t45 -18.5q33 0 63 20q47 30 119 109l64 -56q-61 -80 -140.5 -124.5t-150.5 -44.5q-77 0 -128 47.5t-51 110.5q0 44 17 111l144 574h-183l18 83q76 4 139.5 21t154.5 59h78zM236 1189l332 176l274 -176l-50 -52l-246 93
l-266 -93z" />
    <glyph glyph-name="idieresis" unicode="&#xef;" horiz-adv-x="573" 
d="M589 989l-194 -767q-12 -47 -12 -74q0 -32 17 -50.5t45 -18.5q33 0 63 20q47 30 119 109l64 -56q-61 -80 -140.5 -124.5t-150.5 -44.5q-77 0 -128 47.5t-51 110.5q0 44 17 111l144 574h-183l18 83q76 4 139.5 21t154.5 59h78zM425 1370q44 0 72 -28t28 -71
q0 -55 -44 -97.5t-102 -42.5q-44 0 -71 27t-27 74q0 55 43 96.5t101 41.5zM751 1370q44 0 71.5 -28t27.5 -71q0 -55 -43.5 -97.5t-100.5 -42.5q-44 0 -70.5 27t-26.5 74q0 55 42.5 96.5t99.5 41.5z" />
    <glyph glyph-name="ntilde" unicode="&#xf1;" 
d="M593 989l-71 -314q49 82 95 130q87 93 178 138.5t176 45.5q67 0 117 -25.5t80 -72.5t30 -95q0 -41 -21 -130l-95 -426q-14 -61 -14 -87q0 -30 18.5 -49t45.5 -19q70 0 180 133l63 -59q-88 -102 -153.5 -139t-136.5 -37q-54 0 -93.5 21t-62.5 60.5t-23 83.5q0 39 14 101
l98 443q13 57 13 88q0 44 -28.5 69.5t-75.5 25.5q-54 0 -113.5 -29t-126.5 -96t-122.5 -166t-101.5 -236q-22 -63 -49 -189l-34 -159h-165l185 824h-185l20 82q96 14 150 30t137 53h71zM1169 1336h58q-38 -85 -95 -128t-134 -43q-23 0 -41 3q-14 2 -69 17q-88 23 -129 23
q-29 0 -51.5 -8t-39.5 -24h-62q33 75 89.5 115t119.5 40q43 0 144 -24q79 -19 101 -19q27 0 54.5 12t54.5 36z" />
    <glyph glyph-name="oacute" unicode="&#xf3;" horiz-adv-x="1106" 
d="M753 989q170 0 280 -110.5t110 -279.5q0 -170 -78.5 -319.5t-205 -226.5t-279.5 -77q-128 0 -212.5 47t-138 143t-53.5 209q0 161 81.5 309.5t211.5 226.5t284 78zM744 892q-96 0 -180 -60.5t-144 -194.5t-60 -283q0 -121 57.5 -203t166.5 -82q91 0 172.5 60.5
t142.5 198.5t61 279q0 86 -29.5 153.5t-78.5 99.5t-108 32zM659 1095l-25 59l142 139q71 70 116 97q24 15 54 15q33 0 56.5 -26t23.5 -61q0 -36 -28.5 -68t-107.5 -64z" />
    <glyph glyph-name="ograve" unicode="&#xf2;" horiz-adv-x="1106" 
d="M753 989q170 0 280 -110.5t110 -279.5q0 -170 -78.5 -319.5t-205 -226.5t-279.5 -77q-128 0 -212.5 47t-138 143t-53.5 209q0 161 81.5 309.5t211.5 226.5t284 78zM744 892q-96 0 -180 -60.5t-144 -194.5t-60 -283q0 -121 57.5 -203t166.5 -82q91 0 172.5 60.5
t142.5 198.5t61 279q0 86 -29.5 153.5t-78.5 99.5t-108 32zM1000 1095l-229 91q-134 54 -134 130q0 37 24 63t58 26q28 0 52 -15q44 -27 115 -97l141 -139z" />
    <glyph glyph-name="ocircumflex" unicode="&#xf4;" horiz-adv-x="1106" 
d="M753 989q170 0 280 -110.5t110 -279.5q0 -170 -78.5 -319.5t-205 -226.5t-279.5 -77q-128 0 -212.5 47t-138 143t-53.5 209q0 161 81.5 309.5t211.5 226.5t284 78zM744 892q-96 0 -180 -60.5t-144 -194.5t-60 -283q0 -121 57.5 -203t166.5 -82q91 0 172.5 60.5
t142.5 198.5t61 279q0 86 -29.5 153.5t-78.5 99.5t-108 32zM523 1189l332 176l274 -176l-50 -52l-246 93l-266 -93z" />
    <glyph glyph-name="odieresis" unicode="&#xf6;" horiz-adv-x="1106" 
d="M753 989q170 0 280 -110.5t110 -279.5q0 -170 -78.5 -319.5t-205 -226.5t-279.5 -77q-128 0 -212.5 47t-138 143t-53.5 209q0 161 81.5 309.5t211.5 226.5t284 78zM744 892q-96 0 -180 -60.5t-144 -194.5t-60 -283q0 -121 57.5 -203t166.5 -82q91 0 172.5 60.5
t142.5 198.5t61 279q0 86 -29.5 153.5t-78.5 99.5t-108 32zM692 1370q44 0 72 -28t28 -71q0 -55 -44 -97.5t-102 -42.5q-44 0 -71 27t-27 74q0 55 43 96.5t101 41.5zM1018 1370q44 0 71.5 -28t27.5 -71q0 -55 -43.5 -97.5t-100.5 -42.5q-44 0 -70.5 27t-26.5 74
q0 55 42.5 96.5t99.5 41.5z" />
    <glyph glyph-name="otilde" unicode="&#xf5;" horiz-adv-x="1106" 
d="M753 989q170 0 280 -110.5t110 -279.5q0 -170 -78.5 -319.5t-205 -226.5t-279.5 -77q-128 0 -212.5 47t-138 143t-53.5 209q0 161 81.5 309.5t211.5 226.5t284 78zM744 892q-96 0 -180 -60.5t-144 -194.5t-60 -283q0 -121 57.5 -203t166.5 -82q91 0 172.5 60.5
t142.5 198.5t61 279q0 86 -29.5 153.5t-78.5 99.5t-108 32zM1087 1336h58q-38 -85 -95 -128t-134 -43q-23 0 -41 3q-14 2 -69 17q-88 23 -129 23q-29 0 -51.5 -8t-39.5 -24h-62q33 75 89.5 115t119.5 40q43 0 144 -24q79 -19 101 -19q27 0 54.5 12t54.5 36z" />
    <glyph glyph-name="uacute" unicode="&#xfa;" 
d="M1063 965h164l-164 -724q-11 -49 -11 -96q0 -30 17.5 -47.5t43.5 -17.5q30 0 65 23q62 41 116 107l64 -55q-80 -95 -148.5 -133.5t-140.5 -38.5q-81 0 -130 45t-49 111q0 42 18 131q-45 -75 -88 -120q-83 -87 -175 -130.5t-175 -43.5q-67 0 -116.5 24t-77.5 69t-28 92
t19 134l116 526h-184l19 85q76 7 136.5 24t154.5 59h74l-163 -733q-10 -48 -10 -69q0 -47 27 -75.5t69 -28.5q92 0 190 77q125 98 201.5 252.5t113.5 320.5zM741 1095l-25 59l142 139q71 70 116 97q24 15 54 15q33 0 56.5 -26t23.5 -61q0 -36 -28.5 -68t-107.5 -64z" />
    <glyph glyph-name="ugrave" unicode="&#xf9;" 
d="M1063 965h164l-164 -724q-11 -49 -11 -96q0 -30 17.5 -47.5t43.5 -17.5q30 0 65 23q62 41 116 107l64 -55q-80 -95 -148.5 -133.5t-140.5 -38.5q-81 0 -130 45t-49 111q0 42 18 131q-45 -75 -88 -120q-83 -87 -175 -130.5t-175 -43.5q-67 0 -116.5 24t-77.5 69t-28 92
t19 134l116 526h-184l19 85q76 7 136.5 24t154.5 59h74l-163 -733q-10 -48 -10 -69q0 -47 27 -75.5t69 -28.5q92 0 190 77q125 98 201.5 252.5t113.5 320.5zM1002 1095l-229 91q-134 54 -134 130q0 37 24 63t58 26q28 0 52 -15q44 -27 115 -97l141 -139z" />
    <glyph glyph-name="ucircumflex" unicode="&#xfb;" 
d="M1063 965h164l-164 -724q-11 -49 -11 -96q0 -30 17.5 -47.5t43.5 -17.5q30 0 65 23q62 41 116 107l64 -55q-80 -95 -148.5 -133.5t-140.5 -38.5q-81 0 -130 45t-49 111q0 42 18 131q-45 -75 -88 -120q-83 -87 -175 -130.5t-175 -43.5q-67 0 -116.5 24t-77.5 69t-28 92
t19 134l116 526h-184l19 85q76 7 136.5 24t154.5 59h74l-163 -733q-10 -48 -10 -69q0 -47 27 -75.5t69 -28.5q92 0 190 77q125 98 201.5 252.5t113.5 320.5zM605 1189l332 176l274 -176l-50 -52l-246 93l-266 -93z" />
    <glyph glyph-name="udieresis" unicode="&#xfc;" 
d="M1063 965h164l-164 -724q-11 -49 -11 -96q0 -30 17.5 -47.5t43.5 -17.5q30 0 65 23q62 41 116 107l64 -55q-80 -95 -148.5 -133.5t-140.5 -38.5q-81 0 -130 45t-49 111q0 42 18 131q-45 -75 -88 -120q-83 -87 -175 -130.5t-175 -43.5q-67 0 -116.5 24t-77.5 69t-28 92
t19 134l116 526h-184l19 85q76 7 136.5 24t154.5 59h74l-163 -733q-10 -48 -10 -69q0 -47 27 -75.5t69 -28.5q92 0 190 77q125 98 201.5 252.5t113.5 320.5zM774 1370q44 0 72 -28t28 -71q0 -55 -44 -97.5t-102 -42.5q-44 0 -71 27t-27 74q0 55 43 96.5t101 41.5zM1100 1370
q44 0 71.5 -28t27.5 -71q0 -55 -43.5 -97.5t-100.5 -42.5q-44 0 -70.5 27t-26.5 74q0 55 42.5 96.5t99.5 41.5z" />
    <glyph glyph-name="dagger" unicode="&#x2020;" 
d="M583 -343h-86l91 386q35 150 47.5 244t12.5 183q0 82 -18 156q67 66 114 124q33 40 58 86q-57 -14 -151 -39q-93 -25 -140 -25q-33 0 -51.5 17t-18.5 47q0 50 31 89t82 39q19 0 42 -3q30 -5 85 -19l136 -41q4 77 4 134q0 64 -6 143q-4 55 -4 72q0 77 27 112q44 57 120 57
q50 0 86 -26q26 -19 26 -47q0 -21 -8 -42q-14 -35 -79 -157q-71 -133 -115 -246q63 15 162 40q94 23 119 23q37 0 58 -17q16 -13 16 -43q0 -34 -16.5 -66.5t-42.5 -49t-54 -16.5q-31 0 -126 27l-131 37q5 -67 20.5 -111.5t53.5 -98.5q-96 -123 -134 -208q-69 -157 -119 -371
z" />
    <glyph glyph-name="degree" unicode="&#xb0;" horiz-adv-x="819" 
d="M714 1419q114 0 194 -80t80 -194q0 -113 -80 -193t-194 -80q-113 0 -193 80t-80 193q0 114 80 194t193 80zM714 1320q-73 0 -125 -51t-52 -124q0 -72 52 -123.5t125 -51.5q74 0 126 51.5t52 123.5q0 73 -52 124t-126 51z" />
    <glyph glyph-name="cent" unicode="&#xa2;" 
d="M954 1412h98l-55 -239q151 -23 223.5 -90t72.5 -150q0 -39 -24.5 -64t-63.5 -25q-35 0 -58 22t-44 91q-15 52 -29.5 73.5t-34.5 33.5t-61 20l-172 -751l31 -1q64 0 154.5 42t173.5 121l60 -61q-62 -65 -139.5 -112.5t-151.5 -70.5t-152 -23l-58 -253h-100l61 260
q-101 19 -172.5 72.5t-111.5 136.5t-40 189q0 145 69.5 270t188.5 196.5t282 79.5zM880 1086q-54 -2 -96 -21q-69 -30 -120.5 -86t-87.5 -155t-36 -202q0 -64 21.5 -118.5t64.5 -99.5q31 -32 85 -54z" />
    <glyph glyph-name="sterling" unicode="&#xa3;" 
d="M1388 1008h-102q0 140 -76 219.5t-203 79.5q-146 0 -236.5 -94.5t-90.5 -257.5q0 -51 10 -134h375l-22 -97h-339q13 -83 13 -154q0 -94 -14 -165t-43 -133q189 -127 327 -127q94 0 171 88q59 68 120 262l94 -25q-61 -253 -184 -384q-105 -110 -230 -110q-84 0 -169 39.5
t-187 139.5q-54 -73 -96.5 -107t-97 -53t-110.5 -19q-99 0 -168 67t-69 164q0 102 69.5 172.5t172.5 70.5q153 0 258 -121q5 48 5 95q0 65 -5.5 124t-25.5 176h-322l21 97h284q-15 91 -15 154q0 129 59.5 228.5t172 157.5t259.5 58q127 0 215 -44t134.5 -124t46.5 -186
q0 -19 -2 -57zM535 218q-78 80 -130 108t-102 28q-56 0 -96.5 -41.5t-40.5 -102.5q0 -62 40.5 -102t103.5 -40t118 34t107 116z" />
    <glyph glyph-name="section" unicode="&#xa7;" 
d="M417 853q-71 51 -104 110.5t-33 127.5q0 84 50.5 158t153.5 122t229 48q118 0 215 -41.5t142 -101.5t45 -123q0 -46 -25.5 -72.5t-66.5 -26.5q-23 0 -41.5 11t-29 30t-22.5 73q-9 43 -15 55q-13 28 -40.5 52t-63.5 35q-47 16 -102 16q-123 0 -196.5 -60.5t-73.5 -143.5
q0 -49 21 -83q30 -47 81 -77q35 -19 201 -73q157 -50 228 -132t71 -181q0 -104 -73 -208q-55 -78 -161 -150q67 -47 98 -103.5t31 -122.5q0 -90 -58.5 -175t-170.5 -137t-255 -52q-133 0 -236 46.5t-159.5 123t-56.5 146.5q0 41 28 72.5t61 31.5q27 0 49.5 -16t33.5 -37
q4 -8 8 -55q7 -62 14 -85q13 -38 43.5 -66.5t91.5 -50t135 -21.5q91 0 163 32.5t107.5 84.5t35.5 110q0 50 -23 88q-33 51 -79.5 77.5t-200.5 71.5q-172 50 -249 137q-77 86 -77 192q0 93 62 174q75 100 214 169zM497 810q-105 -61 -147 -110q-58 -67 -58 -142
q0 -51 28.5 -98.5t80.5 -78.5t189 -73q82 -25 140 -49q94 74 123 117q44 64 44 131q0 75 -51 135t-174 103l-116 41q-12 4 -20 7z" />
    <glyph glyph-name="bullet" unicode="&#x2022;" horiz-adv-x="942" 
d="M324 704q0 125 84.5 212t204.5 87t205 -86.5t85 -211.5q0 -123 -85 -209t-204 -86q-120 0 -205 86t-85 208z" />
    <glyph glyph-name="paragraph" unicode="&#xb6;" 
d="M999 1262h-151v-1706h-95v1071q-21 -1 -32 -1q-147 0 -243 44t-144 121.5t-48 184.5q0 79 29 147.5t81.5 118.5t109.5 72.5t149 32.5q45 5 157 5h416v-72q-72 -6 -93.5 -18.5t-31.5 -41t-10 -115.5v-1549h-94v1706z" />
    <glyph glyph-name="germandbls" unicode="&#xdf;" 
d="M220 864l22 101h185l21 97q33 148 94.5 229.5t160 128.5t229.5 47q155 0 244.5 -78t89.5 -190q0 -59 -26 -102q-17 -27 -54 -39q-27 -9 -111 -16q-72 -6 -99 -15q-57 -16 -83 -45.5t-26 -67.5q0 -72 109 -146l96 -65q126 -86 166 -141q57 -79 57 -186q0 -165 -130 -282.5
t-337 -117.5q-171 0 -269 80q-74 61 -74 131q0 35 24 59.5t58 24.5q35 0 59 -19t53 -68q31 -52 52.5 -70t60 -30.5t83.5 -12.5q77 0 138.5 34.5t97.5 98t36 132.5t-36.5 124.5t-143.5 126.5l-74 49q-91 60 -128 117.5t-37 120.5q0 107 94.5 177.5t282.5 68.5q-12 34 -12 51
q0 9 3 33q3 16 3 31q0 59 -48 100q-49 40 -133 40q-77 0 -139 -30t-100 -84t-59 -152l-247 -1093q-28 -124 -89.5 -210.5t-151 -132.5t-184.5 -46q-70 0 -113.5 35.5t-43.5 83.5q0 33 24.5 56.5t61.5 23.5q23 0 41.5 -7.5t43.5 -30.5q30 -27 48 -35t42 -8q33 0 60.5 18
t44.5 51q33 66 45 124l201 926h-183z" />
    <glyph glyph-name="registered" unicode="&#xae;" horiz-adv-x="1516" 
d="M798 1387q190 0 355 -95t260 -259.5t95 -354.5t-95 -354.5t-260 -259.5t-355 -95t-354.5 95t-259.5 259.5t-95 354.5t95 354.5t259.5 259.5t354.5 95zM798 1326q-173 0 -323.5 -87t-237 -237t-86.5 -324t86.5 -324t237 -237t323.5 -87q174 0 324.5 87t237 237t86.5 324
t-86.5 324t-237 237t-324.5 87zM406 1114h386q142 0 219.5 -64t77.5 -160q0 -83 -56 -138.5t-166 -83.5l209 -298q36 -51 66 -71q19 -14 55 -17v-33h-184l-294 405h-76v-309q7 -34 30 -48.5t88 -14.5v-33h-367v33q49 0 70.5 13t30.5 41q3 12 3 84v523q0 71 -2 82
q-6 26 -25 39.5t-65 13.5v36zM643 697q113 0 168.5 21t86 64t30.5 97q0 81 -56.5 136t-144.5 55q-38 0 -84 -16v-357z" />
    <glyph glyph-name="copyright" unicode="&#xa9;" horiz-adv-x="1516" 
d="M798 1387q190 0 355 -95t260 -259.5t95 -354.5t-95 -354.5t-260 -259.5t-355 -95t-354.5 95t-259.5 259.5t-95 354.5t95 354.5t259.5 259.5t354.5 95zM798 1326q-173 0 -323.5 -87t-237 -237t-86.5 -324t86.5 -324t237 -237t323.5 -87q174 0 324.5 87t237 237t86.5 324
t-86.5 324t-237 237t-324.5 87zM1149 1134l20 -280h-39q-26 84 -66 132t-102 76t-135 28q-94 0 -167.5 -46.5t-108.5 -122.5q-45 -96 -45 -220q0 -141 39 -229t116 -136t176 -48q63 0 121.5 19t103 51.5t87.5 91.5l37 -19q-62 -91 -141 -138q-106 -65 -242 -65
q-132 0 -237 58.5t-165.5 161.5t-60.5 224q0 125 64 232t177.5 169t256.5 62q46 0 76.5 -6t108.5 -32q25 -8 37 -8q17 0 27.5 9t21.5 36h40z" />
    <glyph glyph-name="trademark" unicode="&#x2122;" horiz-adv-x="2007" 
d="M11 1356h728l22 -201h-34q-10 73 -53 107t-141 34h-75v-579q0 -65 8.5 -86.5t27.5 -32.5t70 -13v-36h-374v36q53 5 69 15t23.5 30.5t7.5 85.5v580h-76q-94 0 -134.5 -31t-55.5 -110h-34zM1116 1356l273 -572l265 572h279v-37q-57 -1 -75 -11.5t-27 -32t-9 -91.5v-468
q0 -69 7.5 -88t27.5 -29.5t76 -13.5v-36h-398v36q59 1 79.5 12t30 32t9.5 86v492l-307 -658h-32l-308 649v-482q0 -66 7 -84q9 -25 28 -36t58 -11h36v-36h-306v36q57 0 76 10.5t28 31.5t9 89v466q0 74 -8 95t-29 31.5t-76 10.5v37h286z" />
    <glyph glyph-name="acute" unicode="&#xb4;" horiz-adv-x="655" 
d="M433 1095l-25 59l142 139q71 70 116 97q24 15 54 15q33 0 56.5 -26t23.5 -61q0 -36 -28.5 -68t-107.5 -64z" />
    <glyph glyph-name="dieresis" unicode="&#xa8;" horiz-adv-x="860" 
d="M569 1370q44 0 72 -28t28 -71q0 -55 -44 -97.5t-102 -42.5q-44 0 -71 27t-27 74q0 55 43 96.5t101 41.5zM895 1370q44 0 71.5 -28t27.5 -71q0 -55 -43.5 -97.5t-100.5 -42.5q-44 0 -70.5 27t-26.5 74q0 55 42.5 96.5t99.5 41.5z" />
    <glyph glyph-name="notequal" unicode="&#x2260;" horiz-adv-x="1124" 
d="M915 916h277v-123h-359l-128 -191h487v-123h-569l-247 -369h-129l246 369h-276v123h358l128 191h-486v123h568l247 369h130z" />
    <glyph glyph-name="AE" unicode="&#xc6;" horiz-adv-x="2498" 
d="M961 1395h1545l115 -364l-93 -31q-23 75 -60.5 129.5t-86.5 92.5q-37 27 -92 42q-75 20 -159 20h-370l-115 -509h262l23 -1q69 0 121 24t78 60.5t59 149.5h97l-129 -565h-96q14 73 14 105q0 41 -19.5 70t-56.5 42.5t-120 13.5h-255l-110 -482q-8 -33 -8 -44
q0 -21 16.5 -31t71.5 -10h322q112 0 203.5 26t153 68.5t107.5 105.5q23 31 112 170l86 -34l-212 -443h-1255l19 84h35q85 0 124.5 28t56.5 107l102 455h-655l-358 -455l-19 -21q-36 -42 -36 -69q0 -23 17 -34t71 -11h60l-17 -84h-510l19 84q66 1 93 9.5t67 41.5q23 20 59 65
l815 989q40 48 40 73q0 27 -24.5 37.5t-85.5 10.5h-42zM1275 1284l-402 -509h597l116 509h-311z" />
    <glyph glyph-name="Oslash" unicode="&#xd8;" horiz-adv-x="1556" 
d="M1507 1239l215 179l64 -76l-219 -182q88 -142 88 -334q0 -225 -116 -424.5t-314 -314.5q-191 -111 -423 -111q-142 0 -249 45t-191 139l-222 -184l-64 76l225 187q-84 135 -84 315q0 229 115.5 431.5t311 318t417.5 115.5q137 0 250.5 -46t195.5 -134zM1383 1136
q-113 177 -322 177q-162 0 -306 -95.5t-239.5 -286.5t-95.5 -403q0 -84 26 -170zM1426 1043l-940 -780q52 -90 135 -137t190 -47q162 0 305 95.5t239.5 290t96.5 403.5q0 85 -26 175z" />
    <glyph glyph-name="infinity" unicode="&#x221e;" horiz-adv-x="1460" 
d="M653 667q51 118 98 170.5t113.5 79.5t158.5 27q109 0 196 -53.5t137 -146.5t50 -217q0 -204 -133 -327q-101 -93 -216 -93q-98 0 -183 72q-57 48 -154 214q-47 -91 -93.5 -138t-104 -71t-126.5 -24q-145 0 -244 103.5t-99 265.5t91 264.5t216 102.5q94 0 164 -54
q58 -44 129 -175zM749 464q73 -152 145.5 -207.5t166.5 -55.5q135 0 211.5 95.5t76.5 230.5q0 145 -86 242t-196 97q-64 0 -112.5 -29.5t-91.5 -99.5q-29 -49 -114 -273zM624 590q-53 119 -118 166.5t-149 47.5q-106 0 -177.5 -75t-71.5 -199q0 -130 69.5 -211t160.5 -81
q87 0 158 74q55 58 117 244z" />
    <glyph glyph-name="plusminus" unicode="&#xb1;" horiz-adv-x="1124" 
d="M1192 875v-123h-426v-426h-123v426h-426v123h426v425h123v-425h426zM1192 251v-123h-975v123h975z" />
    <glyph glyph-name="lessequal" unicode="&#x2264;" horiz-adv-x="1124" 
d="M1137 283l-901 401v100l901 401v-144l-718 -307l718 -307v-144zM1137 201v-123h-901v123h901z" />
    <glyph glyph-name="greaterequal" unicode="&#x2265;" horiz-adv-x="1124" 
d="M272 1185l901 -401v-100l-901 -401v144l718 307l-718 307v144zM1173 201v-123h-901v123h901z" />
    <glyph glyph-name="yen" unicode="&#xa5;" 
d="M950 664h391l-23 -104h-443l-41 -186h444l-23 -104h-445q-18 -84 -18 -107q0 -45 32 -65q23 -14 88 -14h43l-18 -84h-550l19 84q93 1 111 5q27 6 49 24t34.5 44t32.5 113h-480l26 104h477l39 167l-8 19h-471l26 104h403l-215 530q-30 74 -39 84q-13 17 -34.5 24.5
t-97.5 7.5l21 85h510l-20 -85h-60q-62 0 -81 -12.5t-19 -40.5q0 -21 17 -63l196 -530l406 521q43 56 43 84q0 21 -18 31t-83 10h-44l19 85h475l-19 -85q-60 1 -87 -6.5t-48 -22.5q-27 -20 -66 -67z" />
    <glyph glyph-name="mu1" unicode="&#xb5;" horiz-adv-x="1180" 
d="M401 965h170l-143 -623q-18 -76 -18 -120q0 -62 32.5 -96t85.5 -34t127.5 40t169.5 119l165 714h168l-169 -732q-14 -58 -14 -74q0 -22 12.5 -33.5t34.5 -11.5q29 0 89 24l-12 -54q-107 -65 -151.5 -83t-70.5 -18q-37 0 -59.5 26t-22.5 76q0 22 9 75
q-144 -122 -216.5 -156.5t-140.5 -34.5q-54 0 -96.5 20.5t-65 54t-34.5 104.5q-19 -62 -25 -106q-9 -64 -9 -128l2 -125q0 -73 -35 -113.5t-84 -40.5q-34 0 -52.5 19t-18.5 57q0 23 9 54.5t52 133.5q79 189 132 356t107 399z" />
    <glyph glyph-name="partialdiff" unicode="&#x2202;" horiz-adv-x="1012" 
d="M930 717q12 113 12 186q0 178 -94 277.5t-252 99.5q-66 0 -121 -17.5t-96 -49t-84 -92.5h-46q59 121 112 179.5t124.5 90t144.5 31.5q114 0 202 -66.5t126 -177t38 -258.5q0 -203 -56 -394.5t-147 -321.5t-186.5 -182.5t-202.5 -52.5q-135 0 -227 73q-112 88 -112 262
q0 155 78.5 299t207.5 224.5t266 80.5q68 0 128.5 -23t112.5 -69q39 -34 72 -99zM913 628q-27 77 -68 124t-100 74t-119 27q-108 0 -202 -82q-79 -69 -134.5 -221.5t-55.5 -286.5q0 -72 26 -127.5t69.5 -82.5t99.5 -27q87 0 193.5 79.5t192.5 244.5q61 115 98 278z" />
    <glyph glyph-name="summation" unicode="&#x2211;" horiz-adv-x="1460" 
d="M1356 -442h-1313v37l669 901l-669 887v37h1278l27 -337h-40q-8 72 -28.5 120.5t-48.5 76.5t-69.5 43.5t-102.5 15.5h-740l562 -757l-629 -847h818q65 0 137 22t110 71t63 153l40 -8z" />
    <glyph glyph-name="product" unicode="&#x220f;" horiz-adv-x="1685" 
d="M1240 1342h-795v-1591q0 -56 20 -95q13 -28 39 -39q48 -21 103 -21h36v-38h-597v38h35q58 0 100 19q30 14 42 39q21 42 21 97v1477q0 56 -20 95q-14 27 -39 38q-48 22 -104 22h-35v37h1594v-37h-35q-58 0 -100 -20q-30 -14 -42 -38q-20 -43 -20 -97v-1477q0 -56 19 -95
q14 -28 39 -39q48 -21 104 -21h35v-38h-597v38h35q58 0 100 19q30 14 42 39q20 42 20 97v1591z" />
    <glyph glyph-name="pi1" unicode="&#xf006;" horiz-adv-x="1124" 
d="M766 744h-248l-151 -517q-44 -150 -94 -209q-36 -42 -87 -42q-36 0 -58 20.5t-22 47.5q0 19 6 37q8 27 24 51q7 10 62 75q51 61 80 117.5t59 155.5l80 264h-50q-116 0 -170.5 -26.5t-88.5 -87.5h-36q17 56 47 99q40 59 88 93t110 48q46 11 110 11h638l-41 -137h-156
l-131 -435q-17 -55 -17 -84q0 -55 31 -88t75 -33q38 0 72.5 27t64.5 96h36q-27 -107 -55.5 -154t-70.5 -72t-87 -25q-72 0 -121.5 56t-49.5 152q0 67 22 131l7 22z" />
    <glyph glyph-name="integral" unicode="&#x222b;" horiz-adv-x="561" 
d="M200 895q0 185 11 429q8 186 21 265q17 106 51 176q19 41 64.5 69.5t87.5 28.5q49 0 87 -33t38 -74q0 -46 -26.5 -75t-65.5 -29q-35 0 -76 36q-23 20 -40 20q-18 0 -29 -14.5t-11 -49.5q0 -41 9 -145q37 -411 37 -663q0 -70 -7 -312l-11 -332q-8 -119 -30 -206.5
t-51.5 -128.5t-64.5 -59t-76 -18q-52 0 -85 34t-33 87q0 44 25.5 71.5t64.5 27.5q40 0 70 -33q20 -21 28 -26t20 -5q17 0 28 14.5t11 46.5q0 42 -9 120q-15 128 -26.5 349t-11.5 429z" />
    <glyph glyph-name="ordfeminine" unicode="&#xaa;" horiz-adv-x="901" 
d="M907 1404h103l-112 -458q-5 -21 -5 -37q0 -18 8 -27.5t21 -9.5q18 0 42.5 16.5t73.5 67.5l56 -46q-68 -65 -94 -80q-51 -28 -109 -28q-39 0 -68 14t-44 38.5t-15 53.5q0 6 3 25q-64 -68 -112 -95q-74 -40 -154 -40q-89 0 -146.5 59.5t-57.5 156.5q0 103 53 199.5t143 151
t175 54.5q52 0 125 -18q46 -11 89 -49zM852 1285q-29 27 -69.5 43t-78.5 16q-63 0 -121.5 -41t-101 -128.5t-42.5 -174.5q0 -59 27 -91.5t68 -32.5q51 0 115.5 44.5t121.5 142t81 222.5z" />
    <glyph glyph-name="ordmasculine" unicode="&#xba;" horiz-adv-x="819" 
d="M695 1419q118 0 192 -69.5t74 -171.5q0 -101 -51 -192t-137 -139.5t-196 -48.5q-132 0 -200.5 75.5t-68.5 169.5q0 96 53 186.5t140.5 140t193.5 49.5zM689 1348q-102 0 -169.5 -97.5t-67.5 -219.5q0 -77 37.5 -120.5t96.5 -43.5q56 0 106.5 36.5t88 117.5t37.5 161
q0 73 -34.5 119.5t-94.5 46.5z" />
    <glyph glyph-name="Ohm" unicode="&#x2126;" horiz-adv-x="1573" 
d="M50 0l101 343h37q-14 -35 -14 -60q0 -50 35 -81t104 -31h222l24 99q-162 34 -262.5 158.5t-100.5 291.5q0 169 98 325t278.5 249t386.5 93q155 0 277 -63t190.5 -170.5t68.5 -223.5q0 -140 -78 -290q-70 -133 -210 -232.5t-276 -119.5l-40 -117h225q114 0 170 48
q42 36 68 124h36l-99 -343h-528l128 364q102 21 171 87q94 91 157.5 244.5t63.5 293.5q0 143 -92.5 236t-236.5 93q-142 0 -264 -80t-196 -237q-86 -180 -86 -367q0 -119 62.5 -199.5t162.5 -100.5l-74 -334h-509z" />
    <glyph glyph-name="ae" unicode="&#xe6;" horiz-adv-x="1802" 
d="M926 580l20 90q9 45 9 65q0 70 -57 114.5t-172 44.5q-186 0 -231 -147q-22 -70 -36 -84q-30 -30 -65 -30q-33 0 -56 26t-23 69q0 98 103 171q128 90 324 90q95 0 172.5 -22.5t117.5 -55.5t68 -94q119 97 218 134.5t212 37.5q98 0 164.5 -29t103 -80t36.5 -102
q0 -94 -84 -174t-271 -122t-408 -51q-6 -38 -6 -68q0 -86 32 -147t94.5 -97.5t129.5 -36.5q84 0 191 44t227 139l55 -63q-58 -54 -119 -92q-113 -70 -208 -102t-195 -32q-87 0 -153.5 24.5t-115.5 71.5t-82 122q-105 -98 -255 -165q-119 -53 -225 -53q-135 0 -216 71
t-81 174q0 64 35.5 124.5t96.5 96.5q90 53 270 89t380 49zM1085 510q243 21 367.5 61.5t178.5 101.5q41 47 41 99q0 46 -45.5 84t-114.5 38q-98 0 -194 -59.5t-165 -166.5q-44 -68 -68 -158zM909 495q-182 -20 -308 -46.5t-186 -62.5q-45 -27 -69.5 -68t-24.5 -84
q0 -61 41 -96q51 -44 123 -44q70 0 159 33t206 116z" />
    <glyph glyph-name="oslash" unicode="&#xf8;" horiz-adv-x="1106" 
d="M1043 869l139 120l56 -65l-145 -125q51 -92 51 -200q0 -170 -79 -320t-205.5 -226.5t-286.5 -76.5q-190 0 -294 120l-139 -120l-55 66l145 125q-54 97 -54 208q0 161 81.5 309t211.5 226.5t282 78.5q182 0 292 -120zM927 769q-27 60 -75.5 91.5t-110.5 31.5
q-93 0 -177 -61t-143.5 -194.5t-59.5 -283.5q0 -34 6 -68zM954 678l-561 -484q58 -125 191 -125q91 0 172.5 60.5t142.5 198.5t61 279q0 31 -6 71z" />
    <glyph glyph-name="questiondown" unicode="&#xbf;" horiz-adv-x="1106" 
d="M997 728q-43 0 -71 28t-28 72q0 58 40.5 100t97.5 42q48 0 75.5 -27t27.5 -75q0 -58 -41 -99t-101 -41zM916 610h99l-77 -344q-62 2 -92 2q-167 0 -270.5 -43t-155.5 -123t-52 -181q0 -136 91 -215.5t215 -79.5q55 0 98 16t73 44q13 12 45 61q32 50 47 61q26 21 58 21
q39 0 65.5 -24t26.5 -59q0 -53 -35 -93q-45 -54 -143 -89.5t-214 -35.5q-195 0 -335 108q-155 121 -155 305q0 124 72.5 228t213.5 163t375 59z" />
    <glyph glyph-name="exclamdown" unicode="&#xa1;" horiz-adv-x="655" 
d="M484 728q-43 0 -71 28t-28 72q0 58 40.5 100t97.5 42q48 0 75.5 -27t27.5 -75q0 -58 -41 -99t-101 -41zM418 613h81l-123 -901q-11 -85 -24 -109q-17 -33 -49.5 -54t-65.5 -21q-45 0 -74.5 27.5t-29.5 70.5q0 20 4 41q2 12 18 64z" />
    <glyph glyph-name="logicalnot" unicode="&#xac;" horiz-adv-x="1229" 
d="M269 718h975v-737h-117v620h-858v117z" />
    <glyph glyph-name="radical" unicode="&#x221a;" horiz-adv-x="1124" 
d="M1050 1869h74l-312 -1947l-496 1021l-198 -91l-34 64l301 151l405 -823z" />
    <glyph glyph-name="florin" unicode="&#x192;" 
d="M558 965h186l46 165q11 42 41 109.5t73 108.5q58 57 134.5 88t163.5 31q111 0 175.5 -44t64.5 -97q0 -37 -24 -62t-61 -25q-26 0 -45.5 8.5t-46.5 35.5q-50 48 -84 66q-21 12 -47 12q-46 0 -90.5 -44.5t-72.5 -145.5l-57 -206h220l-24 -97h-222l-217 -797
q-46 -170 -106.5 -260.5t-143.5 -135t-181 -44.5q-86 0 -135.5 36.5t-49.5 82.5q0 35 25.5 59.5t61.5 24.5q23 0 41.5 -8.5t47.5 -35.5q32 -29 50 -38.5t35 -9.5q45 0 85 48t80 197l239 881h-190z" />
    <glyph glyph-name="approxequal" unicode="&#x2248;" horiz-adv-x="1124" 
d="M929 1022l87 -97q-31 -78 -70.5 -122.5t-87.5 -67.5t-102 -23q-40 0 -81 15q-20 7 -122 59l-133 64q-25 10 -51 10q-48 0 -77.5 -34t-88.5 -146l-95 98q40 80 80.5 122.5t86.5 64.5t93 22q35 0 75 -13t146 -68q96 -48 120.5 -57.5t40.5 -9.5q47 0 88 41q28 28 91 142z
M929 661l87 -97q-31 -79 -70.5 -123.5t-87.5 -67.5t-102 -23q-40 0 -81 15q-20 7 -122 59l-133 64q-25 10 -51 10q-48 0 -77.5 -34t-88.5 -146l-95 98q40 80 80.5 122.5t86.5 64.5t93 22q35 0 75 -13t146 -67q96 -49 120.5 -58.5t40.5 -9.5q47 0 88 41q28 28 91 143z" />
    <glyph glyph-name="increment" unicode="&#x2206;" horiz-adv-x="1253" 
d="M1226 0h-1200l628 1387zM990 82l-399 967l-440 -967h839z" />
    <glyph glyph-name="guillemotleft" unicode="&#xab;" horiz-adv-x="614" 
d="M465 810l-167 -298l28 -343l-84 -12l-89 382l243 314zM642 853l71 -43l-170 -298l29 -343l-84 -12l-89 382z" />
    <glyph glyph-name="guillemotright" unicode="&#xbb;" horiz-adv-x="614" 
d="M458 157l-71 43l169 298l-28 344l84 11l89 -382zM212 157l-71 43l170 298l-28 344l84 11l91 -382z" />
    <glyph glyph-name="ellipsis" unicode="&#x2026;" horiz-adv-x="2048" 
d="M377 218q44 0 72 -28t28 -72q0 -58 -41 -100t-97 -42q-49 0 -76 27t-27 75q0 58 41 99t100 41zM1060 218q44 0 72 -28t28 -72q0 -58 -41 -100t-98 -42q-48 0 -75 27t-27 75q0 58 41 99t100 41zM1743 218q43 0 71 -28t28 -72q0 -58 -40.5 -100t-97.5 -42q-48 0 -75.5 27
t-27.5 75q0 58 41 99t101 41z" />
    <glyph glyph-name="nbspace" unicode="&#xa0;" 
 />
    <glyph glyph-name="Agrave" unicode="&#xc0;" horiz-adv-x="1434" 
d="M922 1395h170l206 -1166q13 -72 28 -98t37.5 -36t88.5 -11l-18 -84h-512l23 84h56q68 0 95 23t27 63q0 22 -7 68l-48 281h-534l-180 -315q-22 -39 -22 -67q0 -25 20.5 -39t86.5 -14h47l-20 -84h-466l20 84q67 2 95 12.5t50.5 33.5t72.5 108zM1052 616l-103 620l-357 -620
h460zM1163 1451l-229 91q-134 54 -134 130q0 37 24 63t58 26q28 0 52 -15q44 -27 115 -97l141 -139z" />
    <glyph glyph-name="Atilde" unicode="&#xc3;" horiz-adv-x="1434" 
d="M922 1395h170l206 -1166q13 -72 28 -98t37.5 -36t88.5 -11l-18 -84h-512l23 84h56q68 0 95 23t27 63q0 22 -7 68l-48 281h-534l-180 -315q-22 -39 -22 -67q0 -25 20.5 -39t86.5 -14h47l-20 -84h-466l20 84q67 2 95 12.5t50.5 33.5t72.5 108zM1052 616l-103 620l-357 -620
h460zM1310 1693h58q-38 -85 -95 -128t-134 -43q-23 0 -41 3q-14 2 -69 17q-88 23 -129 23q-29 0 -51.5 -8t-39.5 -24h-62q33 75 89.5 115t119.5 40q43 0 144 -24q79 -19 101 -19q27 0 54.5 12t54.5 36z" />
    <glyph glyph-name="Otilde" unicode="&#xd5;" horiz-adv-x="1556" 
d="M1064 1419q254 0 418 -154q173 -163 173 -438q0 -226 -116 -425.5t-314 -314.5q-191 -111 -423 -111q-176 0 -305 73t-204.5 204.5t-75.5 300.5q0 229 115.5 431.5t311.5 318t420 115.5zM1070 1313q-170 0 -313.5 -94.5t-239.5 -286.5t-96 -404q0 -134 51 -238.5
t138.5 -157.5t200.5 -53q162 0 305.5 96t240 290.5t96.5 406.5q0 132 -51.5 232.5t-138.5 154.5t-193 54zM1373 1693h58q-38 -85 -95 -128t-134 -43q-23 0 -41 3q-14 2 -69 17q-88 23 -129 23q-29 0 -51.5 -8t-39.5 -24h-62q33 75 89.5 115t119.5 40q43 0 144 -24
q79 -19 101 -19q27 0 54.5 12t54.5 36z" />
    <glyph glyph-name="OE" unicode="&#x152;" horiz-adv-x="2417" 
d="M1604 1395h820l116 -369l-93 -29q-40 113 -93.5 172.5t-118.5 82.5q-85 30 -224 30h-258l-114 -511h169q107 0 157.5 22t86 71.5t54.5 142.5h97l-128 -566h-98q16 77 16 107q0 39 -22.5 70.5t-57.5 44.5t-133 13h-163l-112 -490q-8 -33 -8 -43q0 -20 17 -31q10 -7 61 -7
h223q165 0 268 35t175.5 102.5t166.5 232.5l87 -34l-213 -441l-982 3l37 173q-144 -114 -257.5 -157t-252.5 -43q-184 0 -315.5 72.5t-208 209.5t-76.5 309q0 215 118 418t313.5 318.5t415.5 115.5q156 0 273.5 -58t207.5 -178zM819 78q162 0 309 96.5t240.5 283.5t93.5 402
q0 211 -109.5 332t-281.5 121q-161 0 -303.5 -95.5t-239 -290.5t-96.5 -404q0 -220 126 -342q107 -103 261 -103z" />
    <glyph glyph-name="oe" unicode="&#x153;" horiz-adv-x="1843" 
d="M1780 266l57 -64q-122 -109 -261 -167.5t-268 -58.5t-219 64q-64 45 -115 140q-82 -105 -180.5 -154.5t-221.5 -49.5q-166 0 -268 93q-129 119 -129 298q0 167 79.5 316t208.5 227.5t281 78.5q87 0 156 -26.5t117 -74.5t77 -122q47 59 90 92q81 63 176.5 97t203.5 34
q105 0 171.5 -29t104 -81.5t37.5 -105.5q0 -62 -33.5 -118t-114 -105.5t-227 -81.5t-393.5 -47q-3 -42 -3 -70q0 -74 34 -136t94 -97t129 -35q97 0 212 52q80 35 205 131zM1122 499q593 51 593 264q0 54 -44.5 93t-116.5 39q-135 0 -258 -106t-174 -290zM744 893
q-94 0 -179.5 -61.5t-145.5 -199t-60 -285.5q0 -123 69 -206q59 -70 152 -70q92 0 175.5 62t142.5 198t59 289q0 124 -62.5 198.5t-150.5 74.5z" />
    <glyph glyph-name="endash" unicode="&#x2013;" horiz-adv-x="1024" 
d="M1165 592l-26 -117h-1048l26 117h1048z" />
    <glyph glyph-name="emdash" unicode="&#x2014;" horiz-adv-x="2048" 
d="M2190 592l-28 -117h-2072l28 117h2072z" />
    <glyph glyph-name="quotedblleft" unicode="&#x201c;" horiz-adv-x="901" 
d="M699 1467l45 -72q-95 -53 -157.5 -106.5t-91.5 -98.5q-16 -26 -25 -78q29 5 47 5q41 0 69.5 -30.5t28.5 -80.5t-33 -82.5t-84 -32.5q-62 0 -105.5 47t-43.5 122q0 68 32 134t106.5 133.5t211.5 139.5zM1046 1467l45 -72q-95 -53 -157.5 -106.5t-91.5 -98.5
q-16 -26 -25 -78q28 5 47 5q41 0 69.5 -30.5t28.5 -80.5t-33 -82.5t-85 -32.5q-61 0 -104.5 47t-43.5 122q0 68 32 134t106.5 133.5t211.5 139.5z" />
    <glyph glyph-name="quotedblright" unicode="&#x201d;" horiz-adv-x="901" 
d="M705 891l-45 68q94 53 156.5 107.5t91.5 100.5q17 27 25 79q-28 -5 -47 -5q-41 0 -69 30.5t-28 80.5t33 82.5t84 32.5q62 0 105.5 -47t43.5 -122q0 -67 -32.5 -133.5t-106.5 -134t-211 -139.5zM358 891l-45 68q94 53 156.5 107.5t91.5 100.5q17 27 26 79q-29 -5 -47 -5
q-41 0 -69.5 30.5t-28.5 80.5t33 82.5t84 32.5q62 0 105.5 -47t43.5 -122q0 -67 -32.5 -133.5t-106.5 -134t-211 -139.5z" />
    <glyph glyph-name="quoteleft" unicode="&#x2018;" horiz-adv-x="573" 
d="M721 1467l45 -72q-95 -53 -157.5 -106.5t-91.5 -98.5q-16 -26 -25 -78q29 5 47 5q41 0 69.5 -30.5t28.5 -80.5t-33 -82.5t-84 -32.5q-62 0 -105.5 47t-43.5 122q0 68 32 134t106.5 133.5t211.5 139.5z" />
    <glyph glyph-name="quoteright" unicode="&#x2019;" horiz-adv-x="573" 
d="M400 891l-45 68q94 53 156.5 107.5t91.5 100.5q17 27 26 79q-29 -5 -47 -5q-41 0 -69.5 30.5t-28.5 80.5t33 82.5t84 32.5q62 0 105.5 -47t43.5 -122q0 -67 -32.5 -133.5t-106.5 -134t-211 -139.5z" />
    <glyph glyph-name="divide" unicode="&#xf7;" horiz-adv-x="1124" 
d="M706 1128q41 0 70 -28.5t29 -69.5q0 -42 -30 -72t-71 -30t-70.5 30t-29.5 72q0 41 29.5 69.5t72.5 28.5zM1192 759v-123h-975v123h975zM704 467q41 0 70 -28.5t29 -69.5q0 -43 -29.5 -73t-71.5 -30q-41 0 -70.5 30t-29.5 73q0 41 29.5 69.5t72.5 28.5z" />
    <glyph glyph-name="lozenge" unicode="&#x25ca;" horiz-adv-x="1012" 
d="M549 1422l418 -713l-418 -709h-111l-391 709l391 713h111zM495 1325l-340 -616l340 -615l359 615z" />
    <glyph glyph-name="ydieresis" unicode="&#xff;" horiz-adv-x="1229" 
d="M1097 965h163l-204 -916q-22 -95 -33 -129q-29 -87 -74.5 -155.5t-119 -124t-162.5 -84t-196 -28.5q-160 0 -254.5 65.5t-94.5 137.5q0 31 25 57.5t54 26.5q32 0 62 -20t66 -74q31 -47 63 -65q50 -30 110 -30q93 0 176 51t132 139t81 233l53 225q-65 -102 -140 -167.5
t-155.5 -98t-155.5 -32.5q-112 0 -173.5 59.5t-61.5 131.5q0 53 12 107l123 547h-184l21 86q73 6 130 21.5t157 60.5h75l-161 -715q-12 -56 -12 -88q0 -42 32 -72.5t78 -30.5q71 0 138 39q97 57 172.5 153t135.5 242q46 110 81 266zM753 1370q44 0 72 -28t28 -71
q0 -55 -44 -97.5t-102 -42.5q-44 0 -71 27t-27 74q0 55 43 96.5t101 41.5zM1079 1370q44 0 71.5 -28t27.5 -71q0 -55 -43.5 -97.5t-100.5 -42.5q-44 0 -70.5 27t-26.5 74q0 55 42.5 96.5t99.5 41.5z" />
    <glyph glyph-name="Ydieresis" unicode="&#x178;" horiz-adv-x="1352" 
d="M321 1395h509l-19 -85h-60q-62 0 -81.5 -12.5t-19.5 -40.5q0 -21 17 -63l197 -525l405 516q44 55 44 84q0 21 -18 31t-83 10h-44l18 85h476l-19 -85q-60 1 -87.5 -6.5t-47.5 -22.5q-27 -20 -66 -67l-522 -636l-78 -348q-9 -44 -9 -67q0 -45 32 -65q23 -14 88 -14h43
l-18 -84h-550l19 84q95 1 113 5q40 10 64.5 41t42.5 113l68 298l-264 653q-30 74 -39 84q-14 17 -35.5 24.5t-96.5 7.5zM875 1726q44 0 72 -28t28 -71q0 -55 -44 -97.5t-102 -42.5q-44 0 -71 27t-27 74q0 55 43 96.5t101 41.5zM1201 1726q44 0 71.5 -28t27.5 -71
q0 -55 -43.5 -97.5t-100.5 -42.5q-44 0 -70.5 27t-26.5 74q0 55 42.5 96.5t99.5 41.5z" />
    <glyph glyph-name="fraction" unicode="&#x2044;" horiz-adv-x="41" 
d="M835 1419l-1205 -1431h-107l1205 1431h107z" />
    <glyph glyph-name="fraction" unicode="&#x2215;" horiz-adv-x="41" 
d="M835 1419l-1205 -1431h-107l1205 1431h107z" />
    <glyph glyph-name="Euro" unicode="&#x20ac;" 
d="M525 842h612l-14 -97h-621q-2 -6 -5 -27l-9 -63v-6h624l-14 -96h-614q8 -221 89.5 -340t213.5 -119q236 0 458 297l62 -57q-255 -359 -569 -359q-210 0 -336 157t-127 421h-127l14 96h117v6q0 48 12 90h-143l14 97h152q86 268 266.5 422.5t388.5 154.5q177 0 266 -108
l47 84h76l10 -441l-94 -8q-61 363 -291 363q-147 0 -267.5 -120.5t-190.5 -346.5z" />
    <glyph glyph-name="guilsinglleft" unicode="&#x2039;" horiz-adv-x="369" 
d="M396 853l71 -43l-169 -298l28 -343l-84 -12l-89 382z" />
    <glyph glyph-name="guilsinglright" unicode="&#x203a;" horiz-adv-x="369" 
d="M212 157l-71 43l170 298l-28 344l84 11l88 -382z" />
    <glyph glyph-name="fi" unicode="&#xf001;" horiz-adv-x="1311" 
d="M283 965h184l28 111q29 117 67 180t101 112.5t139 74t176 24.5q108 0 182 -31.5t115 -84t41 -98.5q0 -37 -25 -63t-60 -26q-64 0 -107 107q-17 43 -35.5 62t-52 30.5t-76.5 11.5q-86 0 -152 -40t-102 -107q-25 -47 -47 -143l-29 -120h479q56 0 79 5q17 4 34 15h76
l-168 -751q-12 -54 -12 -80q0 -34 17 -53t43 -19q70 0 183 128l65 -55q-85 -98 -155.5 -135t-143.5 -37q-49 0 -88.5 20.5t-60.5 57.5t-21 81q0 41 14 105l138 620h-502l-184 -817q-30 -130 -47 -183q-40 -122 -92.5 -191t-130.5 -108.5t-162 -39.5t-134 39t-50 89
q0 32 24 55t57 23q38 0 84 -42q35 -33 52 -41.5t35 -8.5q36 0 70.5 25t59.5 80.5t55 191.5l202 928h-184z" />
    <glyph glyph-name="fi" unicode="&#xfb01;" horiz-adv-x="1311" 
d="M283 965h184l28 111q29 117 67 180t101 112.5t139 74t176 24.5q108 0 182 -31.5t115 -84t41 -98.5q0 -37 -25 -63t-60 -26q-64 0 -107 107q-17 43 -35.5 62t-52 30.5t-76.5 11.5q-86 0 -152 -40t-102 -107q-25 -47 -47 -143l-29 -120h479q56 0 79 5q17 4 34 15h76
l-168 -751q-12 -54 -12 -80q0 -34 17 -53t43 -19q70 0 183 128l65 -55q-85 -98 -155.5 -135t-143.5 -37q-49 0 -88.5 20.5t-60.5 57.5t-21 81q0 41 14 105l138 620h-502l-184 -817q-30 -130 -47 -183q-40 -122 -92.5 -191t-130.5 -108.5t-162 -39.5t-134 39t-50 89
q0 32 24 55t57 23q38 0 84 -42q35 -33 52 -41.5t35 -8.5q36 0 70.5 25t59.5 80.5t55 191.5l202 928h-184z" />
    <glyph glyph-name="fl" unicode="&#xf002;" horiz-adv-x="1352" 
d="M1438 1467l-274 -1210q-17 -76 -17 -107q0 -33 17.5 -52t45.5 -19t61 22q51 32 118 106l65 -55q-145 -176 -290 -176q-86 0 -132.5 48t-46.5 115q0 45 16 111l235 1042q-28 -7 -42 -7q-19 0 -36 6q-9 3 -60 34q-57 35 -72 39q-32 10 -76 10q-79 0 -147.5 -45.5
t-102.5 -115.5q-23 -45 -50 -163l-21 -85h284l-22 -105h-284l-195 -860q-26 -114 -76.5 -228t-142 -179t-197.5 -65q-87 0 -138.5 39.5t-51.5 87.5q0 31 24 55.5t53 24.5q41 0 87 -43q36 -34 53 -42t36 -8q35 0 61 18q36 26 58 72q38 79 55 160l213 968h-186l23 105h185
l17 76q37 159 97 243.5t157.5 133.5t209.5 49q71 0 156 -13q92 -15 138 -15q47 0 118 28h77z" />
    <glyph glyph-name="fl" unicode="&#xfb02;" horiz-adv-x="1352" 
d="M1438 1467l-274 -1210q-17 -76 -17 -107q0 -33 17.5 -52t45.5 -19t61 22q51 32 118 106l65 -55q-145 -176 -290 -176q-86 0 -132.5 48t-46.5 115q0 45 16 111l235 1042q-28 -7 -42 -7q-19 0 -36 6q-9 3 -60 34q-57 35 -72 39q-32 10 -76 10q-79 0 -147.5 -45.5
t-102.5 -115.5q-23 -45 -50 -163l-21 -85h284l-22 -105h-284l-195 -860q-26 -114 -76.5 -228t-142 -179t-197.5 -65q-87 0 -138.5 39.5t-51.5 87.5q0 31 24 55.5t53 24.5q41 0 87 -43q36 -34 53 -42t36 -8q35 0 61 18q36 26 58 72q38 79 55 160l213 968h-186l23 105h185
l17 76q37 159 97 243.5t157.5 133.5t209.5 49q71 0 156 -13q92 -15 138 -15q47 0 118 28h77z" />
    <glyph glyph-name="daggerdbl" unicode="&#x2021;" 
d="M614 549q106 106 184 260q-47 -12 -106 -29q-101 -28 -131 -33.5t-57 -5.5q-33 0 -51 17t-18 46q0 50 30 88.5t81 38.5q55 0 195 -45l68 -21q7 103 7 180q0 50 -5 123q-3 57 -3 73q0 85 26 120q44 58 123 58q51 0 83 -23t32 -50q0 -20 -8 -40q-16 -41 -84 -171
q-74 -143 -122 -270q72 17 164 42q90 24 116 24q38 0 59 -16q16 -13 16 -42q0 -52 -32 -93t-80 -41q-32 0 -123 29q-53 17 -134 41q1 -79 19 -156q13 -53 41 -104q-53 -52 -90 -109q-57 -86 -99 -179l153 41q105 29 136 29q30 0 47.5 -17.5t17.5 -48.5q0 -36 -15 -67
t-37 -43q-28 -16 -64 -16q-26 0 -105 24q-92 29 -144 43q-5 -47 -6 -88q-5 -176 -5 -222q0 -19 1 -38q2 -48 2 -83q0 -58 -15 -84.5t-54.5 -47t-85.5 -20.5q-50 0 -75.5 21.5t-25.5 53.5q0 22 10.5 50.5t112.5 245.5q51 108 92 212l-79 -22q-163 -45 -218 -45
q-31 0 -47.5 16t-16.5 50q0 55 32.5 89.5t79.5 34.5q29 0 56 -5.5t114 -33.5l94 -29q-2 83 -19 173q-12 61 -37 115z" />
    <glyph glyph-name="periodcentered" unicode="&#x2219;" horiz-adv-x="614" 
d="M493 818q44 0 72 -28t28 -72q0 -58 -41 -100t-97 -42q-49 0 -76 27t-27 75q0 58 41 99t100 41z" />
    <glyph glyph-name="quotesinglbase" unicode="&#x201a;" horiz-adv-x="655" 
d="M143 -350l-45 68q94 52 156.5 105.5t91.5 98.5q17 26 26 78q-29 -5 -47 -5q-41 0 -69.5 31t-28.5 82q0 52 33 85t84 33q62 0 105.5 -47t43.5 -122q0 -67 -32.5 -133.5t-106.5 -134t-211 -139.5z" />
    <glyph glyph-name="quotedblbase" unicode="&#x201e;" horiz-adv-x="983" 
d="M440 -350l-45 68q94 52 156.5 105.5t91.5 98.5q17 26 25 78q-28 -5 -47 -5q-40 0 -68.5 31t-28.5 82q0 52 33 85t84 33q62 0 105.5 -47t43.5 -122q0 -67 -32.5 -133.5t-106.5 -134t-211 -139.5zM93 -350l-45 68q94 52 156.5 105.5t91.5 98.5q17 26 26 78q-29 -5 -47 -5
q-41 0 -69.5 31t-28.5 82q0 52 33 85t84 33q62 0 105.5 -47t43.5 -122q0 -67 -32.5 -133.5t-106.5 -134t-211 -139.5z" />
    <glyph glyph-name="perthousand" unicode="&#x2030;" horiz-adv-x="2417" 
d="M689 1419q108 0 180.5 -66t72.5 -185q0 -132 -64 -254.5t-158 -184t-204 -61.5q-115 0 -184.5 70t-69.5 184q0 132 61 251t161 182.5t205 63.5zM683 1351q-68 0 -130.5 -49t-114 -172t-51.5 -237q0 -73 38 -116.5t98 -43.5q66 0 129 50.5t112 169.5t49 242
q0 75 -35.5 115.5t-94.5 40.5zM1636 1419l-1205 -1431h-107l1205 1431h107zM1439 738q108 0 180.5 -65.5t72.5 -185.5q0 -131 -63.5 -254t-158 -184t-204.5 -61q-115 0 -184.5 69.5t-69.5 183.5q0 133 61.5 252t161 182t204.5 63zM1434 671q-69 0 -131 -49t-114 -172.5
t-52 -237.5q0 -73 38 -116.5t99 -43.5q65 0 128 51t112 169.5t49 241.5q0 75 -35.5 116t-93.5 41zM2217 738q108 0 181 -65.5t73 -185.5q0 -131 -64 -254t-158.5 -184t-204.5 -61q-114 0 -183.5 69.5t-69.5 183.5q0 133 61 252t160.5 182t204.5 63zM2212 671
q-68 0 -130.5 -49t-114.5 -172.5t-52 -237.5q0 -73 38.5 -116.5t98.5 -43.5q66 0 128.5 51t112 169.5t49.5 241.5q0 75 -36 116t-94 41z" />
    <glyph glyph-name="Acircumflex" unicode="&#xc2;" horiz-adv-x="1434" 
d="M922 1395h170l206 -1166q13 -72 28 -98t37.5 -36t88.5 -11l-18 -84h-512l23 84h56q68 0 95 23t27 63q0 22 -7 68l-48 281h-534l-180 -315q-22 -39 -22 -67q0 -25 20.5 -39t86.5 -14h47l-20 -84h-466l20 84q67 2 95 12.5t50.5 33.5t72.5 108zM1052 616l-103 620l-357 -620
h460zM747 1546l332 176l274 -176l-50 -52l-246 93l-266 -93z" />
    <glyph glyph-name="Ecircumflex" unicode="&#xca;" horiz-adv-x="1393" 
d="M395 1395h1006l115 -369l-92 -29q-41 113 -94.5 172.5t-117.5 82.5q-85 30 -225 30h-257l-115 -511h169q107 0 158 22t86.5 71.5t54.5 142.5h96l-128 -566h-97q15 77 15 107q0 39 -22 70.5t-57.5 44.5t-132.5 13h-163l-113 -490q-7 -33 -7 -43q0 -20 16 -31q11 -7 62 -7
h223q164 0 267.5 35t176 102.5t165.5 232.5l87 -34l-212 -441h-1179l19 84q102 1 131 10.5t45 32.5q26 36 41 104l210 927q12 51 12 71q0 46 -30 63.5t-100 17.5h-31zM726 1546l332 176l274 -176l-50 -52l-246 93l-266 -93z" />
    <glyph glyph-name="Aacute" unicode="&#xc1;" horiz-adv-x="1434" 
d="M922 1395h170l206 -1166q13 -72 28 -98t37.5 -36t88.5 -11l-18 -84h-512l23 84h56q68 0 95 23t27 63q0 22 -7 68l-48 281h-534l-180 -315q-22 -39 -22 -67q0 -25 20.5 -39t86.5 -14h47l-20 -84h-466l20 84q67 2 95 12.5t50.5 33.5t72.5 108zM1052 616l-103 620l-357 -620
h460zM943 1451l-25 59l142 139q71 70 116 97q24 15 54 15q33 0 56.5 -26t23.5 -61q0 -36 -28.5 -68t-107.5 -64z" />
    <glyph glyph-name="Edieresis" unicode="&#xcb;" horiz-adv-x="1393" 
d="M395 1395h1006l115 -369l-92 -29q-41 113 -94.5 172.5t-117.5 82.5q-85 30 -225 30h-257l-115 -511h169q107 0 158 22t86.5 71.5t54.5 142.5h96l-128 -566h-97q15 77 15 107q0 39 -22 70.5t-57.5 44.5t-132.5 13h-163l-113 -490q-7 -33 -7 -43q0 -20 16 -31q11 -7 62 -7
h223q164 0 267.5 35t176 102.5t165.5 232.5l87 -34l-212 -441h-1179l19 84q102 1 131 10.5t45 32.5q26 36 41 104l210 927q12 51 12 71q0 46 -30 63.5t-100 17.5h-31zM895 1726q44 0 72 -28t28 -71q0 -55 -44 -97.5t-102 -42.5q-44 0 -71 27t-27 74q0 55 43 96.5t101 41.5z
M1221 1726q44 0 71.5 -28t27.5 -71q0 -55 -43.5 -97.5t-100.5 -42.5q-44 0 -70.5 27t-26.5 74q0 55 42.5 96.5t99.5 41.5z" />
    <glyph glyph-name="Egrave" unicode="&#xc8;" horiz-adv-x="1393" 
d="M395 1395h1006l115 -369l-92 -29q-41 113 -94.5 172.5t-117.5 82.5q-85 30 -225 30h-257l-115 -511h169q107 0 158 22t86.5 71.5t54.5 142.5h96l-128 -566h-97q15 77 15 107q0 39 -22 70.5t-57.5 44.5t-132.5 13h-163l-113 -490q-7 -33 -7 -43q0 -20 16 -31q11 -7 62 -7
h223q164 0 267.5 35t176 102.5t165.5 232.5l87 -34l-212 -441h-1179l19 84q102 1 131 10.5t45 32.5q26 36 41 104l210 927q12 51 12 71q0 46 -30 63.5t-100 17.5h-31zM1103 1451l-229 91q-134 54 -134 130q0 37 24 63t58 26q28 0 52 -15q44 -27 115 -97l141 -139z" />
    <glyph glyph-name="Iacute" unicode="&#xcd;" horiz-adv-x="655" 
d="M367 1395h551l-19 -85h-32q-75 0 -105 -12.5t-48.5 -40t-36.5 -104.5l-206 -907q-14 -64 -14 -87q0 -38 32 -60q22 -15 86 -15h47l-21 -84h-550l19 84h40q67 0 97.5 13.5t48 39t34.5 97.5l211 929q11 48 11 70q0 27 -12 44.5t-34 25t-81 7.5h-35zM493 1451l-25 59
l142 139q71 70 116 97q24 15 54 15q33 0 56.5 -26t23.5 -61q0 -36 -28.5 -68t-107.5 -64z" />
    <glyph glyph-name="Icircumflex" unicode="&#xce;" horiz-adv-x="655" 
d="M367 1395h551l-19 -85h-32q-75 0 -105 -12.5t-48.5 -40t-36.5 -104.5l-206 -907q-14 -64 -14 -87q0 -38 32 -60q22 -15 86 -15h47l-21 -84h-550l19 84h40q67 0 97.5 13.5t48 39t34.5 97.5l211 929q11 48 11 70q0 27 -12 44.5t-34 25t-81 7.5h-35zM358 1546l332 176
l274 -176l-50 -52l-246 93l-266 -93z" />
    <glyph glyph-name="Idieresis" unicode="&#xcf;" horiz-adv-x="655" 
d="M367 1395h551l-19 -85h-32q-75 0 -105 -12.5t-48.5 -40t-36.5 -104.5l-206 -907q-14 -64 -14 -87q0 -38 32 -60q22 -15 86 -15h47l-21 -84h-550l19 84h40q67 0 97.5 13.5t48 39t34.5 97.5l211 929q11 48 11 70q0 27 -12 44.5t-34 25t-81 7.5h-35zM527 1726q44 0 72 -28
t28 -71q0 -55 -44 -97.5t-102 -42.5q-44 0 -71 27t-27 74q0 55 43 96.5t101 41.5zM853 1726q44 0 71.5 -28t27.5 -71q0 -55 -43.5 -97.5t-100.5 -42.5q-44 0 -70.5 27t-26.5 74q0 55 42.5 96.5t99.5 41.5z" />
    <glyph glyph-name="Igrave" unicode="&#xcc;" horiz-adv-x="655" 
d="M367 1395h551l-19 -85h-32q-75 0 -105 -12.5t-48.5 -40t-36.5 -104.5l-206 -907q-14 -64 -14 -87q0 -38 32 -60q22 -15 86 -15h47l-21 -84h-550l19 84h40q67 0 97.5 13.5t48 39t34.5 97.5l211 929q11 48 11 70q0 27 -12 44.5t-34 25t-81 7.5h-35zM835 1451l-229 91
q-134 54 -134 130q0 37 24 63t58 26q28 0 52 -15q44 -27 115 -97l141 -139z" />
    <glyph glyph-name="Oacute" unicode="&#xd3;" horiz-adv-x="1556" 
d="M1064 1419q254 0 418 -154q173 -163 173 -438q0 -226 -116 -425.5t-314 -314.5q-191 -111 -423 -111q-176 0 -305 73t-204.5 204.5t-75.5 300.5q0 229 115.5 431.5t311.5 318t420 115.5zM1070 1313q-170 0 -313.5 -94.5t-239.5 -286.5t-96 -404q0 -134 51 -238.5
t138.5 -157.5t200.5 -53q162 0 305.5 96t240 290.5t96.5 406.5q0 132 -51.5 232.5t-138.5 154.5t-193 54zM945 1451l-25 59l142 139q71 70 116 97q24 15 54 15q33 0 56.5 -26t23.5 -61q0 -36 -28.5 -68t-107.5 -64z" />
    <glyph glyph-name="Ocircumflex" unicode="&#xd4;" horiz-adv-x="1556" 
d="M1064 1419q254 0 418 -154q173 -163 173 -438q0 -226 -116 -425.5t-314 -314.5q-191 -111 -423 -111q-176 0 -305 73t-204.5 204.5t-75.5 300.5q0 229 115.5 431.5t311.5 318t420 115.5zM1070 1313q-170 0 -313.5 -94.5t-239.5 -286.5t-96 -404q0 -134 51 -238.5
t138.5 -157.5t200.5 -53q162 0 305.5 96t240 290.5t96.5 406.5q0 132 -51.5 232.5t-138.5 154.5t-193 54zM809 1546l332 176l274 -176l-50 -52l-246 93l-266 -93z" />
    <glyph glyph-name="apple" unicode="&#xf000;" horiz-adv-x="1617" 
 />
    <glyph glyph-name="Ograve" unicode="&#xd2;" horiz-adv-x="1556" 
d="M1064 1419q254 0 418 -154q173 -163 173 -438q0 -226 -116 -425.5t-314 -314.5q-191 -111 -423 -111q-176 0 -305 73t-204.5 204.5t-75.5 300.5q0 229 115.5 431.5t311.5 318t420 115.5zM1070 1313q-170 0 -313.5 -94.5t-239.5 -286.5t-96 -404q0 -134 51 -238.5
t138.5 -157.5t200.5 -53q162 0 305.5 96t240 290.5t96.5 406.5q0 132 -51.5 232.5t-138.5 154.5t-193 54zM1286 1451l-229 91q-134 54 -134 130q0 37 24 63t58 26q28 0 52 -15q44 -27 115 -97l141 -139z" />
    <glyph glyph-name="Uacute" unicode="&#xda;" horiz-adv-x="1475" 
d="M334 1395h548l-17 -85h-47q-64 0 -90.5 -11.5t-46 -40.5t-34.5 -92l-153 -674q-16 -70 -16 -125q0 -75 38.5 -137t115.5 -99t174 -37q123 0 225.5 58t156 156.5t82.5 226.5l146 631q12 52 12 74q0 23 -13 40.5t-34 24.5q-16 5 -79 5h-38l18 85h488l-18 -85h-48
q-62 0 -90.5 -12.5t-47.5 -40t-33 -91.5l-154 -674q-23 -101 -48 -157q-47 -110 -132 -193.5t-193 -124.5t-240 -41q-223 0 -345 114.5t-122 249.5q0 80 18 158l150 659q11 50 11 76q0 25 -13 44.5t-33 26t-84 6.5h-31zM923 1451l-25 59l142 139q71 70 116 97q24 15 54 15
q33 0 56.5 -26t23.5 -61q0 -36 -28.5 -68t-107.5 -64z" />
    <glyph glyph-name="Ucircumflex" unicode="&#xdb;" horiz-adv-x="1475" 
d="M334 1395h548l-17 -85h-47q-64 0 -90.5 -11.5t-46 -40.5t-34.5 -92l-153 -674q-16 -70 -16 -125q0 -75 38.5 -137t115.5 -99t174 -37q123 0 225.5 58t156 156.5t82.5 226.5l146 631q12 52 12 74q0 23 -13 40.5t-34 24.5q-16 5 -79 5h-38l18 85h488l-18 -85h-48
q-62 0 -90.5 -12.5t-47.5 -40t-33 -91.5l-154 -674q-23 -101 -48 -157q-47 -110 -132 -193.5t-193 -124.5t-240 -41q-223 0 -345 114.5t-122 249.5q0 80 18 158l150 659q11 50 11 76q0 25 -13 44.5t-33 26t-84 6.5h-31zM767 1546l332 176l274 -176l-50 -52l-246 93l-266 -93
z" />
    <glyph glyph-name="Ugrave" unicode="&#xd9;" horiz-adv-x="1475" 
d="M334 1395h548l-17 -85h-47q-64 0 -90.5 -11.5t-46 -40.5t-34.5 -92l-153 -674q-16 -70 -16 -125q0 -75 38.5 -137t115.5 -99t174 -37q123 0 225.5 58t156 156.5t82.5 226.5l146 631q12 52 12 74q0 23 -13 40.5t-34 24.5q-16 5 -79 5h-38l18 85h488l-18 -85h-48
q-62 0 -90.5 -12.5t-47.5 -40t-33 -91.5l-154 -674q-23 -101 -48 -157q-47 -110 -132 -193.5t-193 -124.5t-240 -41q-223 0 -345 114.5t-122 249.5q0 80 18 158l150 659q11 50 11 76q0 25 -13 44.5t-33 26t-84 6.5h-31zM1244 1451l-229 91q-134 54 -134 130q0 37 24 63
t58 26q28 0 52 -15q44 -27 115 -97l141 -139z" />
    <glyph glyph-name="dotlessi" unicode="&#x131;" horiz-adv-x="573" 
d="M589 989l-194 -767q-12 -47 -12 -74q0 -32 17 -50.5t45 -18.5q33 0 63 20q47 30 119 109l64 -56q-61 -80 -140.5 -124.5t-150.5 -44.5q-77 0 -128 47.5t-51 110.5q0 44 17 111l144 574h-183l18 83q76 4 139.5 21t154.5 59h78z" />
    <glyph glyph-name="circumflex" unicode="&#x2c6;" horiz-adv-x="901" 
d="M421 1189l332 176l274 -176l-50 -52l-246 93l-266 -93z" />
    <glyph glyph-name="tilde" unicode="&#x2dc;" horiz-adv-x="901" 
d="M984 1336h58q-38 -85 -95 -128t-134 -43q-23 0 -41 3q-14 2 -69 17q-88 23 -129 23q-29 0 -51.5 -8t-39.5 -24h-62q33 75 89.5 115t119.5 40q43 0 144 -24q79 -19 101 -19q27 0 54.5 12t54.5 36z" />
    <glyph glyph-name="macron" unicode="&#x2c9;" horiz-adv-x="901" 
d="M487 1310h549l-65 -120h-544z" />
    <glyph glyph-name="breve" unicode="&#x2d8;" horiz-adv-x="901" 
d="M433 1330l49 23q114 -71 262 -71q154 0 265 71l45 -23q-57 -92 -136 -137.5t-173 -45.5q-91 0 -169.5 40.5t-142.5 142.5z" />
    <glyph glyph-name="dotaccent" unicode="&#x2d9;" horiz-adv-x="532" 
d="M539 1370q44 0 72 -28t28 -71q0 -55 -44 -97.5t-102 -42.5q-44 0 -71 27t-27 74q0 55 43 96.5t101 41.5z" />
    <glyph glyph-name="ring" unicode="&#x2da;" horiz-adv-x="614" 
d="M616 1407q58 0 93 -36t35 -93q0 -72 -56.5 -128t-131.5 -56q-55 0 -89 35.5t-34 94.5q0 75 53 129t130 54zM604 1342q-36 0 -64.5 -31.5t-28.5 -75.5q0 -37 16 -56.5t43 -19.5q37 0 67 33t30 77q0 33 -17.5 53t-45.5 20z" />
    <glyph glyph-name="cedilla" unicode="&#xb8;" horiz-adv-x="655" 
d="M232 0l-29 -75q12 0 33 1h11q38 0 77 -18t54 -42t15 -57q0 -67 -62 -117t-159 -50q-80 0 -133 35q-37 23 -37 62q0 25 15.5 41.5t35.5 16.5q26 0 37 -9t15 -36q4 -26 20 -39q22 -16 53 -16q44 0 76.5 29.5t32.5 67.5q0 35 -28 58t-77 23q-40 0 -86 -12l60 137h76z" />
    <glyph glyph-name="hungarumlaut" unicode="&#x2dd;" horiz-adv-x="696" 
d="M425 1086l-46 33l46 173q33 121 54.5 148t53.5 27q33 0 57 -24t24 -58q0 -46 -55 -119zM664 1086l-46 33l46 173q32 121 54 148t55 27q32 0 56.5 -24t24.5 -58q0 -45 -56 -119z" />
    <glyph glyph-name="ogonek" unicode="&#x2db;" horiz-adv-x="532" 
d="M187 0h89q-18 -15 -54 -44q-50 -39 -66 -58q-22 -27 -32 -53t-10 -47q0 -30 25.5 -54.5t58.5 -24.5q21 0 62 15l-13 -74q-37 -6 -59 -6q-78 0 -129.5 45t-51.5 107q0 55 43 102q27 30 137 92z" />
    <glyph glyph-name="caron" unicode="&#x2c7;" horiz-adv-x="901" 
d="M1028 1310l-333 -174l-274 174l51 54l245 -94l267 94z" />
    <glyph glyph-name="Lslash" unicode="&#x141;" horiz-adv-x="1188" 
d="M624 827l246 125l-30 -125l-244 -124l-116 -515q-9 -38 -9 -45q0 -19 14 -28.5t59 -9.5h85q139 0 239.5 37.5t174.5 107.5t160 225l87 -38l-213 -437h-1000l18 84h43q68 0 92 11q31 15 50.5 43.5t36.5 100.5l82 364l-211 -107l30 125l209 106l96 426q11 48 11 83
q0 26 -11.5 42.5t-32.5 24t-77 7.5h-40l19 85h546l-18 -85h-43q-71 0 -98.5 -12t-46 -42t-37.5 -115z" />
    <glyph glyph-name="lslash" unicode="&#x142;" horiz-adv-x="696" 
d="M572 742l-113 -500q-16 -68 -16 -90q0 -34 17.5 -52.5t45.5 -18.5q36 0 65 19q46 30 115 109l65 -55q-142 -171 -291 -171q-81 0 -129 45t-48 113q0 45 11 94l77 338l-201 -168l33 141l199 167l9 38l123 547h-184l17 85q103 16 164 34t127 50h77l-132 -585l200 167
l-31 -139z" />
    <glyph glyph-name="Scaron" unicode="&#x160;" horiz-adv-x="1311" 
d="M1348 1395h73l8 -442h-98q-38 149 -154 252.5t-290 103.5q-97 0 -174.5 -35t-117.5 -91.5t-40 -111.5q0 -48 25.5 -89.5t86.5 -79.5t213 -91q222 -78 303.5 -131t121.5 -122t40 -148q0 -108 -69.5 -211t-193.5 -163t-290 -60q-132 0 -231 37t-206 130l-84 -143h-66
l22 511h94q37 -201 163.5 -313.5t306.5 -112.5q166 0 282 92q95 76 95 187q0 67 -37.5 118t-130.5 97q-52 25 -251 95q-187 67 -259 138q-100 101 -100 227q0 93 61.5 181t180.5 143.5t267 55.5q111 0 201.5 -31.5t180.5 -101.5zM1293 1666l-333 -174l-274 174l51 54
l245 -94l267 94z" />
    <glyph glyph-name="scaron" unicode="&#x161;" horiz-adv-x="1106" 
d="M631 604l177 -61q28 -10 98 -43.5t99 -59.5q37 -33 58.5 -79t21.5 -93q0 -73 -49.5 -142t-145 -109.5t-235.5 -40.5q-152 0 -273 44.5t-176 107t-55 113.5q0 34 23.5 57t59.5 23q22 0 40.5 -8t37.5 -28q13 -14 42 -64q26 -44 34 -53q23 -27 62 -52t87.5 -37.5
t113.5 -12.5q94 0 156.5 23.5t93 62.5t30.5 79q0 56 -56 101q-56 44 -163 76q-9 3 -19 7l-140 49q-128 45 -184 111q-57 65 -57 143q0 68 46 132t135.5 101.5t221.5 37.5q202 0 332 -81q97 -61 97 -138q0 -34 -23 -58t-57 -24q-32 0 -61 23q-20 16 -59 71q-40 57 -97.5 85
t-141.5 28q-114 0 -176.5 -44t-62.5 -99q0 -44 34 -79.5t131 -68.5zM1130 1310l-333 -174l-274 174l51 54l245 -94l267 94z" />
    <glyph glyph-name="Zcaron" unicode="&#x17d;" horiz-adv-x="1188" 
d="M453 1395h954l-20 -85l-1074 -1202h202q196 0 302.5 33.5t194.5 107.5t190 234l84 -47l-244 -436h-998l18 84l1074 1199h-232q-160 0 -253.5 -29t-163.5 -88.5t-161 -200.5l-85 48zM1232 1666l-333 -174l-274 174l51 54l245 -94l267 94z" />
    <glyph glyph-name="zcaron" unicode="&#x17e;" horiz-adv-x="1065" 
d="M1188 965l-21 -91l-824 -771q31 4 41 4q35 0 221 -31q97 -16 145 -16q50 0 95 21.5t64 49.5t25 89q6 62 33.5 93t61.5 31q38 0 65 -27t27 -66q0 -68 -44.5 -134t-123 -103.5t-183.5 -37.5q-45 0 -92 4q-28 3 -134 19q-114 18 -150 21q-52 5 -105 5q-111 0 -218 -31l19 90
l831 773q-36 -5 -56 -5q-33 0 -188 27q-73 13 -121 13q-59 0 -98 -31q-39 -32 -57 -100q-14 -54 -30 -73q-24 -28 -66 -28q-40 0 -64.5 26t-24.5 73q0 86 85 158t219 72q49 0 98 -5q28 -3 136 -23q107 -20 135 -23q43 -5 87 -5q98 0 212 32zM1111 1310l-333 -174l-274 174
l51 54l245 -94l267 94z" />
    <glyph glyph-name="brokenbar" unicode="&#xa6;" horiz-adv-x="1229" 
d="M685 1467h146v-834l-146 -82v916zM685 362l146 82v-916h-146v834z" />
    <glyph glyph-name="Eth" unicode="&#xd0;" horiz-adv-x="1515" 
d="M413 647h-183l21 97h184l94 417q12 50 12 71q0 26 -13 45.5t-31.5 26t-78.5 6.5h-38l19 85h559q237 0 379 -67q122 -57 200 -188t78 -297q0 -136 -46.5 -274t-130 -251t-182 -179.5t-228.5 -97.5q-169 -41 -364 -41h-582l19 84q96 1 111 4q23 5 42 20q26 21 39.5 46.5
t29.5 98.5zM591 647l-103 -453q-8 -35 -8 -49q0 -20 15 -29t68 -9h81q76 0 178.5 10t154.5 27q78 26 154.5 88t143.5 164t103 220t36 242q0 137 -58 232.5t-159 144t-286 48.5h-175l-123 -539h431l-21 -97h-432z" />
    <glyph glyph-name="eth" unicode="&#xf0;" horiz-adv-x="1106" 
d="M1243 1443l20 -82l-266 -69q81 -150 120.5 -300.5t39.5 -288.5q0 -210 -83.5 -384.5t-214 -258.5t-293.5 -84q-180 0 -285 116t-105 280t77 310.5t206 226.5t264 80q52 0 103.5 -17t88.5 -44.5t66 -73.5q0 101 -19 194.5t-68 217.5l-293 -77l-22 84l275 70
q-38 63 -84 124h107q39 -45 72 -99zM728 894q-80 0 -165 -63t-144.5 -199t-59.5 -278q0 -83 31.5 -151.5t79.5 -100.5t110 -32q92 0 175 61.5t143 200t60 287.5q0 83 -31 148t-81.5 96t-117.5 31z" />
    <glyph glyph-name="Yacute" unicode="&#xdd;" horiz-adv-x="1352" 
d="M321 1395h509l-19 -85h-60q-62 0 -81.5 -12.5t-19.5 -40.5q0 -21 17 -63l197 -525l405 516q44 55 44 84q0 21 -18 31t-83 10h-44l18 85h476l-19 -85q-60 1 -87.5 -6.5t-47.5 -22.5q-27 -20 -66 -67l-522 -636l-78 -348q-9 -44 -9 -67q0 -45 32 -65q23 -14 88 -14h43
l-18 -84h-550l19 84q95 1 113 5q40 10 64.5 41t42.5 113l68 298l-264 653q-30 74 -39 84q-14 17 -35.5 24.5t-96.5 7.5zM842 1451l-25 59l142 139q71 70 116 97q24 15 54 15q33 0 56.5 -26t23.5 -61q0 -36 -28.5 -68t-107.5 -64z" />
    <glyph glyph-name="yacute" unicode="&#xfd;" horiz-adv-x="1229" 
d="M1097 965h163l-204 -916q-22 -95 -33 -129q-29 -87 -74.5 -155.5t-119 -124t-162.5 -84t-196 -28.5q-160 0 -254.5 65.5t-94.5 137.5q0 31 25 57.5t54 26.5q32 0 62 -20t66 -74q31 -47 63 -65q50 -30 110 -30q93 0 176 51t132 139t81 233l53 225q-65 -102 -140 -167.5
t-155.5 -98t-155.5 -32.5q-112 0 -173.5 59.5t-61.5 131.5q0 53 12 107l123 547h-184l21 86q73 6 130 21.5t157 60.5h75l-161 -715q-12 -56 -12 -88q0 -42 32 -72.5t78 -30.5q71 0 138 39q97 57 172.5 153t135.5 242q46 110 81 266zM740 1095l-25 59l142 139q71 70 116 97
q24 15 54 15q33 0 56.5 -26t23.5 -61q0 -36 -28.5 -68t-107.5 -64z" />
    <glyph glyph-name="Thorn" unicode="&#xde;" horiz-adv-x="1229" 
d="M940 1395l-19 -85h-43q-84 0 -118 -27.5t-55 -114.5l-16 -71h225q173 0 262 -39t139.5 -116.5t50.5 -180.5q0 -130 -76 -243.5t-207 -170.5q-115 -50 -372 -50h-205l-16 -67q-10 -42 -10 -70q0 -24 13 -42t34 -26t78 -8h38l-18 -84h-549l19 84h43q85 0 119.5 29t54.5 117
l209 924q13 56 13 75q0 30 -15 50.5t-37 26.5q-17 4 -110 4l21 85h547zM663 986l-134 -584h151q185 0 250 20q102 31 170 122.5t68 210.5q0 86 -43.5 141.5t-113.5 76.5q-46 13 -177 13h-171z" />
    <glyph glyph-name="thorn" unicode="&#xfe;" horiz-adv-x="1229" 
d="M705 1467l-190 -798q74 117 149.5 185t154.5 101.5t157 33.5q130 0 214.5 -91t84.5 -243q0 -181 -85 -345.5t-218 -249t-285 -84.5q-172 0 -288 108l-70 -295q-12 -52 -12 -76t12.5 -40.5t38 -25.5t76.5 -9h62l-18 -84h-560l19 84q72 -1 100 5q38 8 60 25.5t38 51.5
q10 22 25 84l345 1497h-186l20 82q141 11 282 84h74zM417 177q55 -51 119 -77.5t121 -26.5q96 0 194.5 70.5t169 220t70.5 298.5q0 97 -47 153.5t-117 56.5q-63 0 -129.5 -35t-148.5 -130.5t-140 -223t-92 -306.5z" />
    <glyph glyph-name="minus" unicode="&#x2212;" horiz-adv-x="1229" 
d="M1244 759v-123h-975v123h975z" />
    <glyph glyph-name="multiply" unicode="&#xd7;" horiz-adv-x="1229" 
d="M1177 364l-87 -87l-334 333l-333 -333l-87 87l334 333l-334 334l87 87l333 -334l334 334l87 -87l-334 -334z" />
    <glyph glyph-name="onesuperior" unicode="&#xb9;" horiz-adv-x="762" 
d="M786 1419l-164 -620q-5 -19 -5 -27q0 -19 11.5 -27t53.5 -8h64l-15 -56h-407l15 56h55q55 0 69.5 5t24.5 19t20 55l128 484h-149l15 56q121 17 223 63h61z" />
    <glyph glyph-name="twosuperior" unicode="&#xb2;" horiz-adv-x="762" 
d="M401 1126l-80 -4l-1 27q0 112 90 191t241 79q140 0 209 -61t69 -140q0 -37 -15 -72q-21 -48 -66.5 -94t-157 -113.5t-305.5 -171.5h274q50 0 65 5q11 4 19.5 14t38.5 69h77l-94 -199h-60v25h-517l15 52l165 92q41 23 156.5 96t171 121.5t82.5 101.5q18 34 18 69
q0 54 -46.5 92.5t-125.5 38.5q-105 0 -165 -59t-58 -159z" />
    <glyph glyph-name="threesuperior" unicode="&#xb3;" horiz-adv-x="762" 
d="M442 1201l-77 14q22 89 103.5 146.5t201.5 57.5q119 0 185.5 -50t66.5 -118q0 -59 -42 -101q-61 -60 -149 -82q65 -19 100 -62t35 -93q0 -95 -96 -170t-258 -75q-137 0 -215 54.5t-78 113.5q0 27 18 43.5t49 16.5q27 0 44 -13.5t24 -46.5q10 -41 25 -59q20 -24 54.5 -37
t80.5 -13q97 0 158 54.5t61 126.5q0 68 -55 104q-41 27 -134 27h-49l16 63h51q81 0 129.5 17.5t72.5 49t24 64.5q0 29 -17 54.5t-51.5 40t-81.5 14.5q-48 0 -87.5 -16t-64 -43t-44.5 -82z" />
    <glyph glyph-name="onehalf" unicode="&#xbd;" horiz-adv-x="1905" 
d="M786 1419l-164 -620q-5 -19 -5 -27q0 -19 11.5 -27t53.5 -8h64l-15 -56h-407l15 56h55q55 0 69.5 5t24.5 19t20 55l128 484h-149l15 56q121 17 223 63h61zM1766 1419l-1205 -1431h-107l1205 1431h107zM1418 446l-80 -4l-1 27q0 112 90 191t241 79q140 0 209 -61t69 -140
q0 -37 -15 -72q-21 -48 -66.5 -94t-157 -113.5t-305.5 -171.5h274q50 0 65 5q11 4 19.5 14t38.5 69h77l-94 -199h-60v25h-517l15 52l165 92q41 23 156.5 96t171 121.5t82.5 101.5q18 34 18 69q0 54 -46.5 92.5t-125.5 38.5q-105 0 -165 -59t-58 -159z" />
    <glyph glyph-name="onequarter" unicode="&#xbc;" horiz-adv-x="1905" 
d="M786 1419l-164 -620q-5 -19 -5 -27q0 -19 11.5 -27t53.5 -8h64l-15 -56h-407l15 56h55q55 0 69.5 5t24.5 19t20 55l128 484h-149l15 56q121 17 223 63h61zM1766 1419l-1205 -1431h-107l1205 1431h107zM1889 725l-108 -416h153l-20 -74h-154l-61 -235h-119l61 235h-394
l26 95l503 395h113zM1661 309l76 291l-371 -291h295z" />
    <glyph glyph-name="threequarters" unicode="&#xbe;" horiz-adv-x="1905" 
d="M442 1201l-77 14q22 89 103.5 146.5t201.5 57.5q119 0 185.5 -50t66.5 -118q0 -59 -42 -101q-61 -60 -149 -82q65 -19 100 -62t35 -93q0 -95 -96 -170t-258 -75q-137 0 -215 54.5t-78 113.5q0 27 18 43.5t49 16.5q27 0 44 -13.5t24 -46.5q10 -41 25 -59q20 -24 54.5 -37
t80.5 -13q97 0 158 54.5t61 126.5q0 68 -55 104q-41 27 -134 27h-49l16 63h51q81 0 129.5 17.5t72.5 49t24 64.5q0 29 -17 54.5t-51.5 40t-81.5 14.5q-48 0 -87.5 -16t-64 -43t-44.5 -82zM1802 1419l-1205 -1431h-107l1205 1431h107zM1889 725l-108 -416h153l-20 -74h-154
l-61 -235h-119l61 235h-394l26 95l503 395h113zM1661 309l76 291l-371 -291h295z" />
    <glyph glyph-name="franc" unicode="&#x20a3;" 
d="M517 364h188l-22 -105h-190q-16 -70 -16 -94q0 -27 15 -47t40.5 -27t110.5 -7l-18 -84h-550l19 84h42q64 0 89 9.5t43.5 31t31.5 57.5q3 9 19 77h-186l25 105h184l180 798q11 49 11 71q0 37 -32 61q-22 16 -79 16h-51l20 85h997l117 -367l-91 -30q-41 110 -97 172.5
t-123.5 86.5t-211.5 24h-256l-124 -533h155q96 0 144.5 14t82 45t53.5 79q8 19 28 99h98l-130 -568h-97l8 32q9 41 9 68q0 45 -21 75t-58.5 44t-131.5 14h-160z" />
    <glyph glyph-name="Gbreve" unicode="&#x11e;" horiz-adv-x="1557" 
d="M1576 1388l14 -430l-98 -9q-38 171 -148 265.5t-264 94.5q-159 0 -300 -93t-233.5 -273.5t-92.5 -380.5q0 -146 50.5 -251t141.5 -163.5t191 -58.5q84 0 175 25t157 65q50 30 75.5 66.5t43.5 114.5l29 125q9 41 9 61q0 22 -13 40.5t-33.5 26t-77.5 7.5h-64l20 84h557
l-18 -84h-42q-56 0 -83 -13t-44.5 -41.5t-35.5 -106.5l-108 -459h-96l-18 125q-79 -69 -196.5 -109t-252.5 -40q-171 0 -291 71q-134 78 -211 212.5t-77 302.5q0 226 115 426.5t309 315.5t417 115q113 0 197 -29.5t163 -98.5l59 97h74zM796 1729l49 23q114 -71 262 -71
q154 0 265 71l45 -23q-57 -92 -136 -137.5t-173 -45.5q-91 0 -169.5 40.5t-142.5 142.5z" />
    <glyph glyph-name="gbreve" unicode="&#x11f;" horiz-adv-x="1147" 
d="M1225 965l-202 -925q-39 -184 -115.5 -288.5t-197 -164t-271.5 -59.5q-161 0 -256 65t-95 134q0 36 24 62t55 26q20 0 38.5 -8t39.5 -27q15 -14 49 -60q33 -46 48 -57q25 -19 59 -29.5t73 -10.5q85 0 163.5 46.5t134 136.5t92.5 260l44 203q-45 -76 -89 -122
q-83 -85 -175 -128t-177 -43q-130 0 -208 89q-90 102 -90 261q0 172 84 332.5t218 245.5t279 85q62 0 122.5 -16.5t108.5 -46.5q37 -22 73 -67l48 106h123zM1023 781q-58 54 -118 80.5t-122 26.5q-98 0 -196.5 -70.5t-167.5 -217.5t-69 -301q0 -100 46.5 -157t111.5 -57
q84 0 165 57q122 88 208.5 239t141.5 400zM532 1330l49 23q114 -71 262 -71q154 0 265 71l45 -23q-57 -92 -136 -137.5t-173 -45.5q-91 0 -169.5 40.5t-142.5 142.5z" />
    <glyph glyph-name="Idot" unicode="&#x130;" horiz-adv-x="655" 
d="M367 1395h551l-19 -85h-32q-75 0 -105 -12.5t-48.5 -40t-36.5 -104.5l-206 -907q-14 -64 -14 -87q0 -38 32 -60q22 -15 86 -15h47l-21 -84h-550l19 84h40q67 0 97.5 13.5t48 39t34.5 97.5l211 929q11 48 11 70q0 27 -12 44.5t-34 25t-81 7.5h-35zM708 1768q44 0 72 -28
t28 -71q0 -55 -44 -97.5t-102 -42.5q-44 0 -71 27t-27 74q0 55 43 96.5t101 41.5z" />
    <glyph glyph-name="Scedilla" unicode="&#x15e;" horiz-adv-x="1311" 
d="M1348 1395h73l8 -442h-98q-38 149 -154 252.5t-290 103.5q-97 0 -174.5 -35t-117.5 -91.5t-40 -111.5q0 -48 25.5 -89.5t86.5 -79.5t213 -91q222 -78 303.5 -131t121.5 -122t40 -148q0 -108 -69.5 -211t-193.5 -163t-290 -60q-132 0 -231 37t-206 130l-84 -143h-66
l22 511h94q37 -201 163.5 -313.5t306.5 -112.5q166 0 282 92q95 76 95 187q0 67 -37.5 118t-130.5 97q-52 25 -251 95q-187 67 -259 138q-100 101 -100 227q0 93 61.5 181t180.5 143.5t267 55.5q111 0 201.5 -31.5t180.5 -101.5zM765 0l-29 -75q12 0 33 1h11q38 0 77 -18
t54 -42t15 -57q0 -67 -62 -117t-159 -50q-80 0 -133 35q-37 23 -37 62q0 25 15.5 41.5t35.5 16.5q26 0 37 -9t15 -36q4 -26 20 -39q22 -16 53 -16q44 0 76.5 29.5t32.5 67.5q0 35 -28 58t-77 23q-40 0 -86 -12l60 137h76z" />
    <glyph glyph-name="scedilla" unicode="&#x15f;" horiz-adv-x="1106" 
d="M631 604l177 -61q28 -10 98 -43.5t99 -59.5q37 -33 58.5 -79t21.5 -93q0 -73 -49.5 -142t-145 -109.5t-235.5 -40.5q-152 0 -273 44.5t-176 107t-55 113.5q0 34 23.5 57t59.5 23q22 0 40.5 -8t37.5 -28q13 -14 42 -64q26 -44 34 -53q23 -27 62 -52t87.5 -37.5
t113.5 -12.5q94 0 156.5 23.5t93 62.5t30.5 79q0 56 -56 101q-56 44 -163 76q-9 3 -19 7l-140 49q-128 45 -184 111q-57 65 -57 143q0 68 46 132t135.5 101.5t221.5 37.5q202 0 332 -81q97 -61 97 -138q0 -34 -23 -58t-57 -24q-32 0 -61 23q-20 16 -59 71q-40 57 -97.5 85
t-141.5 28q-114 0 -176.5 -44t-62.5 -99q0 -44 34 -79.5t131 -68.5zM626 0l-29 -75q12 0 33 1h11q38 0 77 -18t54 -42t15 -57q0 -67 -62 -117t-159 -50q-80 0 -133 35q-37 23 -37 62q0 25 15.5 41.5t35.5 16.5q26 0 37 -9t15 -36q4 -26 20 -39q22 -16 53 -16q44 0 76.5 29.5
t32.5 67.5q0 35 -28 58t-77 23q-40 0 -86 -12l60 137h76z" />
    <glyph glyph-name="Cacute" unicode="&#x106;" horiz-adv-x="1475" 
d="M1509 1389h76l18 -463l-94 -12q-43 157 -98.5 234.5t-138 118.5t-186.5 41q-160 0 -303 -93.5t-236.5 -276t-93.5 -383.5q0 -134 56 -239.5t155 -163t219 -57.5q88 0 182.5 28t172 76.5t234.5 190.5l61 -57q-157 -179 -349 -276q-160 -81 -345 -81q-203 0 -319 74
t-196.5 195.5t-80.5 313.5q0 228 114.5 428t308 316t412.5 116q87 0 172 -22q64 -16 116 -46q36 -21 83 -67zM988 1494l-25 59l142 139q71 70 116 97q24 15 54 15q33 0 56.5 -26t23.5 -61q0 -36 -28.5 -68t-107.5 -64z" />
    <glyph glyph-name="cacute" unicode="&#x107;" horiz-adv-x="983" 
d="M999 274l60 -60q-263 -238 -503 -238q-113 0 -198.5 47.5t-134 137t-48.5 200.5q0 161 85.5 311.5t225 233.5t296.5 83q137 0 226 -75t89 -171q0 -62 -27.5 -95t-72.5 -33q-34 0 -58 26t-24 62l1 32l1 34q0 48 -40 84q-40 35 -102 35q-93 0 -187 -67.5t-160 -201.5
t-66 -272q0 -75 31 -135t86 -93.5t115 -33.5q52 0 115.5 18t124.5 52.5t165 118.5zM694 1095l-25 59l142 139q71 70 116 97q24 15 54 15q33 0 56.5 -26t23.5 -61q0 -36 -28.5 -68t-107.5 -64z" />
    <glyph glyph-name="Ccaron" unicode="&#x10c;" horiz-adv-x="1475" 
d="M1509 1389h76l18 -463l-94 -12q-43 157 -98.5 234.5t-138 118.5t-186.5 41q-160 0 -303 -93.5t-236.5 -276t-93.5 -383.5q0 -134 56 -239.5t155 -163t219 -57.5q88 0 182.5 28t172 76.5t234.5 190.5l61 -57q-157 -179 -349 -276q-160 -81 -345 -81q-203 0 -319 74
t-196.5 195.5t-80.5 313.5q0 228 114.5 428t308 316t412.5 116q87 0 172 -22q64 -16 116 -46q36 -21 83 -67zM1436 1708l-333 -174l-274 174l51 54l245 -94l267 94z" />
    <glyph glyph-name="ccaron" unicode="&#x10d;" horiz-adv-x="983" 
d="M999 274l60 -60q-263 -238 -503 -238q-113 0 -198.5 47.5t-134 137t-48.5 200.5q0 161 85.5 311.5t225 233.5t296.5 83q137 0 226 -75t89 -171q0 -62 -27.5 -95t-72.5 -33q-34 0 -58 26t-24 62l1 32l1 34q0 48 -40 84q-40 35 -102 35q-93 0 -187 -67.5t-160 -201.5
t-66 -272q0 -75 31 -135t86 -93.5t115 -33.5q52 0 115.5 18t124.5 52.5t165 118.5zM1142 1310l-333 -174l-274 174l51 54l245 -94l267 94z" />
    <glyph glyph-name="dmacron" unicode="&#x111;" horiz-adv-x="1311" 
d="M1309 1187h184l-19 -87h-185l-192 -858q-17 -73 -17 -95q0 -28 18 -47t45 -19q23 0 44.5 8.5t50.5 31.5q12 11 87 87l62 -55q-76 -83 -113.5 -110.5t-85 -43.5t-94.5 -16q-52 0 -91 21t-61.5 60t-22.5 82q0 35 22 124q-76 -113 -146.5 -174.5t-145 -90.5t-153.5 -29
q-96 0 -160 39t-106 122t-42 187q0 176 86 338t218 244.5t285 82.5q90 0 162.5 -27.5t136.5 -88.5l52 227h-319l19 87h320l25 111h-186l19 85q71 7 153.5 31.5t133.5 52.5h78zM1056 781q-51 49 -121 77t-134 28q-100 0 -196.5 -69.5t-165 -215t-68.5 -302.5
q0 -100 48 -157.5t118 -57.5q84 0 170 60q120 83 202.5 224.5t146.5 412.5z" />
    <glyph glyph-name="overscore" unicode="&#xaf;" horiz-adv-x="1024" 
d="M-12 1596h1048v-102h-1048v102z" />
    <glyph glyph-name="middot" unicode="&#xb7;" horiz-adv-x="533" 
d="M443 853q44 0 72 -28t28 -71q0 -55 -44 -97.5t-102 -42.5q-44 0 -71 27t-27 74q0 55 43 96.5t101 41.5z" />
    <glyph glyph-name="foursuperior" unicode="&#xf003;" horiz-adv-x="762" 
d="M873 1406l-108 -416h153l-20 -74h-154l-61 -235h-119l61 235h-394l26 95l503 395h113zM645 990l76 291l-371 -291h295z" />
    <glyph glyph-name="Abreve" unicode="&#x102;" horiz-adv-x="1434" 
d="M922 1395h170l206 -1166q13 -72 28 -98t37.5 -36t88.5 -11l-18 -84h-512l23 84h56q68 0 95 23t27 63q0 22 -7 68l-48 281h-534l-180 -315q-22 -39 -22 -67q0 -25 20.5 -39t86.5 -14h47l-20 -84h-466l20 84q67 2 95 12.5t50.5 33.5t72.5 108zM1052 616l-103 620l-357 -620
h460zM723 1687l49 23q114 -71 262 -71q154 0 265 71l45 -23q-57 -92 -136 -137.5t-173 -45.5q-91 0 -169.5 40.5t-142.5 142.5z" />
    <glyph glyph-name="abreve" unicode="&#x103;" 
d="M1111 965h124l-169 -748q-9 -39 -9 -67q0 -33 18 -52t45 -19q33 0 66 22q50 32 115 107l63 -56q-97 -101 -136 -124q-74 -45 -155 -45q-55 0 -93.5 20t-61 59t-22.5 81q0 32 20 122q-79 -113 -149 -173t-143 -88t-148 -28q-131 0 -210 90q-89 100 -89 261
q0 176 83.5 333.5t219 243t280.5 85.5q93 0 169.5 -32t136.5 -97zM1032 779q-52 51 -118.5 79t-129.5 28q-99 0 -193.5 -67.5t-163 -216.5t-68.5 -301q0 -68 22 -117.5t60 -74.5t82 -25q82 0 173 66q115 82 206 248.5t130 380.5zM617 1330l49 23q114 -71 262 -71
q154 0 265 71l45 -23q-57 -92 -136 -137.5t-173 -45.5q-91 0 -169.5 40.5t-142.5 142.5z" />
    <glyph glyph-name="Aogonek" unicode="&#x104;" horiz-adv-x="1434" 
d="M922 1395h170l206 -1166q13 -72 28 -98t37.5 -36t88.5 -11l-18 -84h-512l23 84h56q68 0 95 23t27 63q0 22 -7 68l-48 281h-534l-180 -315q-22 -39 -22 -67q0 -25 20.5 -39t86.5 -14h47l-20 -84h-466l20 84q67 2 95 12.5t50.5 33.5t72.5 108zM1052 616l-103 620l-357 -620
h460zM1272 0h89q-18 -15 -54 -44q-50 -39 -66 -58q-22 -27 -32 -53t-10 -47q0 -30 25.5 -54.5t58.5 -24.5q21 0 62 15l-13 -74q-37 -6 -59 -6q-78 0 -129.5 45t-51.5 107q0 55 43 102q27 30 137 92z" />
    <glyph glyph-name="aogonek" unicode="&#x105;" 
d="M1111 965h124l-169 -748q-9 -39 -9 -67q0 -33 18 -52t45 -19q33 0 66 22q50 32 115 107l63 -56q-97 -101 -136 -124q-74 -45 -155 -45q-55 0 -93.5 20t-61 59t-22.5 81q0 32 20 122q-79 -113 -149 -173t-143 -88t-148 -28q-131 0 -210 90q-89 100 -89 261
q0 176 83.5 333.5t219 243t280.5 85.5q93 0 169.5 -32t136.5 -97zM1032 779q-52 51 -118.5 79t-129.5 28q-99 0 -193.5 -67.5t-163 -216.5t-68.5 -301q0 -68 22 -117.5t60 -74.5t82 -25q82 0 173 66q115 82 206 248.5t130 380.5zM1037 0h89q-18 -15 -54 -44q-50 -39 -66 -58
q-22 -27 -32 -53t-10 -47q0 -30 25.5 -54.5t58.5 -24.5q21 0 62 15l-13 -74q-37 -6 -59 -6q-78 0 -129.5 45t-51.5 107q0 55 43 102q27 30 137 92z" />
    <glyph glyph-name="Dcaron" unicode="&#x10e;" horiz-adv-x="1515" 
d="M399 1395h559q237 0 379 -67q122 -57 200 -188t78 -297q0 -136 -46.5 -274t-130 -251t-182 -179.5t-228.5 -97.5q-169 -41 -364 -41h-582l19 84q96 1 111 4q23 5 42 20q26 21 39.5 46.5t29.5 98.5l206 908q12 50 12 71q0 26 -13 45.5t-31.5 26t-78.5 6.5h-38zM736 1283
l-248 -1089q-8 -35 -8 -49q0 -20 15 -29t68 -9h81q136 0 266 24q72 14 143.5 53.5t136.5 107t117.5 161t79.5 194.5t27 203q0 143 -57.5 238.5t-158.5 145t-287 49.5h-175zM1336 1667l-333 -174l-274 174l51 54l245 -94l267 94z" />
    <glyph glyph-name="dcaron" unicode="&#x10f;" horiz-adv-x="1396" 
d="M1372 1467l-274 -1225q-17 -73 -17 -95q0 -28 18 -47t45 -19q23 0 44.5 8.5t50.5 31.5q12 11 87 87l62 -55q-76 -83 -113.5 -110.5t-85 -43.5t-94.5 -16q-52 0 -91 21t-61.5 60t-22.5 82q0 35 22 124q-76 -113 -146.5 -174.5t-145 -90.5t-153.5 -29q-97 0 -161 39.5
t-105.5 122.5t-41.5 191q0 173 85.5 330t222 243.5t285.5 86.5q87 0 159.5 -28t135.5 -88l97 425h-186l19 85q71 7 153.5 31.5t133.5 52.5h78zM1057 781q-51 49 -121 77t-134 28q-100 0 -196.5 -69.5t-165 -215t-68.5 -302.5q0 -100 48 -157.5t118 -57.5q84 0 170 60
q120 83 202.5 224.5t146.5 412.5zM1398 961l-40 61q238 134 246 259q-25 -5 -42 -5q-32 0 -60 24.5t-28 75.5q0 48 31.5 75.5t74.5 27.5q52 0 92.5 -40.5t40.5 -111.5q0 -205 -315 -366z" />
    <glyph glyph-name="Dslash" unicode="&#x110;" horiz-adv-x="1515" 
d="M413 647h-183l21 97h184l94 417q12 50 12 71q0 26 -13 45.5t-31.5 26t-78.5 6.5h-38l19 85h559q237 0 379 -67q122 -57 200 -188t78 -297q0 -136 -46.5 -274t-130 -251t-182 -179.5t-228.5 -97.5q-169 -41 -364 -41h-582l19 84q96 1 111 4q23 5 42 20q26 21 39.5 46.5
t29.5 98.5zM591 647l-103 -453q-8 -35 -8 -49q0 -20 15 -29t68 -9h81q76 0 178.5 10t154.5 27q78 26 154.5 88t143.5 164t103 220t36 242q0 137 -58 232.5t-159 144t-286 48.5h-175l-123 -539h431l-21 -97h-432z" />
    <glyph glyph-name="Eogonek" unicode="&#x118;" horiz-adv-x="1393" 
d="M395 1395h1006l115 -369l-92 -29q-41 113 -94.5 172.5t-117.5 82.5q-85 30 -225 30h-257l-115 -511h169q107 0 158 22t86.5 71.5t54.5 142.5h96l-128 -566h-97q15 77 15 107q0 39 -22 70.5t-57.5 44.5t-132.5 13h-163l-113 -490q-7 -33 -7 -43q0 -20 16 -31q11 -7 62 -7
h223q164 0 267.5 35t176 102.5t165.5 232.5l87 -34l-212 -441h-1179l19 84q102 1 131 10.5t45 32.5q26 36 41 104l210 927q12 51 12 71q0 46 -30 63.5t-100 17.5h-31zM1087 0h89q-18 -15 -54 -44q-50 -39 -66 -58q-22 -27 -32 -53t-10 -47q0 -30 25.5 -54.5t58.5 -24.5
q21 0 62 15l-13 -74q-37 -6 -59 -6q-78 0 -129.5 45t-51.5 107q0 55 43 102q27 30 137 92z" />
    <glyph glyph-name="eogonek" unicode="&#x119;" horiz-adv-x="1106" 
d="M1043 264l56 -63q-126 -112 -262 -168.5t-266 -56.5q-175 0 -282 107.5t-107 285.5q0 159 88.5 302.5t247 230.5t339.5 87q144 0 225 -66t81 -156q0 -53 -35.5 -111.5t-119.5 -108.5t-243 -83t-391 -45q-5 -39 -5 -59q0 -79 33.5 -141t95 -98.5t128.5 -36.5
q85 0 198.5 46t218.5 134zM386 498q227 25 329 49q164 39 224 94.5t60 121.5q0 56 -44.5 94t-126.5 38q-86 0 -182 -51t-163 -139t-97 -207zM587 0h89q-18 -15 -54 -44q-50 -39 -66 -58q-22 -27 -32 -53t-10 -47q0 -30 25.5 -54.5t58.5 -24.5q21 0 62 15l-13 -74
q-37 -6 -59 -6q-78 0 -129.5 45t-51.5 107q0 55 43 102q27 30 137 92z" />
    <glyph glyph-name="Ecaron" unicode="&#x11a;" horiz-adv-x="1393" 
d="M395 1395h1006l115 -369l-92 -29q-41 113 -94.5 172.5t-117.5 82.5q-85 30 -225 30h-257l-115 -511h169q107 0 158 22t86.5 71.5t54.5 142.5h96l-128 -566h-97q15 77 15 107q0 39 -22 70.5t-57.5 44.5t-132.5 13h-163l-113 -490q-7 -33 -7 -43q0 -20 16 -31q11 -7 62 -7
h223q164 0 267.5 35t176 102.5t165.5 232.5l87 -34l-212 -441h-1179l19 84q102 1 131 10.5t45 32.5q26 36 41 104l210 927q12 51 12 71q0 46 -30 63.5t-100 17.5h-31zM1286 1667l-333 -174l-274 174l51 54l245 -94l267 94z" />
    <glyph glyph-name="ecaron" unicode="&#x11b;" horiz-adv-x="1106" 
d="M1043 264l56 -63q-126 -112 -262 -168.5t-266 -56.5q-175 0 -282 107.5t-107 285.5q0 159 88.5 302.5t247 230.5t339.5 87q144 0 225 -66t81 -156q0 -53 -35.5 -111.5t-119.5 -108.5t-243 -83t-391 -45q-5 -39 -5 -59q0 -79 33.5 -141t95 -98.5t128.5 -36.5
q85 0 198.5 46t218.5 134zM386 498q227 25 329 49q164 39 224 94.5t60 121.5q0 56 -44.5 94t-126.5 38q-86 0 -182 -51t-163 -139t-97 -207zM1130 1310l-333 -174l-274 174l51 54l245 -94l267 94z" />
    <glyph glyph-name="IJ" unicode="&#x132;" horiz-adv-x="1802" 
d="M367 1395h551l-19 -85h-32q-98 0 -132 -26.5t-58 -130.5l-206 -907q-14 -64 -14 -87q0 -75 118 -75h47l-21 -84h-550l19 84h40q88 0 123.5 29t56.5 121l211 929q11 48 11 70q0 45 -27.5 61t-99.5 16h-35zM1551 1395h551l-18 -85h-54q-82 0 -115 -30t-53 -121l-165 -732
q-31 -139 -86 -227t-185.5 -156t-283.5 -68q-183 0 -297 93.5t-114 242.5q0 79 41 138t98 59q38 0 62.5 -25.5t24.5 -63.5q0 -35 -30 -84q-30 -50 -30 -77q0 -65 63 -122t174 -57q132 0 238 79.5t155 306.5l160 693q11 46 11 76q0 42 -28.5 58.5t-96.5 16.5h-40z" />
    <glyph glyph-name="ij" unicode="&#x133;" horiz-adv-x="1147" 
d="M579 1467q39 0 69.5 -27t30.5 -76q0 -50 -35 -88.5t-85 -38.5q-45 0 -76 30t-31 74q0 52 39 89t88 37zM1215 1467q39 0 69.5 -27t30.5 -76q0 -53 -36.5 -90t-84.5 -37q-40 0 -73.5 28t-33.5 76q0 52 39.5 89t88.5 37zM589 989l-194 -767q-12 -47 -12 -74q0 -69 62 -69
q65 0 182 129l64 -56q-50 -68 -130.5 -118.5t-160.5 -50.5q-77 0 -128 47.5t-51 111.5q0 43 17 110l144 574h-183l18 83q136 5 294 80h78zM1216 989l-237 -1055q-92 -406 -434 -406q-95 0 -160.5 44.5t-65.5 100.5q0 37 24.5 60t60.5 23q49 0 99 -60q57 -70 110 -70
q129 0 183 250l216 948h-183l17 82q166 20 297 83h73z" />
    <glyph glyph-name="Lacute" unicode="&#x139;" horiz-adv-x="1188" 
d="M392 1395h546l-18 -85h-43q-71 0 -98.5 -12t-46 -42t-37.5 -115l-215 -953q-9 -38 -9 -45q0 -19 14 -28.5t59 -9.5h85q139 0 239.5 37.5t174.5 107.5t160 225l87 -38l-213 -437h-1000l18 84h43q68 0 92 11q31 15 50.5 43.5t36.5 100.5l206 914q11 48 11 83
q0 26 -11.5 42.5t-32.5 24t-77 7.5h-40zM700 1452l-25 59l142 139q71 70 116 97q24 15 54 15q33 0 56.5 -26t23.5 -61q0 -36 -28.5 -68t-107.5 -64z" />
    <glyph glyph-name="lacute" unicode="&#x13a;" horiz-adv-x="573" 
d="M673 1467l-276 -1225q-15 -68 -15 -90q0 -34 17 -52.5t45 -18.5q36 0 65 19q46 30 115 109l65 -55q-142 -171 -291 -171q-80 0 -128 45t-48 113q0 45 11 94l239 1063h-184l18 85q103 16 163.5 34t126.5 50h77zM428 1474l-25 59l142 139q71 70 116 97q24 15 54 15
q33 0 56.5 -26t23.5 -61q0 -36 -28.5 -68t-107.5 -64z" />
    <glyph glyph-name="Lcaron" unicode="&#x13d;" horiz-adv-x="1188" 
d="M392 1395h546l-18 -85h-43q-71 0 -98.5 -12t-46 -42t-37.5 -115l-215 -953q-9 -38 -9 -45q0 -19 14 -28.5t59 -9.5h85q139 0 239.5 37.5t174.5 107.5t160 225l87 -38l-213 -437h-1000l18 84h43q68 0 92 11q31 15 50.5 43.5t36.5 100.5l206 914q11 48 11 83
q0 26 -11.5 42.5t-32.5 24t-77 7.5h-40zM972 901l-40 61q238 134 246 259q-25 -5 -42 -5q-32 0 -60 24.5t-28 75.5q0 48 31.5 75.5t74.5 27.5q52 0 92.5 -40.5t40.5 -111.5q0 -205 -315 -366z" />
    <glyph glyph-name="lcaron" unicode="&#x13e;" horiz-adv-x="697" 
d="M673 1467l-276 -1225q-15 -68 -15 -90q0 -34 17 -52.5t45 -18.5q36 0 65 19q46 30 115 109l65 -55q-142 -171 -291 -171q-80 0 -128 45t-48 113q0 45 11 94l239 1063h-184l18 85q103 16 163.5 34t126.5 50h77zM693 901l-40 61q238 134 246 259q-25 -5 -42 -5
q-32 0 -60 24.5t-28 75.5q0 48 31.5 75.5t74.5 27.5q52 0 92.5 -40.5t40.5 -111.5q0 -205 -315 -366z" />
    <glyph glyph-name="Ldot" unicode="&#x13f;" horiz-adv-x="1188" 
d="M392 1395h546l-18 -85h-43q-71 0 -98.5 -12t-46 -42t-37.5 -115l-215 -953q-9 -38 -9 -45q0 -19 14 -28.5t59 -9.5h85q139 0 239.5 37.5t174.5 107.5t160 225l87 -38l-213 -437h-1000l18 84h43q68 0 92 11q31 15 50.5 43.5t36.5 100.5l206 914q11 48 11 83
q0 26 -11.5 42.5t-32.5 24t-77 7.5h-40zM929 853q44 0 72 -28t28 -71q0 -55 -44 -97.5t-102 -42.5q-44 0 -71 27t-27 74q0 55 43 96.5t101 41.5z" />
    <glyph glyph-name="ldot" unicode="&#x140;" horiz-adv-x="670" 
d="M673 1467l-276 -1225q-15 -68 -15 -90q0 -34 17 -52.5t45 -18.5q36 0 65 19q46 30 115 109l65 -55q-142 -171 -291 -171q-80 0 -128 45t-48 113q0 45 11 94l239 1063h-184l18 85q103 16 163.5 34t126.5 50h77zM729 853q44 0 72 -28t28 -71q0 -55 -44 -97.5t-102 -42.5
q-44 0 -71 27t-27 74q0 55 43 96.5t101 41.5z" />
    <glyph glyph-name="Nacute" unicode="&#x143;" horiz-adv-x="1475" 
d="M393 1395h426l380 -1087l196 866q9 42 9 60q0 39 -30 58q-21 12 -87 12h-44l18 91h488l-19 -91h-39q-70 0 -100 -12t-47 -36.5t-34 -98.5l-267 -1157h-115l-455 1292l-243 -1067q-9 -37 -9 -61q0 -25 13 -44.5t34.5 -27.5t82.5 -8h34l-19 -84h-489l18 84h43q69 0 97 13
t47.5 44t36.5 110l208 906q10 44 10 73q0 42 -29 61q-21 13 -84 13h-49zM940 1452l-25 59l142 139q71 70 116 97q24 15 54 15q33 0 56.5 -26t23.5 -61q0 -36 -28.5 -68t-107.5 -64z" />
    <glyph glyph-name="nacute" unicode="&#x144;" 
d="M593 989l-71 -314q49 82 95 130q87 93 178 138.5t176 45.5q67 0 117 -25.5t80 -72.5t30 -95q0 -41 -21 -130l-95 -426q-14 -61 -14 -87q0 -30 18.5 -49t45.5 -19q70 0 180 133l63 -59q-88 -102 -153.5 -139t-136.5 -37q-54 0 -93.5 21t-62.5 60.5t-23 83.5q0 39 14 101
l98 443q13 57 13 88q0 44 -28.5 69.5t-75.5 25.5q-54 0 -113.5 -29t-126.5 -96t-122.5 -166t-101.5 -236q-22 -63 -49 -189l-34 -159h-165l185 824h-185l20 82q96 14 150 30t137 53h71zM741 1095l-25 59l142 139q71 70 116 97q24 15 54 15q33 0 56.5 -26t23.5 -61
q0 -36 -28.5 -68t-107.5 -64z" />
    <glyph glyph-name="Ncaron" unicode="&#x147;" horiz-adv-x="1475" 
d="M393 1395h426l380 -1087l196 866q9 42 9 60q0 39 -30 58q-21 12 -87 12h-44l18 91h488l-19 -91h-39q-70 0 -100 -12t-47 -36.5t-34 -98.5l-267 -1157h-115l-455 1292l-243 -1067q-9 -37 -9 -61q0 -25 13 -44.5t34.5 -27.5t82.5 -8h34l-19 -84h-489l18 84h43q69 0 97 13
t47.5 44t36.5 110l208 906q10 44 10 73q0 42 -29 61q-21 13 -84 13h-49zM1387 1667l-333 -174l-274 174l51 54l245 -94l267 94z" />
    <glyph glyph-name="ncaron" unicode="&#x148;" 
d="M593 989l-71 -314q49 82 95 130q87 93 178 138.5t176 45.5q67 0 117 -25.5t80 -72.5t30 -95q0 -41 -21 -130l-95 -426q-14 -61 -14 -87q0 -30 18.5 -49t45.5 -19q70 0 180 133l63 -59q-88 -102 -153.5 -139t-136.5 -37q-54 0 -93.5 21t-62.5 60.5t-23 83.5q0 39 14 101
l98 443q13 57 13 88q0 44 -28.5 69.5t-75.5 25.5q-54 0 -113.5 -29t-126.5 -96t-122.5 -166t-101.5 -236q-22 -63 -49 -189l-34 -159h-165l185 824h-185l20 82q96 14 150 30t137 53h71zM1213 1310l-333 -174l-274 174l51 54l245 -94l267 94z" />
    <glyph glyph-name="napostrophe" unicode="&#x149;" horiz-adv-x="1554" 
d="M877 989l-71 -314q49 82 95 130q87 93 178 138.5t176 45.5q67 0 117 -25.5t80 -72.5t30 -95q0 -41 -21 -130l-95 -426q-14 -61 -14 -87q0 -30 18.5 -49t45.5 -19q70 0 180 133l63 -59q-88 -102 -153.5 -139t-136.5 -37q-54 0 -93.5 21t-62.5 60.5t-23 83.5q0 39 14 101
l98 443q13 57 13 88q0 44 -28.5 69.5t-75.5 25.5q-54 0 -113.5 -29t-126.5 -96t-122.5 -166t-101.5 -236q-22 -63 -49 -189l-34 -159h-165l185 824h-185l20 82q96 14 150 30t137 53h71zM211 891l-45 68q94 53 156.5 107.5t91.5 100.5q17 27 26 79q-29 -5 -47 -5
q-41 0 -69.5 30.5t-28.5 80.5t33 82.5t84 32.5q62 0 105.5 -47t43.5 -122q0 -67 -32.5 -133.5t-106.5 -134t-211 -139.5z" />
    <glyph glyph-name="Odblacute" unicode="&#x150;" horiz-adv-x="1557" 
d="M1064 1419q254 0 418 -154q173 -163 173 -438q0 -226 -116 -425.5t-314 -314.5q-191 -111 -423 -111q-176 0 -305 73t-204.5 204.5t-75.5 300.5q0 229 115.5 431.5t311.5 318t420 115.5zM1070 1313q-170 0 -313.5 -94.5t-239.5 -286.5t-96 -404q0 -134 51 -238.5
t138.5 -157.5t200.5 -53q162 0 305.5 96t240 290.5t96.5 406.5q0 132 -51.5 232.5t-138.5 154.5t-193 54zM934 1442l-46 33l46 173q33 121 54.5 148t53.5 27q33 0 57 -24t24 -58q0 -46 -55 -119zM1173 1442l-46 33l46 173q32 121 54 148t55 27q32 0 56.5 -24t24.5 -58
q0 -45 -56 -119z" />
    <glyph glyph-name="odblacute" unicode="&#x151;" horiz-adv-x="1106" 
d="M753 989q170 0 280 -110.5t110 -279.5q0 -170 -78.5 -319.5t-205 -226.5t-279.5 -77q-128 0 -212.5 47t-138 143t-53.5 209q0 161 81.5 309.5t211.5 226.5t284 78zM744 892q-96 0 -180 -60.5t-144 -194.5t-60 -283q0 -121 57.5 -203t166.5 -82q91 0 172.5 60.5
t142.5 198.5t61 279q0 86 -29.5 153.5t-78.5 99.5t-108 32zM648 1086l-46 33l46 173q33 121 54.5 148t53.5 27q33 0 57 -24t24 -58q0 -46 -55 -119zM887 1086l-46 33l46 173q32 121 54 148t55 27q32 0 56.5 -24t24.5 -58q0 -45 -56 -119z" />
    <glyph glyph-name="Racute" unicode="&#x154;" horiz-adv-x="1434" 
d="M399 1395h692q180 0 268.5 -36t138 -109t49.5 -170q0 -113 -65.5 -211.5t-173 -147t-334.5 -55.5l260 -458q22 -38 58 -78q22 -26 55 -36.5t104 -9.5l-18 -84h-282l-359 666h-194l-101 -442q-9 -37 -9 -60q0 -27 16 -48.5t38 -26.5q16 -5 111 -5l-20 -84h-551l20 84h30
q76 0 105.5 12.5t47.5 38t34 101.5l210 913q13 54 13 83q0 44 -29 61t-97 17h-37zM738 1284l-121 -523h273q194 0 273.5 32.5t131 109t51.5 171.5q0 71 -32.5 118t-93 69.5t-200.5 22.5h-282zM883 1452l-25 59l142 139q71 70 116 97q24 15 54 15q33 0 56.5 -26t23.5 -61
q0 -36 -28.5 -68t-107.5 -64z" />
    <glyph glyph-name="racute" unicode="&#x155;" horiz-adv-x="819" 
d="M598 989l-73 -314q58 108 126.5 179t140.5 108q52 27 105 27t86.5 -30.5t33.5 -74.5q0 -38 -27.5 -67.5t-58.5 -29.5q-21 0 -59 14q-39 15 -62 15q-84 0 -177 -124q-127 -168 -207 -512l-42 -180h-164l185 823h-185l20 82q93 12 156 30.5t129 53.5h73zM552 1095l-25 59
l142 139q71 70 116 97q24 15 54 15q33 0 56.5 -26t23.5 -61q0 -36 -28.5 -68t-107.5 -64z" />
    <glyph glyph-name="Rcaron" unicode="&#x158;" horiz-adv-x="1434" 
d="M399 1395h692q180 0 268.5 -36t138 -109t49.5 -170q0 -113 -65.5 -211.5t-173 -147t-334.5 -55.5l260 -458q22 -38 58 -78q22 -26 55 -36.5t104 -9.5l-18 -84h-282l-359 666h-194l-101 -442q-9 -37 -9 -60q0 -27 16 -48.5t38 -26.5q16 -5 111 -5l-20 -84h-551l20 84h30
q76 0 105.5 12.5t47.5 38t34 101.5l210 913q13 54 13 83q0 44 -29 61t-97 17h-37zM738 1284l-121 -523h273q194 0 273.5 32.5t131 109t51.5 171.5q0 71 -32.5 118t-93 69.5t-200.5 22.5h-282zM1294 1667l-333 -174l-274 174l51 54l245 -94l267 94z" />
    <glyph glyph-name="rcaron" unicode="&#x159;" horiz-adv-x="819" 
d="M598 989l-73 -314q58 108 126.5 179t140.5 108q52 27 105 27t86.5 -30.5t33.5 -74.5q0 -38 -27.5 -67.5t-58.5 -29.5q-21 0 -59 14q-39 15 -62 15q-84 0 -177 -124q-127 -168 -207 -512l-42 -180h-164l185 823h-185l20 82q93 12 156 30.5t129 53.5h73zM987 1310
l-333 -174l-274 174l51 54l245 -94l267 94z" />
    <glyph glyph-name="Sacute" unicode="&#x15a;" horiz-adv-x="1311" 
d="M1348 1395h73l8 -442h-98q-38 149 -154 252.5t-290 103.5q-97 0 -174.5 -35t-117.5 -91.5t-40 -111.5q0 -48 25.5 -89.5t86.5 -79.5t213 -91q222 -78 303.5 -131t121.5 -122t40 -148q0 -108 -69.5 -211t-193.5 -163t-290 -60q-132 0 -231 37t-206 130l-84 -143h-66
l22 511h94q37 -201 163.5 -313.5t306.5 -112.5q166 0 282 92q95 76 95 187q0 67 -37.5 118t-130.5 97q-52 25 -251 95q-187 67 -259 138q-100 101 -100 227q0 93 61.5 181t180.5 143.5t267 55.5q111 0 201.5 -31.5t180.5 -101.5zM822 1452l-25 59l142 139q71 70 116 97
q24 15 54 15q33 0 56.5 -26t23.5 -61q0 -36 -28.5 -68t-107.5 -64z" />
    <glyph glyph-name="sacute" unicode="&#x15b;" horiz-adv-x="1106" 
d="M631 604l177 -61q28 -10 98 -43.5t99 -59.5q37 -33 58.5 -79t21.5 -93q0 -73 -49.5 -142t-145 -109.5t-235.5 -40.5q-152 0 -273 44.5t-176 107t-55 113.5q0 34 23.5 57t59.5 23q22 0 40.5 -8t37.5 -28q13 -14 42 -64q26 -44 34 -53q23 -27 62 -52t87.5 -37.5
t113.5 -12.5q94 0 156.5 23.5t93 62.5t30.5 79q0 56 -56 101q-56 44 -163 76q-9 3 -19 7l-140 49q-128 45 -184 111q-57 65 -57 143q0 68 46 132t135.5 101.5t221.5 37.5q202 0 332 -81q97 -61 97 -138q0 -34 -23 -58t-57 -24q-32 0 -61 23q-20 16 -59 71q-40 57 -97.5 85
t-141.5 28q-114 0 -176.5 -44t-62.5 -99q0 -44 34 -79.5t131 -68.5zM659 1095l-25 59l142 139q71 70 116 97q24 15 54 15q33 0 56.5 -26t23.5 -61q0 -36 -28.5 -68t-107.5 -64z" />
    <glyph glyph-name="Tcedilla" unicode="&#x162;" horiz-adv-x="1229" 
d="M1428 1439l52 -414l-96 -19q-20 117 -63 182.5t-101.5 91t-171.5 25.5q-34 0 -45 -10t-19 -45l-232 -1025q-8 -39 -8 -64q0 -44 28.5 -60.5t134.5 -16.5l-18 -84h-551l20 84q124 0 159.5 25.5t53.5 102.5l230 1022q7 31 7 46q0 25 -57 25q-162 0 -260 -88t-182 -224
l-82 47l215 399h69v-44h825l18 44h74zM476 -482l-37 52q148 88 155 169q-23 -4 -38 -4q-29 0 -54 20.5t-25 62.5q0 40 28 62.5t66 22.5q54 0 87.5 -35.5t33.5 -87.5q0 -146 -216 -262z" />
    <glyph glyph-name="tcedilla" unicode="&#x163;" horiz-adv-x="696" 
d="M647 1303l-75 -338h265l-23 -102h-265l-133 -588q-14 -65 -14 -100q0 -43 24.5 -67t59.5 -24q47 0 91 28t128 116l67 -56q-163 -196 -325 -196q-89 0 -148 53t-59 127q0 47 13 103l136 604h-183l18 77q231 48 348 363h75zM246 -482l-37 52q148 88 155 169q-23 -4 -38 -4
q-30 0 -54.5 21t-24.5 62q0 40 28 62.5t66 22.5q48 0 84.5 -32.5t36.5 -90.5q0 -140 -216 -262z" />
    <glyph glyph-name="Tcaron" unicode="&#x164;" horiz-adv-x="1229" 
d="M1428 1439l52 -414l-96 -19q-20 116 -61 179.5t-98.5 91.5t-176.5 28q-33 0 -44.5 -9.5t-19.5 -45.5l-232 -1025q-8 -39 -8 -64q0 -26 14.5 -45.5t40 -25.5t108.5 -6l-18 -84h-551l20 84q71 1 105 6t52.5 18.5t30.5 38.5q20 42 25 65l230 1022q7 31 7 46q0 13 -10.5 19
t-46.5 6q-100 0 -170.5 -31.5t-145.5 -110.5q-48 -50 -126 -170l-82 47l215 399h69v-44h825l18 44h74zM1264 1667l-333 -174l-274 174l51 54l245 -94l267 94z" />
    <glyph glyph-name="tcaron" unicode="&#x165;" horiz-adv-x="800" 
d="M786 1041l-38 50q224 111 232 213q-23 -4 -39 -4q-33 0 -58.5 21.5t-25.5 60.5t29.5 62t70.5 23q54 0 90.5 -35.5t36.5 -89.5q0 -164 -298 -301zM647 1303l-75 -338h265l-23 -102h-265l-133 -588q-14 -65 -14 -100q0 -43 24.5 -67t59.5 -24q47 0 91 28t128 116l67 -56
q-163 -196 -325 -196q-89 0 -148 53t-59 127q0 47 13 103l136 604h-183l18 77q231 48 348 363h75z" />
    <glyph glyph-name="Uring" unicode="&#x16e;" horiz-adv-x="1475" 
d="M334 1395h548l-17 -85h-47q-64 0 -90.5 -11.5t-46 -40.5t-34.5 -92l-153 -674q-16 -70 -16 -125q0 -75 38.5 -137t115.5 -99t174 -37q123 0 225.5 58t156 156.5t82.5 226.5l146 631q12 52 12 74q0 23 -13 40.5t-34 24.5q-16 5 -79 5h-38l18 85h488l-18 -85h-48
q-62 0 -90.5 -12.5t-47.5 -40t-33 -91.5l-154 -674q-23 -101 -48 -157q-47 -110 -132 -193.5t-193 -124.5t-240 -41q-223 0 -345 114.5t-122 249.5q0 80 18 158l150 659q11 50 11 76q0 25 -13 44.5t-33 26t-84 6.5h-31zM1127 1797q58 0 93 -36t35 -93q0 -72 -56.5 -128
t-131.5 -56q-55 0 -89 35.5t-34 94.5q0 75 53 129t130 54zM1115 1732q-36 0 -64.5 -31.5t-28.5 -75.5q0 -37 16 -56.5t43 -19.5q37 0 67 33t30 77q0 33 -17.5 53t-45.5 20z" />
    <glyph glyph-name="uring" unicode="&#x16f;" 
d="M1063 965h164l-164 -724q-11 -49 -11 -96q0 -30 17.5 -47.5t43.5 -17.5q30 0 65 23q62 41 116 107l64 -55q-80 -95 -148.5 -133.5t-140.5 -38.5q-81 0 -130 45t-49 111q0 42 18 131q-45 -75 -88 -120q-83 -87 -175 -130.5t-175 -43.5q-67 0 -116.5 24t-77.5 69t-28 92
t19 134l116 526h-184l19 85q76 7 136.5 24t154.5 59h74l-163 -733q-10 -48 -10 -69q0 -47 27 -75.5t69 -28.5q92 0 190 77q125 98 201.5 252.5t113.5 320.5zM892 1440q58 0 93 -36t35 -93q0 -72 -56.5 -128t-131.5 -56q-55 0 -89 35.5t-34 94.5q0 75 53 129t130 54z
M880 1375q-36 0 -64.5 -31.5t-28.5 -75.5q0 -37 16 -56.5t43 -19.5q37 0 67 33t30 77q0 33 -17.5 53t-45.5 20z" />
    <glyph glyph-name="Udblacute" unicode="&#x170;" horiz-adv-x="1475" 
d="M334 1395h548l-17 -85h-47q-64 0 -90.5 -11.5t-46 -40.5t-34.5 -92l-153 -674q-16 -70 -16 -125q0 -75 38.5 -137t115.5 -99t174 -37q123 0 225.5 58t156 156.5t82.5 226.5l146 631q12 52 12 74q0 23 -13 40.5t-34 24.5q-16 5 -79 5h-38l18 85h488l-18 -85h-48
q-62 0 -90.5 -12.5t-47.5 -40t-33 -91.5l-154 -674q-23 -101 -48 -157q-47 -110 -132 -193.5t-193 -124.5t-240 -41q-223 0 -345 114.5t-122 249.5q0 80 18 158l150 659q11 50 11 76q0 25 -13 44.5t-33 26t-84 6.5h-31zM936 1476l-46 33l46 173q33 121 54.5 148t53.5 27
q33 0 57 -24t24 -58q0 -46 -55 -119zM1175 1476l-46 33l46 173q32 121 54 148t55 27q32 0 56.5 -24t24.5 -58q0 -45 -56 -119z" />
    <glyph glyph-name="udblacute" unicode="&#x171;" 
d="M1063 965h164l-164 -724q-11 -49 -11 -96q0 -30 17.5 -47.5t43.5 -17.5q30 0 65 23q62 41 116 107l64 -55q-80 -95 -148.5 -133.5t-140.5 -38.5q-81 0 -130 45t-49 111q0 42 18 131q-45 -75 -88 -120q-83 -87 -175 -130.5t-175 -43.5q-67 0 -116.5 24t-77.5 69t-28 92
t19 134l116 526h-184l19 85q76 7 136.5 24t154.5 59h74l-163 -733q-10 -48 -10 -69q0 -47 27 -75.5t69 -28.5q92 0 190 77q125 98 201.5 252.5t113.5 320.5zM701 1119l-46 33l46 173q33 121 54.5 148t53.5 27q33 0 57 -24t24 -58q0 -46 -55 -119zM940 1119l-46 33l46 173
q32 121 54 148t55 27q32 0 56.5 -24t24.5 -58q0 -45 -56 -119z" />
    <glyph glyph-name="Zacute" unicode="&#x179;" horiz-adv-x="1188" 
d="M453 1395h954l-20 -85l-1074 -1202h202q196 0 302.5 33.5t194.5 107.5t190 234l84 -47l-244 -436h-998l18 84l1074 1199h-232q-160 0 -253.5 -29t-163.5 -88.5t-161 -200.5l-85 48zM761 1452l-25 59l142 139q71 70 116 97q24 15 54 15q33 0 56.5 -26t23.5 -61
q0 -36 -28.5 -68t-107.5 -64z" />
    <glyph glyph-name="zacute" unicode="&#x17a;" horiz-adv-x="1065" 
d="M1188 965l-21 -91l-824 -771q31 4 41 4q35 0 221 -31q97 -16 145 -16q50 0 95 21.5t64 49.5t25 89q6 62 33.5 93t61.5 31q38 0 65 -27t27 -66q0 -68 -44.5 -134t-123 -103.5t-183.5 -37.5q-45 0 -92 4q-28 3 -134 19q-114 18 -150 21q-52 5 -105 5q-111 0 -218 -31l19 90
l831 773q-36 -5 -56 -5q-33 0 -188 27q-73 13 -121 13q-59 0 -98 -31q-39 -32 -57 -100q-14 -54 -30 -73q-24 -28 -66 -28q-40 0 -64.5 26t-24.5 73q0 86 85 158t219 72q49 0 98 -5q28 -3 136 -23q107 -20 135 -23q43 -5 87 -5q98 0 212 32zM639 1095l-25 59l142 139
q71 70 116 97q24 15 54 15q33 0 56.5 -26t23.5 -61q0 -36 -28.5 -68t-107.5 -64z" />
    <glyph glyph-name="Zdot" unicode="&#x17b;" horiz-adv-x="1188" 
d="M453 1395h954l-20 -85l-1074 -1202h202q196 0 302.5 33.5t194.5 107.5t190 234l84 -47l-244 -436h-998l18 84l1074 1199h-232q-160 0 -253.5 -29t-163.5 -88.5t-161 -200.5l-85 48zM939 1727q44 0 72 -28t28 -71q0 -55 -44 -97.5t-102 -42.5q-44 0 -71 27t-27 74
q0 55 43 96.5t101 41.5z" />
    <glyph glyph-name="zdot" unicode="&#x17c;" horiz-adv-x="1065" 
d="M1188 965l-21 -91l-824 -771q31 4 41 4q35 0 221 -31q97 -16 145 -16q50 0 95 21.5t64 49.5t25 89q6 62 33.5 93t61.5 31q38 0 65 -27t27 -66q0 -68 -44.5 -134t-123 -103.5t-183.5 -37.5q-45 0 -92 4q-28 3 -134 19q-114 18 -150 21q-52 5 -105 5q-111 0 -218 -31l19 90
l831 773q-36 -5 -56 -5q-33 0 -188 27q-73 13 -121 13q-59 0 -98 -31q-39 -32 -57 -100q-14 -54 -30 -73q-24 -28 -66 -28q-40 0 -64.5 26t-24.5 73q0 86 85 158t219 72q49 0 98 -5q28 -3 136 -23q107 -20 135 -23q43 -5 87 -5q98 0 212 32zM805 1370q44 0 72 -28t28 -71
q0 -55 -44 -97.5t-102 -42.5q-44 0 -71 27t-27 74q0 55 43 96.5t101 41.5z" />
    <glyph glyph-name="noGamma" unicode="&#xf100;" horiz-adv-x="1323" 
d="M1253 1356l14 -310h-36q-21 142 -109.5 183.5t-214.5 41.5h-403v-1100q-1 -60 44 -96.5t154 -38.5v-36h-605v36q101 0 147.5 33.5t46.5 126.5v970q0 84 -44.5 119t-149.5 35v36h1156z" />
    <glyph glyph-name="noTheta" unicode="&#xf101;" horiz-adv-x="1592" 
d="M1484 681q0 -298 -202 -505t-482 -207t-486.5 208t-206.5 502q0 290 201 499t487 209q282 0 485.5 -205.5t203.5 -500.5zM1240 674q0 289 -119.5 462t-328.5 173q-204 0 -322.5 -169t-118.5 -459q0 -292 123 -463.5t323 -171.5q209 0 326 176t117 452zM555 916h36
q-1 -81 34.5 -118.5t114.5 -37.5h111q78 0 114 37t35 119h36v-480h-36q1 83 -34.5 121t-114.5 38h-111q-78 0 -114 -38t-35 -121h-36v480z" />
    <glyph glyph-name="noPhi" unicode="&#xf102;" horiz-adv-x="1593" 
d="M903 191q12 -155 192 -155v-36h-598v36q175 0 191 155q-265 0 -423 142.5t-158 344.5q0 219 168 353t413 134q-12 155 -191 155v36h598v-36q-179 0 -192 -155q265 0 423.5 -142t158.5 -345q0 -222 -169 -354.5t-413 -132.5zM688 1110q-115 -3 -203 -56.5t-125 -142
t-37 -245.5q0 -405 365 -420v864zM903 1110v-864q140 0 253 92.5t113 351.5q0 405 -366 420z" />
    <glyph glyph-name="noalpha" unicode="&#xf103;" horiz-adv-x="1097" 
d="M784 916h166l-100 -467q-23 -108 -51 -189q20 -169 118 -169q84 0 103 130h36q-11 -118 -55.5 -183.5t-107.5 -65.5q-92 0 -120 215q-106 -215 -339 -215q-165 0 -258.5 127.5t-93.5 354.5q0 231 104 360t251 129q199 0 286 -315zM703 537q-100 348 -248 348
q-84 0 -135.5 -110t-51.5 -332q0 -235 48.5 -321.5t126.5 -86.5q67 0 121.5 71.5t103.5 280.5z" />
    <glyph glyph-name="nodelta" unicode="&#xf104;" horiz-adv-x="969" 
d="M496 854q-57 63 -139 134q-115 100 -140 156t-25 102q0 174 260 174q156 0 259.5 -50t103.5 -123q0 -33 -22.5 -59t-56.5 -26q-46 0 -108 68q-71 80 -113.5 105t-103.5 25q-74 0 -117 -31.5t-43 -77.5q0 -49 37.5 -96t196.5 -156q162 -111 237 -182t120 -166t45 -204
q0 -189 -130 -332t-302 -143q-156 0 -264.5 113.5t-108.5 308.5q0 190 124 313t290 147zM540 807q-287 -48 -287 -394q0 -184 73.5 -280t164.5 -96q99 0 163 95t64 258q0 119 -34 202.5t-99 159.5q-38 44 -45 55z" />
    <glyph glyph-name="noepsilon" unicode="&#xf105;" horiz-adv-x="907" 
d="M323 486q-197 78 -197 219q0 106 100.5 172t256.5 66q132 0 220 -44t88 -110q0 -35 -26 -60.5t-61 -25.5q-56 0 -92 75q-50 105 -150 105q-76 0 -128.5 -48.5t-52.5 -143.5q0 -183 188 -183q21 0 47 4q46 7 70 7q61 0 61 -36q0 -39 -61 -39q-22 0 -67 8q-34 5 -53 5
q-198 0 -198 -204q0 -99 53 -159t148 -60q119 0 158 123q21 65 45 90t65 25q33 0 61 -24t28 -65q0 -93 -104.5 -152t-244.5 -59q-149 0 -272 76t-123 204q0 156 241 234z" />
    <glyph glyph-name="nosigma" unicode="&#xf106;" horiz-adv-x="1198" 
d="M1153 916v-146h-437q105 -52 197.5 -170.5t92.5 -251.5q0 -170 -135.5 -273t-293.5 -103q-202 0 -348.5 148t-146.5 355q0 145 76 256t177 148t255 37h563zM649 770h-35q-132 0 -201.5 -29t-114 -101t-44.5 -177q0 -175 95.5 -300.5t227.5 -125.5q109 0 182 93t73 237
q0 219 -183 403z" />
    <glyph glyph-name="notau" unicode="&#xf107;" horiz-adv-x="875" 
d="M810 916v-146h-300q-37 -321 -37 -470q0 -82 35 -123t88 -41q95 0 113 116h36q0 -107 -56 -193.5t-145 -86.5q-178 0 -178 330q0 141 35 468h-88q-81 0 -127 -26.5t-85 -111.5h-36q36 118 79 180.5t85 83t115 20.5h466z" />
    <glyph glyph-name="nophi" unicode="&#xf108;" horiz-adv-x="1145" 
d="M462 943v-36q-205 -55 -205 -412q0 -392 256 -463v584q0 121 14 179.5t66.5 103t127.5 44.5q77 0 156.5 -53t133 -158t53.5 -241q0 -191 -111 -342.5t-337 -172.5v-395h-103v395q-195 18 -313 156t-118 360q0 204 112 325t268 126zM616 54q300 47 300 409q0 159 -63 272
t-155 113q-39 0 -61 -37t-22 -160z" />
    <glyph glyph-name="underscoredbl" unicode="&#x2017;" horiz-adv-x="1024" 
d="M-12 -167h1048v-102h-1048v102zM-12 -344h1048v-102h-1048v102z" />
    <glyph glyph-name="minute" unicode="&#x2032;" horiz-adv-x="410" 
d="M390 905l34 350q15 164 111 164q58 0 58 -60q0 -34 -26 -101l-136 -353h-41z" />
    <glyph glyph-name="second" unicode="&#x2033;" horiz-adv-x="737" 
d="M716 905l34 350q16 164 111 164q58 0 58 -60q0 -34 -25 -101l-136 -353h-42zM391 905l34 350q15 164 111 164q58 0 58 -60q0 -34 -26 -101l-136 -353h-41z" />
    <glyph glyph-name="exclamdbl" unicode="&#x203c;" horiz-adv-x="1190" 
d="M436 333h-80l122 901q10 74 21 103t45.5 55.5t72.5 26.5q41 0 73 -26t32 -74q0 -33 -23 -104zM971 333h-81l123 901q10 74 20.5 103t45.5 55.5t73 26.5q40 0 72 -26t32 -74q0 -33 -22 -104zM370 218q44 0 72 -28t28 -72q0 -55 -39.5 -98.5t-98.5 -43.5q-103 0 -103 102
q0 60 42 100t99 40zM905 218q44 0 72 -28t28 -72q0 -55 -40 -98.5t-99 -43.5q-102 0 -102 102q0 56 40 98t101 42z" />
    <glyph glyph-name="nsuperior" unicode="&#x207f;" horiz-adv-x="901" 
d="M558 1180l-35 -142q123 142 267 142q76 0 118 -38.5t42 -83.5q0 -25 -14 -81l-63 -255q-8 -34 -8 -49q0 -35 29 -35q40 0 116 86l56 -48q-101 -112 -202 -112q-62 0 -95 31.5t-33 75.5q0 21 9 61l64 266q8 32 8 51q0 50 -56 50q-90 0 -182 -111t-139 -315l-24 -99h-131
l120 494h-120l16 61q106 13 194 51h63z" />
    <glyph glyph-name="peseta" unicode="&#x20a7;" horiz-adv-x="2856" 
d="M1365 944q217 50 332 359h75l-75 -338h510q84 24 186 24q169 0 297.5 -64t128.5 -155q0 -34 -23.5 -58t-57.5 -24q-32 0 -56.5 19.5t-62.5 74.5q-79 113 -236 113q-111 0 -176.5 -42.5t-65.5 -100.5q0 -92 165 -148l176 -61q278 -96 278 -275q0 -116 -111.5 -204
t-323.5 -88q-146 0 -268 44.5t-187 119.5q-147 -164 -298 -164q-88 0 -147.5 52.5t-59.5 127.5q0 47 13 103l137 604h-181q-54 -105 -150.5 -172t-217.5 -81.5t-240 -14.5h-229l-83 -365q-10 -44 -10 -70q0 -41 28.5 -58.5t96.5 -17.5h38l-18 -84h-549l19 84h43
q81 0 117 27.5t57 118.5l209 924q13 56 13 75q0 46 -26 63.5t-99 17.5h-37l21 85h612q152 0 240 -30.5t150 -110t62 -193.5q0 -58 -16 -117zM654 1283l-134 -584h177q184 0 267 25.5t151 117.5t68 211q0 85 -43.5 141t-101.5 72.5t-189 16.5h-195zM1827 226q-1 9 -1 15
q0 32 22 56t60 24t62.5 -21t58.5 -79q57 -97 135.5 -126t163.5 -29q146 0 212 52t66 116q0 104 -220 174q-14 5 -19 7l-139 49q-242 85 -242 255q0 76 57 144h-369l-133 -588q-14 -65 -14 -101q0 -42 23.5 -66t60.5 -24q88 0 216 142z" />
    <glyph glyph-name="afii61248" unicode="&#x2105;" horiz-adv-x="1775" 
d="M875 987l50 -48q-173 -151 -335 -151q-118 0 -187 69t-69 171q0 154 118 272.5t282 118.5q90 0 152 -47t62 -110q0 -85 -76 -85q-30 0 -47 19.5t-17 41.5v20q1 20 1 21q0 26 -22 45.5t-57 19.5q-96 0 -174 -102.5t-78 -221.5q0 -68 40.5 -110.5t95.5 -42.5q111 0 261 120
zM1697 1419l-1204 -1431h-107l1204 1431h107zM1495 616q117 0 189.5 -71t72.5 -173q0 -153 -103 -270t-275 -117q-130 0 -198 76.5t-68 173.5q0 146 107 263.5t275 117.5zM1489 544q-102 0 -167.5 -100.5t-65.5 -220.5q0 -71 33 -119.5t97 -48.5q100 0 164.5 105t64.5 216
q0 74 -33.5 121t-92.5 47z" />
    <glyph glyph-name="afii61289" unicode="&#x2113;" horiz-adv-x="932" 
d="M195 486l225 160l80 337q59 247 145 342t202 95q78 0 131.5 -48.5t53.5 -127.5q0 -132 -138 -270t-308 -254l-98 -412q-16 -66 -16 -100q0 -73 39 -113.5t96 -40.5q65 0 137.5 64.5t126.5 182.5l39 -13q-142 -311 -357 -311q-90 0 -157 61.5t-67 184.5q0 48 16 112
l60 243l-185 -128zM604 785q205 154 287.5 258.5t82.5 190.5q0 107 -105 107q-131 0 -186 -230z" />
    <glyph glyph-name="arrowleft" unicode="&#x2190;" horiz-adv-x="2048" 
d="M492 876h76q-81 -170 -195 -309h1595v-101h-1595q102 -102 198 -309h-78q-223 253 -414 341v45q177 71 413 333z" />
    <glyph glyph-name="arrowup" unicode="&#x2191;" horiz-adv-x="1024" 
d="M153 1050q262 236 333 413h46q87 -192 340 -415v-77q-207 96 -309 197v-1597h-101v1597q-139 -114 -309 -195v77z" />
    <glyph glyph-name="arrowright" unicode="&#x2192;" horiz-adv-x="2048" 
d="M1555 876q237 -262 413 -333v-45q-191 -88 -414 -341h-77q95 207 197 309h-1595v101h1595q-114 139 -195 309h76z" />
    <glyph glyph-name="arrowdown" unicode="&#x2193;" horiz-adv-x="1024" 
d="M153 -16v76q170 -81 309 -195v1598h101v-1598q102 102 309 197v-77q-253 -223 -340 -414h-46q-71 176 -333 413z" />
    <glyph glyph-name="arrowboth" unicode="&#x2194;" horiz-adv-x="2048" 
d="M1968 540v-45q-181 -79 -406 -337h-80q69 172 194 311h-1305q125 -139 194 -311h-80q-224 258 -406 337v45q182 79 406 338h80q-69 -172 -194 -311h1305q-125 139 -194 311h80q225 -259 406 -338z" />
    <glyph glyph-name="arrowupdn" unicode="&#x2195;" horiz-adv-x="1024" 
d="M489 1463h45q79 -182 337 -407v-80q-171 69 -311 195v-1306q140 126 311 194v-79q-258 -225 -337 -407h-45q-79 182 -337 407v79q171 -68 311 -194v1306q-140 -126 -311 -195v80q258 225 337 407z" />
    <glyph glyph-name="arrowupdnbse" unicode="&#x21a8;" horiz-adv-x="1024" 
d="M489 1463h45q79 -182 337 -407v-80q-171 69 -311 195v-1306q140 126 311 194v-79q-258 -225 -337 -407h-45q-79 182 -337 407v79q171 -68 311 -194v1306q-140 -126 -311 -195v80q258 225 337 407zM154 -522h717v-98h-717v98z" />
    <glyph glyph-name="orthogonal" unicode="&#x221f;" horiz-adv-x="2005" 
d="M362 1279h100v-1179h1181v-100h-1281v1279z" />
    <glyph glyph-name="intersection" unicode="&#x2229;" horiz-adv-x="1206" 
d="M239 0h-110v621l2 238q1 116 18.5 209t58.5 169t106 135.5t139.5 89.5t149.5 30q118 0 225 -68.5t165 -174t71.5 -224t13.5 -404.5v-621h-110v628q0 243 -10 348.5t-52 190t-127.5 139.5t-175.5 55t-174.5 -55t-126 -137t-52.5 -189.5t-11 -351.5v-628z" />
    <glyph glyph-name="equivalence" unicode="&#x2261;" horiz-adv-x="1229" 
d="M1102 1000v-123h-975v123h975zM1102 759v-123h-975v123h975zM1102 517v-123h-975v123h975z" />
    <glyph glyph-name="H22073" unicode="&#x25a1;" horiz-adv-x="1237" 
d="M243 944h944v-944h-944v944zM319 868v-792h792v792h-792z" />
    <glyph glyph-name="H18543" unicode="&#x25aa;" horiz-adv-x="726" 
d="M739 909v-464h-463v463z" />
    <glyph glyph-name="H18551" unicode="&#x25ab;" horiz-adv-x="726" 
d="M739 909v-464h-463v463zM663 833l-311 -1v-311h311v312z" />
    <glyph glyph-name="H18533" unicode="&#x25cf;" horiz-adv-x="1237" 
d="M740 1018q181 0 310.5 -129t129.5 -311t-129 -311.5t-311 -129.5t-311.5 129.5t-129.5 311.5q0 189 131.5 314.5t309.5 125.5z" />
    <glyph glyph-name="openbullet" unicode="&#x25e6;" horiz-adv-x="726" 
d="M532 928q101 0 176 -72t75 -179q0 -104 -73.5 -177.5t-177.5 -73.5t-177.5 73.5t-73.5 177.5t74 177.5t177 73.5zM532 852q-71 0 -123 -50t-52 -125q0 -73 51.5 -124t123.5 -51t123.5 51t51.5 124q0 74 -52 124.5t-123 50.5z" />
    <glyph glyph-name="commaaccent" unicode="&#xf004;" horiz-adv-x="615" 
d="M118 -639l-40 61q238 134 246 259q-25 -5 -42 -5q-32 0 -60 24.5t-28 75.5q0 48 31.5 75.5t74.5 27.5q52 0 92.5 -40.5t40.5 -111.5q0 -205 -315 -366z" />
    <glyph glyph-name="Amacron" unicode="&#x100;" horiz-adv-x="1434" 
d="M922 1395h170l206 -1166q13 -72 28 -98t37.5 -36t88.5 -11l-18 -84h-512l23 84h56q68 0 95 23t27 63q0 22 -7 68l-48 281h-534l-180 -315q-22 -39 -22 -67q0 -25 20.5 -39t86.5 -14h47l-20 -84h-466l20 84q67 2 95 12.5t50.5 33.5t72.5 108zM1052 616l-103 620l-357 -620
h460zM784 1666h549l-65 -120h-544z" />
    <glyph glyph-name="amacron" unicode="&#x101;" 
d="M1111 965h124l-169 -748q-9 -39 -9 -67q0 -33 18 -52t45 -19q33 0 66 22q50 32 115 107l63 -56q-97 -101 -136 -124q-74 -45 -155 -45q-55 0 -93.5 20t-61 59t-22.5 81q0 32 20 122q-79 -113 -149 -173t-143 -88t-148 -28q-131 0 -210 90q-89 100 -89 261
q0 176 83.5 333.5t219 243t280.5 85.5q93 0 169.5 -32t136.5 -97zM1032 779q-52 51 -118.5 79t-129.5 28q-99 0 -193.5 -67.5t-163 -216.5t-68.5 -301q0 -68 22 -117.5t60 -74.5t82 -25q82 0 173 66q115 82 206 248.5t130 380.5zM628 1310h549l-65 -120h-544z" />
    <glyph glyph-name="Ccircumflex" unicode="&#x108;" horiz-adv-x="1475" 
d="M1509 1389h76l18 -463l-94 -12q-43 157 -98.5 234.5t-138 118.5t-186.5 41q-160 0 -303 -93.5t-236.5 -276t-93.5 -383.5q0 -134 56 -239.5t155 -163t219 -57.5q88 0 182.5 28t172 76.5t234.5 190.5l61 -57q-157 -179 -349 -276q-160 -81 -345 -81q-203 0 -319 74
t-196.5 195.5t-80.5 313.5q0 228 114.5 428t308 316t412.5 116q87 0 172 -22q64 -16 116 -46q36 -21 83 -67zM804 1545l332 176l274 -176l-50 -52l-246 93l-266 -93z" />
    <glyph glyph-name="ccircumflex" unicode="&#x109;" horiz-adv-x="983" 
d="M999 274l60 -60q-263 -238 -503 -238q-113 0 -198.5 47.5t-134 137t-48.5 200.5q0 161 85.5 311.5t225 233.5t296.5 83q137 0 226 -75t89 -171q0 -62 -27.5 -95t-72.5 -33q-34 0 -58 26t-24 62l1 32l1 34q0 48 -40 84q-40 35 -102 35q-93 0 -187 -67.5t-160 -201.5
t-66 -272q0 -75 31 -135t86 -93.5t115 -33.5q52 0 115.5 18t124.5 52.5t165 118.5zM481 1189l332 176l274 -176l-50 -52l-246 93l-266 -93z" />
    <glyph glyph-name="Cdot" unicode="&#x10a;" horiz-adv-x="1475" 
d="M1509 1389h76l18 -463l-94 -12q-43 157 -98.5 234.5t-138 118.5t-186.5 41q-160 0 -303 -93.5t-236.5 -276t-93.5 -383.5q0 -134 56 -239.5t155 -163t219 -57.5q88 0 182.5 28t172 76.5t234.5 190.5l61 -57q-157 -179 -349 -276q-160 -81 -345 -81q-203 0 -319 74
t-196.5 195.5t-80.5 313.5q0 228 114.5 428t308 316t412.5 116q87 0 172 -22q64 -16 116 -46q36 -21 83 -67zM1149 1727q44 0 72 -28t28 -71q0 -55 -44 -97.5t-102 -42.5q-44 0 -71 27t-27 74q0 55 43 96.5t101 41.5z" />
    <glyph glyph-name="cdot" unicode="&#x10b;" horiz-adv-x="983" 
d="M999 274l60 -60q-263 -238 -503 -238q-113 0 -198.5 47.5t-134 137t-48.5 200.5q0 161 85.5 311.5t225 233.5t296.5 83q137 0 226 -75t89 -171q0 -62 -27.5 -95t-72.5 -33q-34 0 -58 26t-24 62l1 32l1 34q0 48 -40 84q-40 35 -102 35q-93 0 -187 -67.5t-160 -201.5
t-66 -272q0 -75 31 -135t86 -93.5t115 -33.5q52 0 115.5 18t124.5 52.5t165 118.5zM851 1370q44 0 72 -28t28 -71q0 -55 -44 -97.5t-102 -42.5q-44 0 -71 27t-27 74q0 55 43 96.5t101 41.5z" />
    <glyph glyph-name="Emacron" unicode="&#x112;" horiz-adv-x="1393" 
d="M395 1395h1006l115 -369l-92 -29q-41 113 -94.5 172.5t-117.5 82.5q-85 30 -225 30h-257l-115 -511h169q107 0 158 22t86.5 71.5t54.5 142.5h96l-128 -566h-97q15 77 15 107q0 39 -22 70.5t-57.5 44.5t-132.5 13h-163l-113 -490q-7 -33 -7 -43q0 -20 16 -31q11 -7 62 -7
h223q164 0 267.5 35t176 102.5t165.5 232.5l87 -34l-212 -441h-1179l19 84q102 1 131 10.5t45 32.5q26 36 41 104l210 927q12 51 12 71q0 46 -30 63.5t-100 17.5h-31zM747 1666h549l-65 -120h-544z" />
    <glyph glyph-name="emacron" unicode="&#x113;" horiz-adv-x="1106" 
d="M1043 264l56 -63q-126 -112 -262 -168.5t-266 -56.5q-175 0 -282 107.5t-107 285.5q0 159 88.5 302.5t247 230.5t339.5 87q144 0 225 -66t81 -156q0 -53 -35.5 -111.5t-119.5 -108.5t-243 -83t-391 -45q-5 -39 -5 -59q0 -79 33.5 -141t95 -98.5t128.5 -36.5
q85 0 198.5 46t218.5 134zM386 498q227 25 329 49q164 39 224 94.5t60 121.5q0 56 -44.5 94t-126.5 38q-86 0 -182 -51t-163 -139t-97 -207zM605 1310h549l-65 -120h-544z" />
    <glyph glyph-name="Ebreve" unicode="&#x114;" horiz-adv-x="1393" 
d="M395 1395h1006l115 -369l-92 -29q-41 113 -94.5 172.5t-117.5 82.5q-85 30 -225 30h-257l-115 -511h169q107 0 158 22t86.5 71.5t54.5 142.5h96l-128 -566h-97q15 77 15 107q0 39 -22 70.5t-57.5 44.5t-132.5 13h-163l-113 -490q-7 -33 -7 -43q0 -20 16 -31q11 -7 62 -7
h223q164 0 267.5 35t176 102.5t165.5 232.5l87 -34l-212 -441h-1179l19 84q102 1 131 10.5t45 32.5q26 36 41 104l210 927q12 51 12 71q0 46 -30 63.5t-100 17.5h-31zM711 1687l49 23q114 -71 262 -71q154 0 265 71l45 -23q-57 -92 -136 -137.5t-173 -45.5
q-91 0 -169.5 40.5t-142.5 142.5z" />
    <glyph glyph-name="ebreve" unicode="&#x115;" horiz-adv-x="1106" 
d="M1043 264l56 -63q-126 -112 -262 -168.5t-266 -56.5q-175 0 -282 107.5t-107 285.5q0 159 88.5 302.5t247 230.5t339.5 87q144 0 225 -66t81 -156q0 -53 -35.5 -111.5t-119.5 -108.5t-243 -83t-391 -45q-5 -39 -5 -59q0 -79 33.5 -141t95 -98.5t128.5 -36.5
q85 0 198.5 46t218.5 134zM386 498q227 25 329 49q164 39 224 94.5t60 121.5q0 56 -44.5 94t-126.5 38q-86 0 -182 -51t-163 -139t-97 -207zM505 1330l49 23q114 -71 262 -71q154 0 265 71l45 -23q-57 -92 -136 -137.5t-173 -45.5q-91 0 -169.5 40.5t-142.5 142.5z" />
    <glyph glyph-name="Edot" unicode="&#x116;" horiz-adv-x="1393" 
d="M395 1395h1006l115 -369l-92 -29q-41 113 -94.5 172.5t-117.5 82.5q-85 30 -225 30h-257l-115 -511h169q107 0 158 22t86.5 71.5t54.5 142.5h96l-128 -566h-97q15 77 15 107q0 39 -22 70.5t-57.5 44.5t-132.5 13h-163l-113 -490q-7 -33 -7 -43q0 -20 16 -31q11 -7 62 -7
h223q164 0 267.5 35t176 102.5t165.5 232.5l87 -34l-212 -441h-1179l19 84q102 1 131 10.5t45 32.5q26 36 41 104l210 927q12 51 12 71q0 46 -30 63.5t-100 17.5h-31zM999 1727q44 0 72 -28t28 -71q0 -55 -44 -97.5t-102 -42.5q-44 0 -71 27t-27 74q0 55 43 96.5t101 41.5z
" />
    <glyph glyph-name="edot" unicode="&#x117;" horiz-adv-x="1106" 
d="M1043 264l56 -63q-126 -112 -262 -168.5t-266 -56.5q-175 0 -282 107.5t-107 285.5q0 159 88.5 302.5t247 230.5t339.5 87q144 0 225 -66t81 -156q0 -53 -35.5 -111.5t-119.5 -108.5t-243 -83t-391 -45q-5 -39 -5 -59q0 -79 33.5 -141t95 -98.5t128.5 -36.5
q85 0 198.5 46t218.5 134zM386 498q227 25 329 49q164 39 224 94.5t60 121.5q0 56 -44.5 94t-126.5 38q-86 0 -182 -51t-163 -139t-97 -207zM887 1370q44 0 72 -28t28 -71q0 -55 -44 -97.5t-102 -42.5q-44 0 -71 27t-27 74q0 55 43 96.5t101 41.5z" />
    <glyph glyph-name="Gcircumflex" unicode="&#x11c;" horiz-adv-x="1557" 
d="M1576 1388l14 -430l-98 -9q-38 171 -148 265.5t-264 94.5q-159 0 -300 -93t-233.5 -273.5t-92.5 -380.5q0 -146 50.5 -251t141.5 -163.5t191 -58.5q84 0 175 25t157 65q50 30 75.5 66.5t43.5 114.5l29 125q9 41 9 61q0 22 -13 40.5t-33.5 26t-77.5 7.5h-64l20 84h557
l-18 -84h-42q-56 0 -83 -13t-44.5 -41.5t-35.5 -106.5l-108 -459h-96l-18 125q-79 -69 -196.5 -109t-252.5 -40q-171 0 -291 71q-134 78 -211 212.5t-77 302.5q0 226 115 426.5t309 315.5t417 115q113 0 197 -29.5t163 -98.5l59 97h74zM797 1546l332 176l274 -176l-50 -52
l-246 93l-266 -93z" />
    <glyph glyph-name="gcircumflex" unicode="&#x11d;" horiz-adv-x="1147" 
d="M1225 965l-202 -925q-39 -184 -115.5 -288.5t-197 -164t-271.5 -59.5q-161 0 -256 65t-95 134q0 36 24 62t55 26q20 0 38.5 -8t39.5 -27q15 -14 49 -60q33 -46 48 -57q25 -19 59 -29.5t73 -10.5q85 0 163.5 46.5t134 136.5t92.5 260l44 203q-45 -76 -89 -122
q-83 -85 -175 -128t-177 -43q-130 0 -208 89q-90 102 -90 261q0 172 84 332.5t218 245.5t279 85q62 0 122.5 -16.5t108.5 -46.5q37 -22 73 -67l48 106h123zM1023 781q-58 54 -118 80.5t-122 26.5q-98 0 -196.5 -70.5t-167.5 -217.5t-69 -301q0 -100 46.5 -157t111.5 -57
q84 0 165 57q122 88 208.5 239t141.5 400zM527 1189l332 176l274 -176l-50 -52l-246 93l-266 -93z" />
    <glyph glyph-name="Gdot" unicode="&#x120;" horiz-adv-x="1556" 
d="M1576 1388l14 -430l-98 -9q-38 171 -148 265.5t-264 94.5q-159 0 -300 -93t-233.5 -273.5t-92.5 -380.5q0 -146 50.5 -251t141.5 -163.5t191 -58.5q84 0 175 25t157 65q50 30 75.5 66.5t43.5 114.5l29 125q9 41 9 61q0 22 -13 40.5t-33.5 26t-77.5 7.5h-64l20 84h557
l-18 -84h-42q-56 0 -83 -13t-44.5 -41.5t-35.5 -106.5l-108 -459h-96l-18 125q-79 -69 -196.5 -109t-252.5 -40q-171 0 -291 71q-134 78 -211 212.5t-77 302.5q0 226 115 426.5t309 315.5t417 115q113 0 197 -29.5t163 -98.5l59 97h74zM1154 1727q44 0 72 -28t28 -71
q0 -55 -44 -97.5t-102 -42.5q-44 0 -71 27t-27 74q0 55 43 96.5t101 41.5z" />
    <glyph glyph-name="gdot" unicode="&#x121;" horiz-adv-x="1147" 
d="M1225 965l-202 -925q-39 -184 -115.5 -288.5t-197 -164t-271.5 -59.5q-161 0 -256 65t-95 134q0 36 24 62t55 26q20 0 38.5 -8t39.5 -27q15 -14 49 -60q33 -46 48 -57q25 -19 59 -29.5t73 -10.5q85 0 163.5 46.5t134 136.5t92.5 260l44 203q-45 -76 -89 -122
q-83 -85 -175 -128t-177 -43q-130 0 -208 89q-90 102 -90 261q0 172 84 332.5t218 245.5t279 85q62 0 122.5 -16.5t108.5 -46.5q37 -22 73 -67l48 106h123zM1023 781q-58 54 -118 80.5t-122 26.5q-98 0 -196.5 -70.5t-167.5 -217.5t-69 -301q0 -100 46.5 -157t111.5 -57
q84 0 165 57q122 88 208.5 239t141.5 400zM908 1370q44 0 72 -28t28 -71q0 -55 -44 -97.5t-102 -42.5q-44 0 -71 27t-27 74q0 55 43 96.5t101 41.5z" />
    <glyph glyph-name="Gcedilla" unicode="&#x122;" horiz-adv-x="1557" 
d="M1576 1388l14 -430l-98 -9q-38 171 -148 265.5t-264 94.5q-159 0 -300 -93t-233.5 -273.5t-92.5 -380.5q0 -146 50.5 -251t141.5 -163.5t191 -58.5q84 0 175 25t157 65q50 30 75.5 66.5t43.5 114.5l29 125q9 41 9 61q0 22 -13 40.5t-33.5 26t-77.5 7.5h-64l20 84h557
l-18 -84h-42q-56 0 -83 -13t-44.5 -41.5t-35.5 -106.5l-108 -459h-96l-18 125q-79 -69 -196.5 -109t-252.5 -40q-171 0 -291 71q-134 78 -211 212.5t-77 302.5q0 226 115 426.5t309 315.5t417 115q113 0 197 -29.5t163 -98.5l59 97h74zM857 0l-29 -75q12 0 33 1h11
q38 0 77 -18t54 -42t15 -57q0 -67 -62 -117t-159 -50q-80 0 -133 35q-37 23 -37 62q0 25 15.5 41.5t35.5 16.5q26 0 37 -9t15 -36q4 -26 20 -39q22 -16 53 -16q44 0 76.5 29.5t32.5 67.5q0 35 -28 58t-77 23q-40 0 -86 -12l60 137h76z" />
    <glyph glyph-name="gcedilla" unicode="&#x123;" horiz-adv-x="1147" 
d="M1225 965l-202 -925q-39 -184 -115.5 -288.5t-197 -164t-271.5 -59.5q-161 0 -256 65t-95 134q0 36 24 62t55 26q20 0 38.5 -8t39.5 -27q15 -14 49 -60q33 -46 48 -57q25 -19 59 -29.5t73 -10.5q85 0 163.5 46.5t134 136.5t92.5 260l44 203q-45 -76 -89 -122
q-83 -85 -175 -128t-177 -43q-130 0 -208 89q-90 102 -90 261q0 172 84 332.5t218 245.5t279 85q62 0 122.5 -16.5t108.5 -46.5q37 -22 73 -67l48 106h123zM1023 781q-58 54 -118 80.5t-122 26.5q-98 0 -196.5 -70.5t-167.5 -217.5t-69 -301q0 -100 46.5 -157t111.5 -57
q84 0 165 57q122 88 208.5 239t141.5 400zM975 1516l36 -49q-148 -88 -154 -169q23 4 38 4q30 0 54.5 -21.5t24.5 -62.5t-28.5 -64t-66.5 -23q-48 0 -84 32.5t-36 90.5q0 146 216 262z" />
    <glyph glyph-name="Hcircumflex" unicode="&#x124;" horiz-adv-x="1638" 
d="M398 1395h551l-21 -85h-43q-72 0 -99 -11.5t-44 -38.5q-22 -35 -38 -107l-85 -383h750l90 395q14 61 14 74q0 22 -16 42t-40 26q-15 3 -111 3l22 85h550l-20 -85h-48q-64 0 -93.5 -13.5t-46.5 -39t-35 -104.5l-213 -928q-9 -40 -9 -63q0 -41 32 -63q21 -15 91 -15h43
l-19 -84h-552l19 84h37q59 0 83 6.5t42.5 21t31 38.5t23.5 75l100 437h-751l-97 -422q-12 -52 -12 -80q0 -24 15.5 -43.5t42.5 -26.5q19 -6 107 -6l-19 -84h-552l21 84h32q61 0 86.5 7t44 22t27.5 34q17 35 30 93l209 913q13 58 13 82q0 23 -12.5 42.5t-31 26t-76.5 6.5h-45
zM871 1545l332 176l274 -176l-50 -52l-246 93l-266 -93z" />
    <glyph glyph-name="hcircumflex" unicode="&#x125;" 
d="M691 1467l-174 -785q70 109 146.5 176.5t153 99t151.5 31.5q96 0 160 -57.5t64 -130.5q0 -45 -14 -106l-105 -456q-12 -54 -12 -85q0 -33 18 -53t45 -20q35 0 71 24q57 39 107 106l64 -55q-133 -173 -293 -173q-75 0 -124.5 46.5t-49.5 108.5q0 42 13 101l106 472
q9 43 9 75q0 39 -30 65.5t-74 26.5q-66 0 -134 -40q-98 -59 -182.5 -173.5t-132.5 -248.5t-72 -243l-38 -173h-162l291 1299h-186l19 84q153 16 290 84h75zM673 1595l332 176l274 -176l-50 -52l-246 93l-266 -93z" />
    <glyph glyph-name="Hbar" unicode="&#x126;" horiz-adv-x="1638" 
d="M697 1121h752l10 44q14 61 14 76q0 35 -28 52t-101 17h-38l22 85h550l-20 -85h-48q-91 0 -124.5 -32.5t-57.5 -156.5h161l-22 -97h-162l-183 -799q-9 -40 -9 -61q0 -44 27 -62t96 -18h43l-19 -84h-552l19 84h37q102 0 132 30.5t48 110.5l100 437h-751l-96 -422
q-13 -58 -13 -79q0 -41 30 -59t105 -18h30l-19 -84h-552l21 84h32q94 0 129.5 28t58.5 128l178 784h-160l21 97h163q20 87 20 114q0 40 -24.5 57.5t-95.5 17.5h-45l22 85h551l-21 -85h-43q-95 0 -127.5 -30.5t-60.5 -158.5zM675 1024l-56 -254h750l58 254h-752z" />
    <glyph glyph-name="hbar" unicode="&#x127;" 
d="M610 1103l-93 -421q70 109 146.5 176.5t153 99t151.5 31.5q96 0 160 -57.5t64 -130.5q0 -45 -14 -106l-105 -456q-12 -54 -12 -85q0 -33 18 -53t45 -20q35 0 71 24q57 39 107 106l64 -55q-133 -173 -293 -173q-75 0 -124.5 46.5t-49.5 108.5q0 42 13 101l106 472
q9 43 9 75q0 39 -30 65.5t-74 26.5q-66 0 -134 -40q-98 -59 -182.5 -173.5t-132.5 -248.5t-72 -243l-38 -173h-162l247 1103h-182l19 87h183l24 108h-186l19 85q154 15 290 84h75l-62 -277h338l-20 -87h-337z" />
    <glyph glyph-name="Itilde" unicode="&#x128;" horiz-adv-x="655" 
d="M367 1395h551l-19 -85h-32q-75 0 -105 -12.5t-48.5 -40t-36.5 -104.5l-206 -907q-14 -64 -14 -87q0 -38 32 -60q22 -15 86 -15h47l-21 -84h-550l19 84h40q67 0 97.5 13.5t48 39t34.5 97.5l211 929q11 48 11 70q0 27 -12 44.5t-34 25t-81 7.5h-35zM941 1693h58
q-38 -85 -95 -128t-134 -43q-23 0 -41 3q-14 2 -69 17q-88 23 -129 23q-29 0 -51.5 -8t-39.5 -24h-62q33 75 89.5 115t119.5 40q43 0 144 -24q79 -19 101 -19q27 0 54.5 12t54.5 36z" />
    <glyph glyph-name="itilde" unicode="&#x129;" horiz-adv-x="573" 
d="M589 989l-194 -767q-12 -47 -12 -74q0 -32 17 -50.5t45 -18.5q33 0 63 20q47 30 119 109l64 -56q-61 -80 -140.5 -124.5t-150.5 -44.5q-77 0 -128 47.5t-51 110.5q0 44 17 111l144 574h-183l18 83q76 4 139.5 21t154.5 59h78zM816 1336h58q-38 -85 -95 -128t-134 -43
q-23 0 -41 3q-14 2 -69 17q-88 23 -129 23q-29 0 -51.5 -8t-39.5 -24h-62q33 75 89.5 115t119.5 40q43 0 144 -24q79 -19 101 -19q27 0 54.5 12t54.5 36z" />
    <glyph glyph-name="Imacron" unicode="&#x12a;" horiz-adv-x="655" 
d="M367 1395h551l-19 -85h-32q-75 0 -105 -12.5t-48.5 -40t-36.5 -104.5l-206 -907q-14 -64 -14 -87q0 -38 32 -60q22 -15 86 -15h47l-21 -84h-550l19 84h40q67 0 97.5 13.5t48 39t34.5 97.5l211 929q11 48 11 70q0 27 -12 44.5t-34 25t-81 7.5h-35zM435 1666h549l-65 -120
h-544z" />
    <glyph glyph-name="imacron" unicode="&#x12b;" horiz-adv-x="573" 
d="M589 989l-194 -767q-12 -47 -12 -74q0 -32 17 -50.5t45 -18.5q33 0 63 20q47 30 119 109l64 -56q-61 -80 -140.5 -124.5t-150.5 -44.5q-77 0 -128 47.5t-51 110.5q0 44 17 111l144 574h-183l18 83q76 4 139.5 21t154.5 59h78zM327 1310h549l-65 -120h-544z" />
    <glyph glyph-name="Ibreve" unicode="&#x12c;" horiz-adv-x="655" 
d="M367 1395h551l-19 -85h-32q-75 0 -105 -12.5t-48.5 -40t-36.5 -104.5l-206 -907q-14 -64 -14 -87q0 -38 32 -60q22 -15 86 -15h47l-21 -84h-550l19 84h40q67 0 97.5 13.5t48 39t34.5 97.5l211 929q11 48 11 70q0 27 -12 44.5t-34 25t-81 7.5h-35zM372 1687l49 23
q114 -71 262 -71q154 0 265 71l45 -23q-57 -92 -136 -137.5t-173 -45.5q-91 0 -169.5 40.5t-142.5 142.5z" />
    <glyph glyph-name="ibreve" unicode="&#x12d;" horiz-adv-x="573" 
d="M589 989l-194 -767q-12 -47 -12 -74q0 -32 17 -50.5t45 -18.5q33 0 63 20q47 30 119 109l64 -56q-61 -80 -140.5 -124.5t-150.5 -44.5q-77 0 -128 47.5t-51 110.5q0 44 17 111l144 574h-183l18 83q76 4 139.5 21t154.5 59h78zM215 1330l49 23q114 -71 262 -71
q154 0 265 71l45 -23q-57 -92 -136 -137.5t-173 -45.5q-91 0 -169.5 40.5t-142.5 142.5z" />
    <glyph glyph-name="Iogonek" unicode="&#x12e;" horiz-adv-x="655" 
d="M367 1395h551l-19 -85h-32q-75 0 -105 -12.5t-48.5 -40t-36.5 -104.5l-206 -907q-14 -64 -14 -87q0 -38 32 -60q22 -15 86 -15h47l-21 -84h-550l19 84h40q67 0 97.5 13.5t48 39t34.5 97.5l211 929q11 48 11 70q0 27 -12 44.5t-34 25t-81 7.5h-35zM339 0h89
q-18 -15 -54 -44q-50 -39 -66 -58q-22 -27 -32 -53t-10 -47q0 -30 25.5 -54.5t58.5 -24.5q21 0 62 15l-13 -74q-37 -6 -59 -6q-78 0 -129.5 45t-51.5 107q0 55 43 102q27 30 137 92z" />
    <glyph glyph-name="iogonek" unicode="&#x12f;" horiz-adv-x="573" 
d="M579 1467q43 0 71.5 -28.5t28.5 -74.5q0 -52 -36.5 -89.5t-84.5 -37.5q-44 0 -75 30.5t-31 73.5q0 51 38 88.5t89 37.5zM589 989l-194 -767q-12 -47 -12 -74q0 -32 17 -50.5t45 -18.5q33 0 63 20q47 30 119 109l64 -56q-61 -80 -140.5 -124.5t-150.5 -44.5
q-77 0 -128 47.5t-51 110.5q0 44 17 111l144 574h-183l18 83q76 4 139.5 21t154.5 59h78zM364 0h89q-18 -15 -54 -44q-50 -39 -66 -58q-22 -27 -32 -53t-10 -47q0 -30 25.5 -54.5t58.5 -24.5q21 0 62 15l-13 -74q-37 -6 -59 -6q-78 0 -129.5 45t-51.5 107q0 55 43 102
q27 30 137 92z" />
    <glyph glyph-name="Jcircumflex" unicode="&#x134;" horiz-adv-x="1147" 
d="M896 1395h551l-18 -85h-54q-65 0 -95 -16t-47 -47q-11 -22 -26 -88l-165 -732q-30 -133 -71 -202.5t-114.5 -126.5t-170.5 -89.5t-199 -32.5q-124 0 -219 45.5t-143.5 122t-48.5 168.5q0 86 43 141.5t96 55.5q38 0 63 -25t25 -64q0 -35 -31 -84q-30 -50 -30 -77
q0 -69 65.5 -124t172.5 -55q85 0 153 29t119 84t81 134q21 53 39 139l160 693q11 46 11 76q0 26 -15 45t-37 24.5t-113 5.5zM880 1546l332 176l274 -176l-50 -52l-246 93l-266 -93z" />
    <glyph glyph-name="jcircumflex" unicode="&#x135;" horiz-adv-x="573" 
d="M176 1189l332 176l275 -176l-51 -52l-246 93l-266 -93zM438 824h-183l18 82q113 16 162.5 30t134.5 53h72l-237 -1055q-10 -43 -42.5 -131.5t-79.5 -139.5q-66 -72 -139 -103.5t-173 -31.5q-94 0 -159.5 44.5t-65.5 100.5q0 37 24 60t61 23q26 0 47.5 -12t50.5 -48
q35 -43 59 -56.5t52 -13.5q38 0 72.5 23t61 73t49.5 154z" />
    <glyph glyph-name="Kcedilla" unicode="&#x136;" horiz-adv-x="1475" 
d="M400 1395h544l-15 -85h-48q-65 0 -92.5 -12.5t-46 -41.5t-36.5 -107l-114 -509l634 533q51 43 67 67q11 16 11 34q0 19 -15 27.5t-74 8.5h-42l22 85h529l-21 -85q-56 0 -95.5 -10t-73.5 -30q-22 -13 -95 -71l-473 -379l284 -566q42 -85 74 -120q22 -25 55.5 -37.5
t110.5 -12.5l-18 -84h-549l21 84h47q63 0 79 10q24 13 24 45q0 24 -25 75l-239 496l-272 -217l-61 -257q-12 -51 -12 -76q0 -21 14 -40.5t36 -27.5t78 -8h38l-18 -84h-550l17 84h37q71 0 103 14t50.5 47.5t33.5 99.5l206 904q14 63 14 84q0 26 -12 44t-33.5 25.5t-78.5 7.5
h-39zM585 -129l22 51q74 10 130 10q160 0 160 -119q0 -77 -65.5 -123.5t-147.5 -46.5q-65 0 -109.5 28t-44.5 68q0 25 16 42.5t39 17.5q41 0 48 -48q8 -54 60 -54q35 0 66 27.5t31 70.5q0 86 -110 86q-34 0 -95 -10z" />
    <glyph glyph-name="kcedilla" unicode="&#x137;" horiz-adv-x="1229" 
d="M690 1467l-218 -970q102 174 214 284.5t218 159t209 48.5q99 0 147.5 -34t48.5 -83q0 -34 -25 -59t-58 -25q-23 0 -39.5 6.5t-63.5 39.5q-59 41 -106 41q-54 0 -126 -38q-44 -22 -129 -94l199 -499q39 -98 69 -127.5t65 -29.5q36 0 73 23.5t103 100.5l65 -55
q-83 -100 -149 -136.5t-137 -36.5q-53 0 -94 19t-68 54q-45 57 -72 127l-171 430q-102 -128 -161 -257q-86 -186 -127 -356h-158l291 1299h-186l20 84q151 16 289 84h77zM437 -129l22 51q74 10 130 10q160 0 160 -119q0 -77 -65.5 -123.5t-147.5 -46.5q-65 0 -109.5 28
t-44.5 68q0 25 16 42.5t39 17.5q41 0 48 -48q8 -54 60 -54q35 0 66 27.5t31 70.5q0 86 -110 86q-34 0 -95 -10z" />
    <glyph glyph-name="kgreenlandic" unicode="&#x138;" horiz-adv-x="1245" 
d="M599 989l-111 -492q101 174 213 284.5t218 159t209 48.5q99 0 147.5 -34t48.5 -83q0 -34 -25 -59t-58 -25q-23 0 -39.5 6.5t-63.5 39.5q-59 41 -106 41q-54 0 -126 -38q-44 -22 -129 -94l199 -499q39 -98 69 -127.5t65 -29.5q36 0 73 23.5t103 100.5l65 -55
q-83 -100 -149 -136.5t-137 -36.5q-53 0 -94 19t-68 54q-45 57 -72 127l-171 430q-102 -128 -161 -257q-86 -186 -127 -356h-158l185 820h-185l19 85q151 14 288 84h78z" />
    <glyph glyph-name="Lcedilla" unicode="&#x13b;" horiz-adv-x="1188" 
d="M392 1395h546l-18 -85h-43q-71 0 -98.5 -12t-46 -42t-37.5 -115l-215 -953q-9 -38 -9 -45q0 -19 14 -28.5t59 -9.5h85q139 0 239.5 37.5t174.5 107.5t160 225l87 -38l-213 -437h-1000l18 84h43q68 0 92 11q31 15 50.5 43.5t36.5 100.5l206 914q11 48 11 83
q0 26 -11.5 42.5t-32.5 24t-77 7.5h-40zM416 -129l22 51q74 10 130 10q160 0 160 -119q0 -77 -65.5 -123.5t-147.5 -46.5q-65 0 -109.5 28t-44.5 68q0 25 16 42.5t39 17.5q41 0 48 -48q8 -54 60 -54q35 0 66 27.5t31 70.5q0 86 -110 86q-34 0 -95 -10z" />
    <glyph glyph-name="lcedilla" unicode="&#x13c;" horiz-adv-x="574" 
d="M673 1467l-276 -1225q-15 -68 -15 -90q0 -34 17 -52.5t45 -18.5q36 0 65 19q46 30 115 109l65 -55q-142 -171 -291 -171q-80 0 -128 45t-48 113q0 45 11 94l239 1063h-184l18 85q103 16 163.5 34t126.5 50h77zM147 -129l22 51q74 10 130 10q160 0 160 -119
q0 -77 -65.5 -123.5t-147.5 -46.5q-65 0 -109.5 28t-44.5 68q0 25 16 42.5t39 17.5q41 0 48 -48q8 -54 60 -54q35 0 66 27.5t31 70.5q0 86 -110 86q-34 0 -95 -10z" />
    <glyph glyph-name="Ncedilla" unicode="&#x145;" horiz-adv-x="1475" 
d="M393 1395h426l380 -1087l196 866q9 42 9 60q0 39 -30 58q-21 12 -87 12h-44l18 91h488l-19 -91h-39q-70 0 -100 -12t-47 -36.5t-34 -98.5l-267 -1157h-115l-455 1292l-243 -1067q-9 -37 -9 -61q0 -25 13 -44.5t34.5 -27.5t82.5 -8h34l-19 -84h-489l18 84h43q69 0 97 13
t47.5 44t36.5 110l208 906q10 44 10 73q0 42 -29 61q-21 13 -84 13h-49zM604 -129l22 51q74 10 130 10q160 0 160 -119q0 -77 -65.5 -123.5t-147.5 -46.5q-65 0 -109.5 28t-44.5 68q0 25 16 42.5t39 17.5q41 0 48 -48q8 -54 60 -54q35 0 66 27.5t31 70.5q0 86 -110 86
q-34 0 -95 -10z" />
    <glyph glyph-name="ncedilla" unicode="&#x146;" 
d="M593 989l-71 -314q49 82 95 130q87 93 178 138.5t176 45.5q67 0 117 -25.5t80 -72.5t30 -95q0 -41 -21 -130l-95 -426q-14 -61 -14 -87q0 -30 18.5 -49t45.5 -19q70 0 180 133l63 -59q-88 -102 -153.5 -139t-136.5 -37q-54 0 -93.5 21t-62.5 60.5t-23 83.5q0 39 14 101
l98 443q13 57 13 88q0 44 -28.5 69.5t-75.5 25.5q-54 0 -113.5 -29t-126.5 -96t-122.5 -166t-101.5 -236q-22 -63 -49 -189l-34 -159h-165l185 824h-185l20 82q96 14 150 30t137 53h71zM483 -135l22 51q74 10 130 10q160 0 160 -119q0 -77 -65.5 -123.5t-147.5 -46.5
q-65 0 -109.5 28t-44.5 68q0 25 16 42.5t39 17.5q41 0 48 -48q8 -54 60 -54q35 0 66 27.5t31 70.5q0 86 -110 86q-34 0 -95 -10z" />
    <glyph glyph-name="Eng" unicode="&#x14a;" horiz-adv-x="1636" 
d="M712 1184q235 235 506 235q243 0 380 -164t137 -419q0 -354 -210.5 -607t-489.5 -253q-128 0 -217 68t-89 194q0 91 48 150.5t116 59.5q32 0 55 -20t23 -50q0 -36 -33 -83q-45 -64 -45 -105q0 -110 147 -110q200 0 342 230t142 525q0 207 -94.5 336t-253.5 129
q-255 0 -501 -276l-179 -784q-12 -53 -12 -79q0 -40 30 -58.5t105 -18.5h31l-20 -84h-552l21 84h32q94 0 129.5 28t58.5 128l209 913q14 58 14 83q0 41 -26 57.5t-94 16.5h-46l22 85h361z" />
    <glyph glyph-name="eng" unicode="&#x14b;" horiz-adv-x="1179" 
d="M380 0h-165l185 820h-185l20 85q154 20 287 84h71l-71 -314q76 132 200 223t249 91q108 0 167 -60.5t59 -134.5q0 -37 -20 -128l-161 -732q-90 -404 -436 -404q-98 0 -162 44.5t-64 99.5q0 37 24.5 59.5t60.5 22.5q49 0 98 -60q57 -70 111 -70q51 0 99 46t84 204l185 816
q15 67 15 94q0 43 -32 66t-75 23q-139 0 -288 -185t-222 -531z" />
    <glyph glyph-name="Omacron" unicode="&#x14c;" horiz-adv-x="1557" 
d="M1064 1419q254 0 418 -154q173 -163 173 -438q0 -226 -116 -425.5t-314 -314.5q-191 -111 -423 -111q-176 0 -305 73t-204.5 204.5t-75.5 300.5q0 229 115.5 431.5t311.5 318t420 115.5zM1070 1313q-170 0 -313.5 -94.5t-239.5 -286.5t-96 -404q0 -134 51 -238.5
t138.5 -157.5t200.5 -53q162 0 305.5 96t240 290.5t96.5 406.5q0 132 -51.5 232.5t-138.5 154.5t-193 54zM849 1666h549l-65 -120h-544z" />
    <glyph glyph-name="omacron" unicode="&#x14d;" horiz-adv-x="1106" 
d="M753 989q170 0 280 -110.5t110 -279.5q0 -170 -78.5 -319.5t-205 -226.5t-279.5 -77q-128 0 -212.5 47t-138 143t-53.5 209q0 161 81.5 309.5t211.5 226.5t284 78zM744 892q-96 0 -180 -60.5t-144 -194.5t-60 -283q0 -121 57.5 -203t166.5 -82q91 0 172.5 60.5
t142.5 198.5t61 279q0 86 -29.5 153.5t-78.5 99.5t-108 32zM557 1310h549l-65 -120h-544z" />
    <glyph glyph-name="Obreve" unicode="&#x14e;" horiz-adv-x="1557" 
d="M1064 1419q254 0 418 -154q173 -163 173 -438q0 -226 -116 -425.5t-314 -314.5q-191 -111 -423 -111q-176 0 -305 73t-204.5 204.5t-75.5 300.5q0 229 115.5 431.5t311.5 318t420 115.5zM1070 1313q-170 0 -313.5 -94.5t-239.5 -286.5t-96 -404q0 -134 51 -238.5
t138.5 -157.5t200.5 -53q162 0 305.5 96t240 290.5t96.5 406.5q0 132 -51.5 232.5t-138.5 154.5t-193 54zM786 1687l49 23q114 -71 262 -71q154 0 265 71l45 -23q-57 -92 -136 -137.5t-173 -45.5q-91 0 -169.5 40.5t-142.5 142.5z" />
    <glyph glyph-name="obreve" unicode="&#x14f;" horiz-adv-x="1106" 
d="M753 989q170 0 280 -110.5t110 -279.5q0 -170 -78.5 -319.5t-205 -226.5t-279.5 -77q-128 0 -212.5 47t-138 143t-53.5 209q0 161 81.5 309.5t211.5 226.5t284 78zM744 892q-96 0 -180 -60.5t-144 -194.5t-60 -283q0 -121 57.5 -203t166.5 -82q91 0 172.5 60.5
t142.5 198.5t61 279q0 86 -29.5 153.5t-78.5 99.5t-108 32zM492 1330l49 23q114 -71 262 -71q154 0 265 71l45 -23q-57 -92 -136 -137.5t-173 -45.5q-91 0 -169.5 40.5t-142.5 142.5z" />
    <glyph glyph-name="Rcedilla" unicode="&#x156;" horiz-adv-x="1434" 
d="M399 1395h692q180 0 268.5 -36t138 -109t49.5 -170q0 -113 -65.5 -211.5t-173 -147t-334.5 -55.5l260 -458q22 -38 58 -78q22 -26 55 -36.5t104 -9.5l-18 -84h-282l-359 666h-194l-101 -442q-9 -37 -9 -60q0 -27 16 -48.5t38 -26.5q16 -5 111 -5l-20 -84h-551l20 84h30
q76 0 105.5 12.5t47.5 38t34 101.5l210 913q13 54 13 83q0 44 -29 61t-97 17h-37zM738 1284l-121 -523h273q194 0 273.5 32.5t131 109t51.5 171.5q0 71 -32.5 118t-93 69.5t-200.5 22.5h-282zM564 -129l22 51q74 10 130 10q160 0 160 -119q0 -77 -65.5 -123.5t-147.5 -46.5
q-65 0 -109.5 28t-44.5 68q0 25 16 42.5t39 17.5q41 0 48 -48q8 -54 60 -54q35 0 66 27.5t31 70.5q0 86 -110 86q-34 0 -95 -10z" />
    <glyph glyph-name="rcedilla" unicode="&#x157;" horiz-adv-x="819" 
d="M598 989l-73 -314q58 108 126.5 179t140.5 108q52 27 105 27t86.5 -30.5t33.5 -74.5q0 -38 -27.5 -67.5t-58.5 -29.5q-21 0 -59 14q-39 15 -62 15q-84 0 -177 -124q-127 -168 -207 -512l-42 -180h-164l185 823h-185l20 82q93 12 156 30.5t129 53.5h73zM207 -129l22 51
q74 10 130 10q160 0 160 -119q0 -77 -65.5 -123.5t-147.5 -46.5q-65 0 -109.5 28t-44.5 68q0 25 16 42.5t39 17.5q41 0 48 -48q8 -54 60 -54q35 0 66 27.5t31 70.5q0 86 -110 86q-34 0 -95 -10z" />
    <glyph glyph-name="Scircumflex" unicode="&#x15c;" horiz-adv-x="1311" 
d="M1348 1395h73l8 -442h-98q-38 149 -154 252.5t-290 103.5q-97 0 -174.5 -35t-117.5 -91.5t-40 -111.5q0 -48 25.5 -89.5t86.5 -79.5t213 -91q222 -78 303.5 -131t121.5 -122t40 -148q0 -108 -69.5 -211t-193.5 -163t-290 -60q-132 0 -231 37t-206 130l-84 -143h-66
l22 511h94q37 -201 163.5 -313.5t306.5 -112.5q166 0 282 92q95 76 95 187q0 67 -37.5 118t-130.5 97q-52 25 -251 95q-187 67 -259 138q-100 101 -100 227q0 93 61.5 181t180.5 143.5t267 55.5q111 0 201.5 -31.5t180.5 -101.5zM685 1545l332 176l274 -176l-50 -52l-246 93
l-266 -93z" />
    <glyph glyph-name="scircumflex" unicode="&#x15d;" horiz-adv-x="1106" 
d="M631 604l177 -61q28 -10 98 -43.5t99 -59.5q37 -33 58.5 -79t21.5 -93q0 -73 -49.5 -142t-145 -109.5t-235.5 -40.5q-152 0 -273 44.5t-176 107t-55 113.5q0 34 23.5 57t59.5 23q22 0 40.5 -8t37.5 -28q13 -14 42 -64q26 -44 34 -53q23 -27 62 -52t87.5 -37.5
t113.5 -12.5q94 0 156.5 23.5t93 62.5t30.5 79q0 56 -56 101q-56 44 -163 76q-9 3 -19 7l-140 49q-128 45 -184 111q-57 65 -57 143q0 68 46 132t135.5 101.5t221.5 37.5q202 0 332 -81q97 -61 97 -138q0 -34 -23 -58t-57 -24q-32 0 -61 23q-20 16 -59 71q-40 57 -97.5 85
t-141.5 28q-114 0 -176.5 -44t-62.5 -99q0 -44 34 -79.5t131 -68.5zM518 1189l332 176l274 -176l-50 -52l-246 93l-266 -93z" />
    <glyph glyph-name="Tbar" unicode="&#x166;" horiz-adv-x="1229" 
d="M878 783h395l-21 -96h-395l-105 -462q-9 -39 -9 -61q0 -48 29.5 -64t134.5 -16l-18 -84h-551l20 84q117 0 155.5 22.5t57.5 105.5l107 475h-395l24 96h393l101 451q7 31 7 44q0 27 -57 27q-164 0 -263 -89.5t-181 -222.5l-80 47l215 399h69v-44h825l18 44h74l52 -414
l-96 -19q-20 134 -89 217t-234 83q-45 0 -57 -10t-20 -46z" />
    <glyph glyph-name="tbar" unicode="&#x167;" horiz-adv-x="696" 
d="M550 863l-63 -276h266l-20 -86h-265l-51 -226q-15 -65 -15 -100q0 -42 23.5 -66.5t60.5 -24.5q27 0 54 10q36 14 72 42q19 15 93 92l67 -56q-97 -114 -171.5 -155t-153.5 -41q-90 0 -148.5 53.5t-58.5 126.5q0 47 13 103l55 242h-183l19 86h183l63 276h-183l18 77
q230 47 347 358h75l-75 -333h266l-23 -102h-265z" />
    <glyph glyph-name="Utilde" unicode="&#x168;" horiz-adv-x="1475" 
d="M334 1395h548l-17 -85h-47q-64 0 -90.5 -11.5t-46 -40.5t-34.5 -92l-153 -674q-16 -70 -16 -125q0 -75 38.5 -137t115.5 -99t174 -37q123 0 225.5 58t156 156.5t82.5 226.5l146 631q12 52 12 74q0 23 -13 40.5t-34 24.5q-16 5 -79 5h-38l18 85h488l-18 -85h-48
q-62 0 -90.5 -12.5t-47.5 -40t-33 -91.5l-154 -674q-23 -101 -48 -157q-47 -110 -132 -193.5t-193 -124.5t-240 -41q-223 0 -345 114.5t-122 249.5q0 80 18 158l150 659q11 50 11 76q0 25 -13 44.5t-33 26t-84 6.5h-31zM1385 1693h58q-38 -85 -95 -128t-134 -43q-23 0 -41 3
q-14 2 -69 17q-88 23 -129 23q-29 0 -51.5 -8t-39.5 -24h-62q33 75 89.5 115t119.5 40q43 0 144 -24q79 -19 101 -19q27 0 54.5 12t54.5 36z" />
    <glyph glyph-name="utilde" unicode="&#x169;" 
d="M1063 965h164l-164 -724q-11 -49 -11 -96q0 -30 17.5 -47.5t43.5 -17.5q30 0 65 23q62 41 116 107l64 -55q-80 -95 -148.5 -133.5t-140.5 -38.5q-81 0 -130 45t-49 111q0 42 18 131q-45 -75 -88 -120q-83 -87 -175 -130.5t-175 -43.5q-67 0 -116.5 24t-77.5 69t-28 92
t19 134l116 526h-184l19 85q76 7 136.5 24t154.5 59h74l-163 -733q-10 -48 -10 -69q0 -47 27 -75.5t69 -28.5q92 0 190 77q125 98 201.5 252.5t113.5 320.5zM1125 1336h58q-38 -85 -95 -128t-134 -43q-23 0 -41 3q-14 2 -69 17q-88 23 -129 23q-29 0 -51.5 -8t-39.5 -24h-62
q33 75 89.5 115t119.5 40q43 0 144 -24q79 -19 101 -19q27 0 54.5 12t54.5 36z" />
    <glyph glyph-name="Umacron" unicode="&#x16a;" horiz-adv-x="1475" 
d="M334 1395h548l-17 -85h-47q-64 0 -90.5 -11.5t-46 -40.5t-34.5 -92l-153 -674q-16 -70 -16 -125q0 -75 38.5 -137t115.5 -99t174 -37q123 0 225.5 58t156 156.5t82.5 226.5l146 631q12 52 12 74q0 23 -13 40.5t-34 24.5q-16 5 -79 5h-38l18 85h488l-18 -85h-48
q-62 0 -90.5 -12.5t-47.5 -40t-33 -91.5l-154 -674q-23 -101 -48 -157q-47 -110 -132 -193.5t-193 -124.5t-240 -41q-223 0 -345 114.5t-122 249.5q0 80 18 158l150 659q11 50 11 76q0 25 -13 44.5t-33 26t-84 6.5h-31zM860 1666h549l-65 -120h-544z" />
    <glyph glyph-name="umacron" unicode="&#x16b;" 
d="M1063 965h164l-164 -724q-11 -49 -11 -96q0 -30 17.5 -47.5t43.5 -17.5q30 0 65 23q62 41 116 107l64 -55q-80 -95 -148.5 -133.5t-140.5 -38.5q-81 0 -130 45t-49 111q0 42 18 131q-45 -75 -88 -120q-83 -87 -175 -130.5t-175 -43.5q-67 0 -116.5 24t-77.5 69t-28 92
t19 134l116 526h-184l19 85q76 7 136.5 24t154.5 59h74l-163 -733q-10 -48 -10 -69q0 -47 27 -75.5t69 -28.5q92 0 190 77q125 98 201.5 252.5t113.5 320.5zM626 1310h549l-65 -120h-544z" />
    <glyph glyph-name="Ubreve" unicode="&#x16c;" horiz-adv-x="1475" 
d="M334 1395h548l-17 -85h-47q-64 0 -90.5 -11.5t-46 -40.5t-34.5 -92l-153 -674q-16 -70 -16 -125q0 -75 38.5 -137t115.5 -99t174 -37q123 0 225.5 58t156 156.5t82.5 226.5l146 631q12 52 12 74q0 23 -13 40.5t-34 24.5q-16 5 -79 5h-38l18 85h488l-18 -85h-48
q-62 0 -90.5 -12.5t-47.5 -40t-33 -91.5l-154 -674q-23 -101 -48 -157q-47 -110 -132 -193.5t-193 -124.5t-240 -41q-223 0 -345 114.5t-122 249.5q0 80 18 158l150 659q11 50 11 76q0 25 -13 44.5t-33 26t-84 6.5h-31zM797 1687l49 23q114 -71 262 -71q154 0 265 71l45 -23
q-57 -92 -136 -137.5t-173 -45.5q-91 0 -169.5 40.5t-142.5 142.5z" />
    <glyph glyph-name="ubreve" unicode="&#x16d;" 
d="M1063 965h164l-164 -724q-11 -49 -11 -96q0 -30 17.5 -47.5t43.5 -17.5q30 0 65 23q62 41 116 107l64 -55q-80 -95 -148.5 -133.5t-140.5 -38.5q-81 0 -130 45t-49 111q0 42 18 131q-45 -75 -88 -120q-83 -87 -175 -130.5t-175 -43.5q-67 0 -116.5 24t-77.5 69t-28 92
t19 134l116 526h-184l19 85q76 7 136.5 24t154.5 59h74l-163 -733q-10 -48 -10 -69q0 -47 27 -75.5t69 -28.5q92 0 190 77q125 98 201.5 252.5t113.5 320.5zM561 1330l49 23q114 -71 262 -71q154 0 265 71l45 -23q-57 -92 -136 -137.5t-173 -45.5q-91 0 -169.5 40.5
t-142.5 142.5z" />
    <glyph glyph-name="Uogonek" unicode="&#x172;" horiz-adv-x="1475" 
d="M334 1395h548l-17 -85h-47q-64 0 -90.5 -11.5t-46 -40.5t-34.5 -92l-153 -674q-16 -70 -16 -125q0 -75 38.5 -137t115.5 -99t174 -37q123 0 225.5 58t156 156.5t82.5 226.5l146 631q12 52 12 74q0 23 -13 40.5t-34 24.5q-16 5 -79 5h-38l18 85h488l-18 -85h-48
q-62 0 -90.5 -12.5t-47.5 -40t-33 -91.5l-154 -674q-23 -101 -48 -157q-47 -110 -132 -193.5t-193 -124.5t-240 -41q-223 0 -345 114.5t-122 249.5q0 80 18 158l150 659q11 50 11 76q0 25 -13 44.5t-33 26t-84 6.5h-31zM802 0h89q-18 -15 -54 -44q-50 -39 -66 -58
q-22 -27 -32 -53t-10 -47q0 -30 25.5 -54.5t58.5 -24.5q21 0 62 15l-13 -74q-37 -6 -59 -6q-78 0 -129.5 45t-51.5 107q0 55 43 102q27 30 137 92z" />
    <glyph glyph-name="uogonek" unicode="&#x173;" 
d="M1063 965h164l-164 -724q-11 -49 -11 -96q0 -30 17.5 -47.5t43.5 -17.5q30 0 65 23q62 41 116 107l64 -55q-80 -95 -148.5 -133.5t-140.5 -38.5q-81 0 -130 45t-49 111q0 42 18 131q-45 -75 -88 -120q-83 -87 -175 -130.5t-175 -43.5q-67 0 -116.5 24t-77.5 69t-28 92
t19 134l116 526h-184l19 85q76 7 136.5 24t154.5 59h74l-163 -733q-10 -48 -10 -69q0 -47 27 -75.5t69 -28.5q92 0 190 77q125 98 201.5 252.5t113.5 320.5zM1020 0h89q-18 -15 -54 -44q-50 -39 -66 -58q-22 -27 -32 -53t-10 -47q0 -30 25.5 -54.5t58.5 -24.5q21 0 62 15
l-13 -74q-37 -6 -59 -6q-78 0 -129.5 45t-51.5 107q0 55 43 102q27 30 137 92z" />
    <glyph glyph-name="Wcircumflex" unicode="&#x174;" horiz-adv-x="1966" 
d="M335 1395h493l-20 -85h-36q-59 0 -82.5 -9.5t-36.5 -31t-13 -56.5q0 -11 2 -38l77 -977l453 876l-10 101q-7 67 -19 89t-38 34t-83 12l18 85h488l-21 -85h-41q-56 0 -77.5 -9t-33.5 -29t-12 -57q0 -17 1 -40l78 -990l492 990q28 55 28 79q0 18 -11 31.5t-29.5 19
t-76.5 5.5h-34l18 85h454l-18 -85q-62 0 -90.5 -10t-45.5 -28q-23 -26 -60 -97l-606 -1175h-171l-83 873l-449 -873h-169l-112 1175q-6 65 -19.5 88.5t-39 35.5t-84.5 11zM1008 1546l332 176l274 -176l-50 -52l-246 93l-266 -93z" />
    <glyph glyph-name="wcircumflex" unicode="&#x175;" horiz-adv-x="1802" 
d="M590 985l-159 -712q-13 -58 -13 -97q0 -42 29.5 -68t82.5 -26q40 0 82.5 14t97.5 52t106.5 96.5t97.5 137.5q36 61 60 141l78 251l43 191h163l-152 -684q-9 -39 -9 -67q0 -59 35 -96t93 -37q74 0 158.5 45t167.5 141.5t135 218.5t52 203q0 40 -13 86q-7 22 -28 59
q-19 32 -22 41q-5 14 -5 33q0 45 26 72.5t68 27.5q53 0 88.5 -48.5t35.5 -145.5q0 -127 -67.5 -291.5t-181 -297t-227.5 -191.5t-221 -59q-118 0 -186.5 67t-68.5 177q0 22 8 62q-99 -152 -214.5 -228.5t-247.5 -76.5q-105 0 -167 54.5t-62 129.5q0 38 16 113l122 546h-186
l19 84q78 7 136 23t153 59h77zM904 1189l332 176l274 -176l-50 -52l-246 93l-266 -93z" />
    <glyph glyph-name="Ycircumflex" unicode="&#x176;" horiz-adv-x="1352" 
d="M321 1395h509l-19 -85h-60q-62 0 -81.5 -12.5t-19.5 -40.5q0 -21 17 -63l197 -525l405 516q44 55 44 84q0 21 -18 31t-83 10h-44l18 85h476l-19 -85q-60 1 -87.5 -6.5t-47.5 -22.5q-27 -20 -66 -67l-522 -636l-78 -348q-9 -44 -9 -67q0 -45 32 -65q23 -14 88 -14h43
l-18 -84h-550l19 84q95 1 113 5q40 10 64.5 41t42.5 113l68 298l-264 653q-30 74 -39 84q-14 17 -35.5 24.5t-96.5 7.5zM712 1546l332 176l274 -176l-50 -52l-246 93l-266 -93z" />
    <glyph glyph-name="ycircumflex" unicode="&#x177;" horiz-adv-x="1229" 
d="M1097 965h163l-204 -916q-22 -95 -33 -129q-29 -87 -74.5 -155.5t-119 -124t-162.5 -84t-196 -28.5q-160 0 -254.5 65.5t-94.5 137.5q0 31 25 57.5t54 26.5q32 0 62 -20t66 -74q31 -47 63 -65q50 -30 110 -30q93 0 176 51t132 139t81 233l53 225q-65 -102 -140 -167.5
t-155.5 -98t-155.5 -32.5q-112 0 -173.5 59.5t-61.5 131.5q0 53 12 107l123 547h-184l21 86q73 6 130 21.5t157 60.5h75l-161 -715q-12 -56 -12 -88q0 -42 32 -72.5t78 -30.5q71 0 138 39q97 57 172.5 153t135.5 242q46 110 81 266zM573 1189l332 176l274 -176l-50 -52
l-246 93l-266 -93z" />
    <glyph glyph-name="longs" unicode="&#x17f;" horiz-adv-x="624" 
d="M384 28q-64 -286 -173 -392t-250 -106q-85 0 -139 38t-54 86q0 32 23 55.5t58 23.5q40 0 88 -44q53 -49 85 -49q48 0 94 46.5t91 252.5l247 1125q89 403 418 403q112 0 174 -46.5t62 -101.5q0 -34 -26 -58.5t-58 -24.5q-47 0 -101 61q-60 70 -111 70q-57 0 -105.5 -55.5
t-88.5 -235.5z" />
    <glyph glyph-name="Aringacute" unicode="&#x1fa;" horiz-adv-x="1434" 
d="M889 1777l-25 59l141 139q60 58 98.5 85t71.5 27q35 0 58 -27t23 -60q0 -77 -136 -131zM1092 1395l206 -1166q18 -99 46.5 -122t107.5 -23l-18 -84h-514l25 84h56q122 0 122 86q0 23 -7 68l-48 281h-534l-180 -315q-22 -39 -22 -67q0 -27 21.5 -40t85.5 -13h47l-20 -84
h-466l20 84q85 2 120 25t98 129l682 1145q-110 53 -110 173q0 78 55 134.5t133 56.5q79 0 134 -55.5t55 -133.5q0 -106 -95 -163zM1117 1558q0 49 -34.5 84.5t-84.5 35.5t-84 -35.5t-34 -84.5t34.5 -84t83.5 -35t84 35t35 84zM1052 616l-103 620l-357 -620h460z" />
    <glyph glyph-name="aringacute" unicode="&#x1fb;" 
d="M1111 965h124l-169 -748q-9 -39 -9 -67q0 -33 18 -52t45 -19q33 0 66 22q50 32 115 107l63 -56q-97 -101 -136 -124q-74 -45 -155 -45q-55 0 -93.5 20t-61 59t-22.5 81q0 32 20 122q-79 -113 -149 -173t-143 -88t-148 -28q-131 0 -210 90q-89 100 -89 261
q0 176 83.5 333.5t219 243t280.5 85.5q93 0 169.5 -32t136.5 -97zM1032 779q-52 51 -118.5 79t-129.5 28q-99 0 -193.5 -67.5t-163 -216.5t-68.5 -301q0 -68 22 -117.5t60 -74.5t82 -25q82 0 173 66q115 82 206 248.5t130 380.5zM815 1503l-26 58l142 140q59 58 98 85t72 27
q38 0 59.5 -29t21.5 -59q0 -77 -137 -131zM1112 1283q0 -78 -55 -133.5t-133 -55.5t-133 55.5t-55 133.5t55 133.5t133 55.5q79 0 133.5 -55.5t54.5 -133.5zM1043 1283q0 49 -35 84.5t-85 35.5q-49 0 -83.5 -35.5t-34.5 -84.5t35 -84.5t83 -35.5q49 0 84.5 35.5t35.5 84.5z
" />
    <glyph glyph-name="AEacute" unicode="&#x1fc;" horiz-adv-x="2498" 
d="M961 1395h1545l115 -364l-93 -31q-23 75 -60.5 129.5t-86.5 92.5q-37 27 -92 42q-75 20 -159 20h-370l-115 -509h262l23 -1q69 0 121 24t78 60.5t59 149.5h97l-129 -565h-96q14 73 14 105q0 41 -19.5 70t-56.5 42.5t-120 13.5h-255l-110 -482q-8 -33 -8 -44
q0 -21 16.5 -31t71.5 -10h322q112 0 203.5 26t153 68.5t107.5 105.5q23 31 112 170l86 -34l-212 -443h-1255l19 84h35q85 0 124.5 28t56.5 107l102 455h-655l-358 -455l-19 -21q-36 -42 -36 -69q0 -23 17 -34t71 -11h60l-17 -84h-510l19 84q66 1 93 9.5t67 41.5q23 20 59 65
l815 989q40 48 40 73q0 27 -24.5 37.5t-85.5 10.5h-42zM1275 1284l-402 -509h597l116 509h-311zM1554 1451l-25 59l142 139q71 70 116 97q24 15 54 15q33 0 56.5 -26t23.5 -61q0 -36 -28.5 -68t-107.5 -64z" />
    <glyph glyph-name="aeacute" unicode="&#x1fd;" horiz-adv-x="1802" 
d="M926 580l20 90q9 45 9 65q0 70 -57 114.5t-172 44.5q-186 0 -231 -147q-22 -70 -36 -84q-30 -30 -65 -30q-33 0 -56 26t-23 69q0 98 103 171q128 90 324 90q95 0 172.5 -22.5t117.5 -55.5t68 -94q119 97 218 134.5t212 37.5q98 0 164.5 -29t103 -80t36.5 -102
q0 -94 -84 -174t-271 -122t-408 -51q-6 -38 -6 -68q0 -86 32 -147t94.5 -97.5t129.5 -36.5q84 0 191 44t227 139l55 -63q-58 -54 -119 -92q-113 -70 -208 -102t-195 -32q-87 0 -153.5 24.5t-115.5 71.5t-82 122q-105 -98 -255 -165q-119 -53 -225 -53q-135 0 -216 71
t-81 174q0 64 35.5 124.5t96.5 96.5q90 53 270 89t380 49zM1085 510q243 21 367.5 61.5t178.5 101.5q41 47 41 99q0 46 -45.5 84t-114.5 38q-98 0 -194 -59.5t-165 -166.5q-44 -68 -68 -158zM909 495q-182 -20 -308 -46.5t-186 -62.5q-45 -27 -69.5 -68t-24.5 -84
q0 -61 41 -96q51 -44 123 -44q70 0 159 33t206 116zM1094 1095l-25 59l142 139q71 70 116 97q24 15 54 15q33 0 56.5 -26t23.5 -61q0 -36 -28.5 -68t-107.5 -64z" />
    <glyph glyph-name="Oslashacute" unicode="&#x1fe;" horiz-adv-x="1557" 
d="M1507 1239l215 179l64 -76l-219 -182q88 -142 88 -334q0 -225 -116 -424.5t-314 -314.5q-191 -111 -423 -111q-142 0 -249 45t-191 139l-222 -184l-64 76l225 187q-84 135 -84 315q0 229 115.5 431.5t311 318t417.5 115.5q137 0 250.5 -46t195.5 -134zM1383 1136
q-113 177 -322 177q-162 0 -306 -95.5t-239.5 -286.5t-95.5 -403q0 -84 26 -170zM1426 1043l-940 -780q52 -90 135 -137t190 -47q162 0 305 95.5t239.5 290t96.5 403.5q0 85 -26 175zM944 1451l-25 59l142 139q71 70 116 97q24 15 54 15q33 0 56.5 -26t23.5 -61
q0 -36 -28.5 -68t-107.5 -64z" />
    <glyph glyph-name="oslashacute" unicode="&#x1ff;" horiz-adv-x="1106" 
d="M1043 869l139 120l56 -65l-145 -125q51 -92 51 -200q0 -170 -79 -320t-205.5 -226.5t-286.5 -76.5q-190 0 -294 120l-139 -120l-55 66l145 125q-54 97 -54 208q0 161 81.5 309t211.5 226.5t282 78.5q182 0 292 -120zM927 769q-27 60 -75.5 91.5t-110.5 31.5
q-93 0 -177 -61t-143.5 -194.5t-59.5 -283.5q0 -34 6 -68zM954 678l-561 -484q58 -125 191 -125q91 0 172.5 60.5t142.5 198.5t61 279q0 31 -6 71zM659 1095l-25 59l142 139q71 70 116 97q24 15 54 15q33 0 56.5 -26t23.5 -61q0 -36 -28.5 -68t-107.5 -64z" />
    <glyph glyph-name="tonos" unicode="&#x384;" horiz-adv-x="860" 
d="M635 1097v181q0 122 31 155.5t79 33.5q81 0 81 -61q0 -36 -56 -145l-85 -164h-50z" />
    <glyph glyph-name="dieresistonos" unicode="&#x385;" horiz-adv-x="860" 
d="M653 1097v181q0 122 31 155.5t79 33.5q81 0 81 -61q0 -36 -56 -145l-85 -164h-50zM591 1266q0 -49 -39 -87.5t-92 -38.5q-88 0 -88 91q0 50 39.5 87t89.5 37q42 0 66 -26t24 -63zM1068 1266q0 -49 -39 -87.5t-91 -38.5q-88 0 -88 91q0 50 39 87t89 37q42 0 66 -26t24 -63
z" />
    <glyph glyph-name="Alphatonos" unicode="&#x386;" horiz-adv-x="1434" 
d="M922 1395h170l206 -1166q13 -72 28 -98t37.5 -36t88.5 -11l-18 -84h-512l23 84h56q68 0 95 23t27 63q0 22 -7 68l-48 281h-534l-180 -315q-22 -39 -22 -67q0 -25 20.5 -39t86.5 -14h47l-20 -84h-466l20 84q67 2 95 12.5t50.5 33.5t72.5 108zM1052 616l-103 620l-357 -620
h460zM347 1049v181q0 122 31 155.5t79 33.5q81 0 81 -61q0 -36 -56 -145l-85 -164h-50z" />
    <glyph glyph-name="anoteleia" unicode="&#x387;" horiz-adv-x="682" 
d="M657 890q0 -56 -39.5 -99.5t-98.5 -43.5q-103 0 -103 102q0 57 40 98.5t101 41.5q44 0 72 -28t28 -71z" />
    <glyph glyph-name="Epsilontonos" unicode="&#x388;" horiz-adv-x="1540" 
d="M543 1395h1006l115 -369l-92 -29q-41 113 -94.5 172.5t-117.5 82.5q-85 30 -225 30h-257l-115 -511h169q107 0 158 22t86.5 71.5t54.5 142.5h96l-128 -566h-97q15 77 15 107q0 39 -22 70.5t-57.5 44.5t-132.5 13h-163l-113 -490q-7 -33 -7 -43q0 -20 16 -31q11 -7 62 -7
h223q164 0 267.5 35t176 102.5t165.5 232.5l87 -34l-212 -441h-1179l19 84q102 1 131 10.5t45 32.5q26 36 41 104l210 927q12 51 12 71q0 46 -30 63.5t-100 17.5h-31zM253 1049v181q0 122 31 155.5t79 33.5q81 0 81 -61q0 -36 -56 -145l-85 -164h-50z" />
    <glyph glyph-name="Etatonos" unicode="&#x389;" horiz-adv-x="1786" 
d="M546 1395h551l-21 -85h-43q-72 0 -99 -11.5t-44 -38.5q-22 -35 -38 -107l-85 -383h750l90 395q14 61 14 74q0 22 -16 42t-40 26q-15 3 -111 3l22 85h550l-20 -85h-48q-64 0 -93.5 -13.5t-46.5 -39t-35 -104.5l-213 -928q-9 -40 -9 -63q0 -41 32 -63q21 -15 91 -15h43
l-19 -84h-552l19 84h37q59 0 83 6.5t42.5 21t31 38.5t23.5 75l100 437h-751l-97 -422q-12 -52 -12 -80q0 -24 15.5 -43.5t42.5 -26.5q19 -6 107 -6l-19 -84h-552l21 84h32q61 0 86.5 7t44 22t27.5 34q17 35 30 93l209 913q13 58 13 82q0 23 -12.5 42.5t-31 26t-76.5 6.5h-45
zM253 1049v181q0 122 31 155.5t79 33.5q81 0 81 -61q0 -36 -56 -145l-85 -164h-50z" />
    <glyph glyph-name="Iotatonos" unicode="&#x38a;" horiz-adv-x="831" 
d="M542 1395h551l-19 -85h-32q-75 0 -105 -12.5t-48.5 -40t-36.5 -104.5l-206 -907q-14 -64 -14 -87q0 -38 32 -60q22 -15 86 -15h47l-21 -84h-550l19 84h40q67 0 97.5 13.5t48 39t34.5 97.5l211 929q11 48 11 70q0 27 -12 44.5t-34 25t-81 7.5h-35zM253 1049v181
q0 122 31 155.5t79 33.5q81 0 81 -61q0 -36 -56 -145l-85 -164h-50z" />
    <glyph glyph-name="Omicrontonos" unicode="&#x38c;" horiz-adv-x="1604" 
d="M1111 1419q254 0 418 -154q173 -163 173 -438q0 -226 -116 -425.5t-314 -314.5q-191 -111 -423 -111q-176 0 -305 73t-204.5 204.5t-75.5 300.5q0 229 115.5 431.5t311.5 318t420 115.5zM1117 1313q-170 0 -313.5 -94.5t-239.5 -286.5t-96 -404q0 -134 51 -238.5
t138.5 -157.5t200.5 -53q162 0 305.5 96t240 290.5t96.5 406.5q0 132 -51.5 232.5t-138.5 154.5t-193 54zM251 1049v181q0 122 31 155.5t79 33.5q81 0 81 -61q0 -36 -56 -145l-85 -164h-50z" />
    <glyph glyph-name="Upsilontonos" unicode="&#x38e;" horiz-adv-x="1573" 
d="M543 1395h509l-19 -85h-60q-62 0 -81.5 -12.5t-19.5 -40.5q0 -21 17 -63l197 -525l405 516q44 55 44 84q0 21 -18 31t-83 10h-44l18 85h476l-19 -85q-60 1 -87.5 -6.5t-47.5 -22.5q-27 -20 -66 -67l-522 -636l-78 -348q-9 -44 -9 -67q0 -45 32 -65q23 -14 88 -14h43
l-18 -84h-550l19 84q95 1 113 5q40 10 64.5 41t42.5 113l68 298l-264 653q-30 74 -39 84q-14 17 -35.5 24.5t-96.5 7.5zM252 1049v181q0 122 31 155.5t79 33.5q81 0 81 -61q0 -36 -56 -145l-85 -164h-50z" />
    <glyph glyph-name="Omegatonos" unicode="&#x38f;" horiz-adv-x="1678" 
d="M856 306l-41 -306h-473l-146 355l93 29q85 -156 157 -194.5t291 -38.5l13 79q-398 177 -398 538q0 270 226 460.5t561 190.5q272 0 432.5 -139.5t160.5 -382.5q0 -247 -151 -428t-465 -239l-24 -79q232 0 328 42.5t210 190.5l87 -34l-188 -350h-576l85 306
q265 52 378 211t113 371q0 214 -114.5 320t-300.5 106q-238 0 -399 -162t-161 -400q0 -324 302 -446zM256 1049v181q0 122 31 155.5t79 33.5q81 0 81 -61q0 -36 -56 -145l-85 -164h-50z" />
    <glyph glyph-name="iotadieresistonos" unicode="&#x390;" horiz-adv-x="573" 
d="M589 989l-194 -767q-12 -47 -12 -74q0 -69 62 -69q65 0 182 129l64 -56q-50 -68 -130.5 -118.5t-160.5 -50.5q-77 0 -128 47.5t-51 111.5q0 43 17 110l144 574h-183l18 83q136 5 294 80h78zM505 1097v181q0 122 31 155.5t79 33.5q81 0 81 -61q0 -36 -56 -145l-85 -164
h-50zM443 1266q0 -49 -39 -87.5t-92 -38.5q-88 0 -88 91q0 50 39.5 87t89.5 37q42 0 66 -26t24 -63zM920 1266q0 -49 -39 -87.5t-91 -38.5q-88 0 -88 91q0 50 39 87t89 37q42 0 66 -26t24 -63z" />
    <glyph glyph-name="Alpha" unicode="&#x391;" horiz-adv-x="1434" 
d="M922 1395h170l206 -1166q13 -72 28 -98t37.5 -36t88.5 -11l-18 -84h-512l23 84h56q68 0 95 23t27 63q0 22 -7 68l-48 281h-534l-180 -315q-22 -39 -22 -67q0 -25 20.5 -39t86.5 -14h47l-20 -84h-466l20 84q67 2 95 12.5t50.5 33.5t72.5 108zM1052 616l-103 620l-357 -620
h460z" />
    <glyph glyph-name="Beta" unicode="&#x392;" horiz-adv-x="1475" 
d="M399 1395h703q208 0 300.5 -34t144 -105t51.5 -162q0 -97 -52.5 -177.5t-145.5 -130.5q-69 -37 -188 -62q94 -19 142 -45q67 -36 106 -98.5t39 -142.5q0 -67 -26.5 -134t-79.5 -125.5t-126.5 -98.5t-166.5 -57q-130 -23 -263 -23h-754l19 84q91 1 114 6q37 8 58 33
q30 36 46 109l209 926q12 54 12 78q0 22 -13.5 41t-33.5 26t-77 7h-39zM735 1283l-116 -509h303q190 0 283.5 36t145 111t51.5 164q0 63 -33 109.5t-88 67.5t-189 21h-357zM596 678l-109 -486q-7 -30 -7 -45q0 -22 23 -33q12 -7 64 -7h197q13 0 141 7q97 6 126 12
q57 12 108.5 41t88.5 71.5t57.5 95t20.5 106.5q0 69 -40.5 125.5t-113.5 84.5t-229 28h-327z" />
    <glyph glyph-name="Gamma" unicode="&#x393;" horiz-adv-x="1253" 
d="M391 1395h997l117 -367l-91 -30q-64 169 -155.5 226t-276.5 57h-256l-239 -1049q-10 -43 -10 -66q0 -82 125 -82h41l-18 -84h-550l19 84h42q86 0 121 29t55 119l210 930q11 49 11 70q0 78 -111 78h-51z" />
    <glyph glyph-name="Delta" unicode="&#x394;" horiz-adv-x="1241" 
d="M814 1395h170l233 -1311l-19 -84h-1180l18 84zM1038 105l-198 1131l-655 -1131h853z" />
    <glyph glyph-name="Epsilon" unicode="&#x395;" horiz-adv-x="1393" 
d="M395 1395h1006l115 -369l-92 -29q-41 113 -94.5 172.5t-117.5 82.5q-85 30 -225 30h-257l-115 -511h169q107 0 158 22t86.5 71.5t54.5 142.5h96l-128 -566h-97q15 77 15 107q0 39 -22 70.5t-57.5 44.5t-132.5 13h-163l-113 -490q-7 -33 -7 -43q0 -20 16 -31q11 -7 62 -7
h223q164 0 267.5 35t176 102.5t165.5 232.5l87 -34l-212 -441h-1179l19 84q102 1 131 10.5t45 32.5q26 36 41 104l210 927q12 51 12 71q0 46 -30 63.5t-100 17.5h-31z" />
    <glyph glyph-name="Zeta" unicode="&#x396;" horiz-adv-x="1188" 
d="M453 1395h954l-20 -85l-1074 -1202h202q196 0 302.5 33.5t194.5 107.5t190 234l84 -47l-244 -436h-998l18 84l1074 1199h-232q-160 0 -253.5 -29t-163.5 -88.5t-161 -200.5l-85 48z" />
    <glyph glyph-name="Eta" unicode="&#x397;" horiz-adv-x="1638" 
d="M398 1395h551l-21 -85h-43q-72 0 -99 -11.5t-44 -38.5q-22 -35 -38 -107l-85 -383h750l90 395q14 61 14 74q0 22 -16 42t-40 26q-15 3 -111 3l22 85h550l-20 -85h-48q-64 0 -93.5 -13.5t-46.5 -39t-35 -104.5l-213 -928q-9 -40 -9 -63q0 -41 32 -63q21 -15 91 -15h43
l-19 -84h-552l19 84h37q59 0 83 6.5t42.5 21t31 38.5t23.5 75l100 437h-751l-97 -422q-12 -52 -12 -80q0 -24 15.5 -43.5t42.5 -26.5q19 -6 107 -6l-19 -84h-552l21 84h32q61 0 86.5 7t44 22t27.5 34q17 35 30 93l209 913q13 58 13 82q0 23 -12.5 42.5t-31 26t-76.5 6.5h-45
z" />
    <glyph glyph-name="Theta" unicode="&#x398;" horiz-adv-x="1557" 
d="M1061 1419q264 0 429 -163t165 -429q0 -339 -247 -595t-606 -256q-264 0 -424.5 166.5t-160.5 411.5q0 229 117 434.5t314.5 318t412.5 112.5zM1061 1313q-161 0 -305 -95t-239.5 -286.5t-95.5 -402.5q0 -196 103 -323t287 -127q275 0 458.5 244.5t183.5 548.5
q0 190 -107 315.5t-285 125.5zM656 968h97q-13 -53 -13 -68q0 -54 32 -77t130 -23h121q107 0 152 35.5t68 132.5h97l-93 -492h-98q12 63 12 85q0 58 -22.5 73t-137.5 15h-116q-101 0 -150 -28.5t-63 -91.5l-12 -53h-98z" />
    <glyph glyph-name="Iota" unicode="&#x399;" horiz-adv-x="655" 
d="M367 1395h551l-19 -85h-32q-75 0 -105 -12.5t-48.5 -40t-36.5 -104.5l-206 -907q-14 -64 -14 -87q0 -38 32 -60q22 -15 86 -15h47l-21 -84h-550l19 84h40q67 0 97.5 13.5t48 39t34.5 97.5l211 929q11 48 11 70q0 27 -12 44.5t-34 25t-81 7.5h-35z" />
    <glyph glyph-name="Kappa" unicode="&#x39a;" horiz-adv-x="1475" 
d="M400 1395h544l-15 -85h-48q-65 0 -92.5 -12.5t-46 -41.5t-36.5 -107l-114 -509l634 533q51 43 67 67q11 16 11 34q0 19 -15 27.5t-74 8.5h-42l22 85h529l-21 -85q-56 0 -95.5 -10t-73.5 -30q-22 -13 -95 -71l-473 -379l284 -566q42 -85 74 -120q22 -25 55.5 -37.5
t110.5 -12.5l-18 -84h-549l21 84h47q63 0 79 10q24 13 24 45q0 24 -25 75l-239 496l-272 -217l-61 -257q-12 -51 -12 -76q0 -21 14 -40.5t36 -27.5t78 -8h38l-18 -84h-550l17 84h37q71 0 103 14t50.5 47.5t33.5 99.5l206 904q14 63 14 84q0 26 -12 44t-33.5 25.5t-78.5 7.5
h-39z" />
    <glyph glyph-name="Lambda" unicode="&#x39b;" horiz-adv-x="1434" 
d="M949 1236l-595 -1032q-22 -39 -22 -68q0 -52 107 -52h47l-20 -84h-466l20 84q85 2 120.5 26t97.5 128l684 1157h170l206 -1166q18 -99 46.5 -122t107.5 -23l-18 -84h-512l23 84h56q122 0 122 86q0 22 -7 68z" />
    <glyph glyph-name="Mu" unicode="&#x39c;" horiz-adv-x="1761" 
d="M385 1395h435l115 -1116l619 1116h447l-21 -85h-53q-51 0 -77 -9t-42.5 -26.5t-27.5 -49.5q-17 -49 -21 -69l-213 -944q-6 -29 -6 -46q0 -44 30 -66q21 -16 84 -16h51l-19 -84h-551l19 84h45q65 0 92 11.5t47 38.5t30 78l241 1069l-712 -1281h-96l-133 1290l-244 -1078
q-7 -33 -7 -49q0 -23 12 -45q8 -15 28.5 -24.5t48.5 -9.5h78l-18 -84h-494l21 84h57q73 0 107 30t53 116l215 948q5 21 5 54q0 37 -22 58t-62 21l-22 -1h-58z" />
    <glyph glyph-name="Nu" unicode="&#x39d;" horiz-adv-x="1475" 
d="M393 1395h426l380 -1087l196 866q9 42 9 60q0 39 -30 58q-21 12 -87 12h-44l18 91h488l-19 -91h-39q-70 0 -100 -12t-47 -36.5t-34 -98.5l-267 -1157h-115l-455 1292l-243 -1067q-9 -37 -9 -61q0 -25 13 -44.5t34.5 -27.5t82.5 -8h34l-19 -84h-489l18 84h43q69 0 97 13
t47.5 44t36.5 110l208 906q10 44 10 73q0 42 -29 61q-21 13 -84 13h-49z" />
    <glyph glyph-name="Xi" unicode="&#x39e;" horiz-adv-x="1454" 
d="M381 997l-87 34l172 364h998l116 -369l-93 -29q-42 116 -122 181.5t-290 65.5h-252q-141 0 -237.5 -34.5t-204.5 -212.5zM603 1002h97q-12 -81 -12 -110q0 -92 143 -92h91q124 0 175.5 42t74.5 160h97l-136 -560h-97q20 83 20 112q0 51 -30.5 73t-125.5 22h-91
q-91 0 -132.5 -18t-66.5 -57t-58 -132h-97zM121 446l93 29q69 -187 137 -256t257 -69h250q175 0 303 55t252 270l87 -34l-212 -441h-1070z" />
    <glyph glyph-name="Omicron" unicode="&#x39f;" horiz-adv-x="1557" 
d="M1064 1419q254 0 418 -154q173 -163 173 -438q0 -226 -116 -425.5t-314 -314.5q-191 -111 -423 -111q-176 0 -305 73t-204.5 204.5t-75.5 300.5q0 229 115.5 431.5t311.5 318t420 115.5zM1070 1313q-170 0 -313.5 -94.5t-239.5 -286.5t-96 -404q0 -134 51 -238.5
t138.5 -157.5t200.5 -53q162 0 305.5 96t240 290.5t96.5 406.5q0 132 -51.5 232.5t-138.5 154.5t-193 54z" />
    <glyph glyph-name="Pi" unicode="&#x3a0;" horiz-adv-x="1618" 
d="M1006 85h40q84 0 120.5 23.5t59.5 125.5l238 1048h-731l-237 -1042q-12 -52 -12 -78q0 -42 30 -59.5t105 -17.5h30l-19 -85h-552l21 85h32q93 0 129 27t59 128l209 913q13 58 13 82q0 40 -24.5 57.5t-95.5 17.5h-45l22 85h1456l-19 -85h-32q-101 0 -134 -28t-56 -129
l-205 -907q-15 -64 -15 -87q0 -39 27.5 -56.5t91.5 -17.5h46l-20 -85h-551z" />
    <glyph glyph-name="Rho" unicode="&#x3a1;" horiz-adv-x="1229" 
d="M393 1395h588q173 0 262 -39.5t139.5 -117t50.5 -180.5q0 -130 -76 -243.5t-207 -170.5q-115 -49 -372 -49h-205l-83 -365q-10 -44 -10 -70q0 -24 13 -42t34 -26t78 -8h38l-18 -84h-549l19 84h43q85 0 119.5 29t54.5 117l209 924q13 56 13 75q0 30 -15 50.5t-37 26.5
q-17 4 -110 4zM730 1283l-134 -584h153q184 0 250 21q100 30 168 122t68 210q0 86 -43.5 142t-113.5 76q-46 13 -177 13h-171z" />
    <glyph glyph-name="Sigma" unicode="&#x3a3;" horiz-adv-x="1188" 
d="M673 718l-350 592l20 85h884l116 -369l-93 -29q-43 131 -129 208t-307 77h-243l290 -529l-569 -603h353q240 0 377 83t266 274l84 -32l-270 -475h-1049l20 84z" />
    <glyph glyph-name="Tau" unicode="&#x3a4;" horiz-adv-x="1229" 
d="M1428 1439l52 -414l-96 -19q-20 116 -61 179.5t-98.5 91.5t-176.5 28q-33 0 -44.5 -9.5t-19.5 -45.5l-232 -1025q-8 -39 -8 -64q0 -26 14.5 -45.5t40 -25.5t108.5 -6l-18 -84h-551l20 84q71 1 105 6t52.5 18.5t30.5 38.5q20 42 25 65l230 1022q7 31 7 46q0 13 -10.5 19
t-46.5 6q-100 0 -170.5 -31.5t-145.5 -110.5q-48 -50 -126 -170l-82 47l215 399h69v-44h825l18 44h74z" />
    <glyph glyph-name="Upsilon" unicode="&#x3a5;" horiz-adv-x="1352" 
d="M321 1395h509l-19 -85h-60q-62 0 -81.5 -12.5t-19.5 -40.5q0 -21 17 -63l197 -525l405 516q44 55 44 84q0 21 -18 31t-83 10h-44l18 85h476l-19 -85q-60 1 -87.5 -6.5t-47.5 -22.5q-27 -20 -66 -67l-522 -636l-78 -348q-9 -44 -9 -67q0 -45 32 -65q23 -14 88 -14h43
l-18 -84h-550l19 84q95 1 113 5q40 10 64.5 41t42.5 113l68 298l-264 653q-30 74 -39 84q-14 17 -35.5 24.5t-96.5 7.5z" />
    </font>
</defs>
</svg>
